<?xml version="1.0" encoding="UTF-8"?>
<svg id="_レイヤー_2" data-name="レイヤー 2" xmlns="http://www.w3.org/2000/svg" viewBox="0 0 150 72.1">
  <defs>
    <style>
      .cls-1 {
        font-family: SavoyeLetPlain, 'Savoye LET';
        font-size: 42.46px;
      }

      .cls-1, .cls-2 {
        fill: #666;
      }

      .cls-2 {
        font-family: PTSans-Regular, 'PT Sans';
        font-size: 7.55px;
        letter-spacing: .04em;
      }

      .cls-3 {
        opacity: .6;
      }

      .cls-4 {
        opacity: .9;
      }

      .cls-5 {
        fill: #bee5ee;
      }

      .cls-5, .cls-6, .cls-7, .cls-8, .cls-9, .cls-10, .cls-11, .cls-12, .cls-13, .cls-14, .cls-15 {
        stroke-width: 0px;
      }

      .cls-6 {
        fill: #c0e6ee;
      }

      .cls-7 {
        fill: #aedeea;
      }

      .cls-8 {
        fill: #a9dce8;
      }

      .cls-9 {
        fill: #a4dae7;
      }

      .cls-10 {
        fill: #b7e2ec;
      }

      .cls-11 {
        fill: #b5e1eb;
      }

      .cls-12 {
        fill: #9bd6e4;
      }

      .cls-13 {
        fill: #8dd1e1;
      }

      .cls-14 {
        fill: #91d3e2;
      }

      .cls-15 {
        fill: #97d5e3;
      }
    </style>
  </defs>
  <g id="_ヘッダー" data-name="ヘッダー">
    <g>
      <g class="cls-3">
        <g class="cls-4">
          <g class="cls-4">
            <path class="cls-6" d="m19.32,35.18l-.63-.51c-.24.83-.6,1.68-1.11,2.56-1.24.94,1.3,2.08,4.14,3.47.67-1.68.16-3.42-2.4-5.52Z"/>
            <path class="cls-11" d="m14.55,13.7c-.45.21-.89.42-1.32.62.02.07.03.15.04.24.44-.29.87-.58,1.29-.86Z"/>
            <path class="cls-6" d="m12.92,27.38c1.6,1.1,2.96.75,4.34,1-.46-1.03-.74-2.13-.73-3.37-.09-1.32-.43-2.59-.91-3.84-.66.1-1.58.18-2.28-.15q.24.53.87.42c-.62.11-1.86.33-1.86.33-.13,1.17,1.84,2.53,3.33,2.83-1.02.18-2.46.44-3.63.65.14.46.3.91.48,1.37.34.26.7.49,1.03.65l-.62.11Z"/>
            <path class="cls-6" d="m25.32,53.94c-.13-.19-.25-.37-.36-.56-.75.33-1.57.55-2.4.75.41.63.81,1.26,1.23,1.9.41-.13.88-.24,1.36-.34v.64c-.15.25-.33.49-.74.63l.05.07c.25.35.5.71.76,1.05-.02-.29-.04-.58-.06-.86.95.43,1.8,1.33,2.32.36.02-1.04-1.24-2.28-2.17-3.63Z"/>
            <path class="cls-5" d="m41.37,60.86c.07-1.1.3-2.19.77-3.26-1.39.39-2.84-1.65-4.2-1.29,1.26-2.7-.25-5.14-2.09-7.41-1.84-2.27-4-4.4-4.39-6.34-1.27-4.11-5.13-6.63-6.95-10.13-.7.33-.88,1.28-2.03,1.07.44.88,1.14,1.29,2.09,1.26.18-.01.37-.03.56-.07-.2.04-.38.06-.56.07-.7.04-1.33-.11-2.09-.28.22.17.33.41.16.71-.21.16-.4.22-.6.21,1.69,3.26,3.23,6.55,2.22,10.38l.68.5c2.74,2.06,3.38,3.8,2.76,5.49,1.86.82,3.87,1.73,5.14,2.78,1.99,2.06,3.71,4.39,5.61,6.71.87-.26,1.7-.53,2.48-.93.14.18.29.36.45.53Z"/>
            <path class="cls-13" d="m141.14,29.14c-.52-2.99-2.54-6.05-5.44-8.3-2.86-2.22-6.59-3.6-10.15-3.22-7.46,0-14.76.2-22.21.64,1.42,2.46,1.06,5.64-1.89,7.87-1.5,1.13-4.69-.68-5.24.44-3.48,2.59-4.16,5.21-8.59,6.99.87.75,1.18,2.6,2.13,2.61,2.73,1.51,6.1,1.86,9.64-.78,1.01-.75,3.7,2.16,1.21,3.31,3.36.32,5.38-1.21,7.81-1.63,6.84-1.62,3.06,4.74,5.75,7.64.48.82,1.09,1.35,1.77,1.68,4.4-3.18,8.35-7.2,12.71-10.28,1.03-.74,2.79.77,3.82.07,1.98-.69,4.28-1.92,6.04-3.19,1.75-1.3,2.95-2.72,2.64-3.85Z"/>
            <path class="cls-15" d="m75.94,22.35c1.11-.92,2.31-1.54,3.58-2.02-2.04-1-4.02-2-5.91-3.01-.47.62-.97,1.23-1.41,1.84,1.44.48,2.73,1.45,3.74,3.19Z"/>
            <path class="cls-15" d="m110.09,48.49c.19-2.96-1.74-2.92-3.53-5.1-3.04,2.29-5.48,1.95-7.7-.6-.05.74-1.49.39-2,.76.06-.74-1.31-1.84-.28-2.58-1.03.75-2.39-.36-2.97.76-1.87-.73,1.16-2.22-.2-3.33-2.85,2.41-5.77,2.18-7.68.85-1.91-1.35-2.8-3.79-1.88-5.79.67-1.82,2.19-2.88,2.89-5.46.7-2.58,3.82-1.4,6.15-1.05-.83-1.47-4.05-1.85-2.51-3.69,1.57-1.18,3.28-2.66,4.22-4.29-4.52.91-9.8,3.47-12.26,2.63-.95-.42-1.89-.84-2.83-1.26-1.28.47-2.48,1.1-3.58,2.02-1.01-1.74-2.3-2.71-3.74-3.19-.55.75-1.03,1.52-1.27,2.34-1.33,2.81,3.93,2.68,5.46,4.94-1.42.48-2.52,1.11-3.36,1.88-.84.77-1.42,1.69-1.76,2.68-.68,1.98-.41,4.23.69,6.19,1.5,2.35,3.19,4.02,5.89,5.63,1.41.45,3.38.57,4.98-.51-.53.35-2.14,1.42-1.7,1.8,3.27,1.19,4.95,4.25,9.06,2.78-.08.74.38,1.11-.69,1.84,2.14-1.46,1.23,2.6,3.38,1.13,1.31,1.85,1.43,5.91,4.5,5.14.85-.31,1.51-.37,2.14-.33,2.03-1.51,4.31-2.77,7.02-3.51,1.96-.53,3.79-1.32,5.5-2.26-.91.13-1.72.18-1.93-.4Z"/>
            <path class="cls-14" d="m114.16,44.71c-2.69-2.9,1.09-9.26-5.75-7.64-2.44.41-4.46,1.95-7.81,1.63,2.49-1.15-.2-4.06-1.21-3.31-3.55,2.64-6.91,2.29-9.64.78-.96-.01-1.26-1.86-2.13-2.61,4.43-1.78,5.11-4.4,8.59-6.99.55-1.12,3.74.69,5.24-.44,2.95-2.22,3.32-5.41,1.89-7.87-2.66.17-5.3.33-8,.56-.24.05-.49.09-.74.14-.94,1.63-2.64,3.12-4.22,4.29-1.54,1.85,1.68,2.22,2.51,3.69-2.33-.35-5.45-1.52-6.15,1.05-.71,2.59-2.22,3.65-2.89,5.46-.93,2-.04,4.43,1.88,5.79,1.9,1.33,4.82,1.56,7.68-.85,1.36,1.1-1.67,2.6.2,3.33.58-1.11,1.94-.01,2.97-.76-1.03.75.34,1.85.28,2.58.52-.37,1.95-.02,2-.76,2.23,2.55,4.66,2.89,7.7.6,1.79,2.18,3.72,2.14,3.53,5.1.22.59,1.02.53,1.93.4,1.35-.74,2.67-1.59,3.92-2.5-.68-.33-1.29-.86-1.77-1.68Z"/>
            <path class="cls-12" d="m97.36,55c-3.07.77-3.19-3.3-4.5-5.14-2.15,1.46-1.24-2.59-3.38-1.13,1.07-.73.61-1.1.69-1.84-4.11,1.47-5.79-1.59-9.06-2.78-.44-.38,1.17-1.45,1.7-1.8-1.6,1.08-3.57.96-4.98.51-2.7-1.61-4.39-3.27-5.89-5.63-1.09-1.95-1.37-4.21-.69-6.19.34-.99.92-1.91,1.76-2.68.84-.77,1.94-1.4,3.36-1.88-1.53-2.26-6.79-2.12-5.46-4.94.24-.82.72-1.59,1.27-2.34-.88-.29-1.82-.37-2.8-.35-.96,0-1.97.12-2.99.3-1.01.2-2.04.41-3.04.62-1,.2-1.98.41-2.92.55-.19,1.04-.12,1.89.44,2.29,2.11,1.89,2.54,4.03,2.83,6.23.3,2.2.46,4.5,2.38,6.6.76.84,3.03,1.5,3.43,1.93,1.89,2.79-.18,5.94,1.78,8.71-.14.73,3.11-.48,3.42.66,1.19,1.95.69,4.88,3.18,5.38,3.43.87,5.75,2.33,7.63,4.07,1.89,1.76,3.34,3.8,4.97,5.7,3.26-2.17,5.89-4.94,9-7.18-.62-.04-1.28.02-2.14.33Z"/>
            <path class="cls-8" d="m37.24,3.66c-1.22-.01-2.31-.17-3.33-.45,3.96,3.78,5.08,7.87,5.73,12.66.08.84,2.09,1.36,4.06,2.11,1.97.75,3.92,1.72,4.06,3.71-.53,1.36-2.16,2.01-4.1,2.07,2.97,3.04,4.17,6.39,5.26,9.7,1.1,3.29,2.07,6.56,4.86,9.09,1.4,1.24,2.76,2.64,4.04,4.13,1.28,1.49,2.47,3,3.51,4.62,1.04,1.61,1.94,3.29,2.61,4.99.66,1.67,1.11,3.38,1.24,5.07.1,2.91,4.86,4.59,8.75,6.56,1.5-.81,2.98-1.63,4.38-2.43-2.17-1.57-4.03-3.27-4.56-5.17-.73-3.21-1.81-5.89-3.56-8.17-.88-1.15-1.93-2.24-3.19-3.23-1.26-1.01-2.71-1.88-4.42-2.84-2.2-1.48-.29-6.78-1.44-8.1-2.16-2.95-3.59-5.87-4.75-8.72-1.16-2.84-2.03-5.74-2.93-8.87-.31-1.53-1.13-3.52-2.11-5.52-2.22-.6-4.57-.86-6.71-2.2-1.74-.25-2.8-.94-3.47-1.83-.66-.88-.93-1.95-1.13-3-.39-2.09-.45-4.02-2.82-4.19Z"/>
            <path class="cls-9" d="m77.91,52.07c-2.49-.5-1.99-3.43-3.18-5.38-.31-1.14-3.56.07-3.42-.66-1.96-2.77.12-5.92-1.78-8.71-.4-.42-2.67-1.08-3.43-1.93-1.92-2.1-2.08-4.4-2.38-6.6-.29-2.2-.72-4.34-2.83-6.23-.56-.39-.62-1.24-.44-2.29h-.03c.68-2.01-1.53-2.21-2.08-2.26-2.78-.24-3.73-1.41-5.74-2.77-.41-.15-.81-.25-1.23-.37.98,2.01,1.8,3.99,2.11,5.52.9,3.13,1.77,6.03,2.93,8.87,1.16,2.85,2.59,5.77,4.75,8.72,1.15,1.31-.75,6.62,1.44,8.1,1.71.96,3.17,1.83,4.42,2.84,1.25.99,2.31,2.08,3.19,3.23,1.75,2.28,2.83,4.96,3.56,8.17.53,1.91,2.39,3.6,4.56,5.17,1.2-.66,2.38-1.28,3.53-1.77.6-.34,1.36-.14,1.99.15.62.29,1.1.67,1.1.67,2.09-.65,3.92-1.59,5.55-2.71-1.63-1.9-3.08-3.93-4.97-5.7-1.88-1.75-4.2-3.21-7.63-4.07Z"/>
            <path class="cls-7" d="m30.45,1.81c-.72.09-1.57.15-2.22.02-1.99-.14-1.26-1.42-2.09-1.82l.23.52-.55-.31c.33,1.85.32,3.68-.34,5.45,1.09.42,1.94,1.02,2.09,1.98.49,3.29.56,6.69,1.43,9.98.87,3.29,2.55,6.49,6.32,9.24,1.54,1.03.87,2.94.33,5.11-.54,2.16-.96,4.61,1.3,6.63,1.5,1.37,4.91,2.15,4.97,4.48-.21,3.04-3.77,5.79-.36,8.42,4.38,2.96,8.57,6.24,11.83,9.57,1.62,1.68,3.02,3.47,4.06,5.25,1.03,1.77,1.73,3.6,1.97,5.48,1.1.27,2.26.34,3.47.25,1.21-.08,2.41-.4,3.65-.78,1.24-.39,2.5-.89,3.75-1.45,1.23-.59,2.46-1.25,3.68-1.91-3.89-1.97-8.65-3.65-8.75-6.56-.13-1.69-.57-3.39-1.24-5.07-.67-1.7-1.57-3.38-2.61-4.99-1.05-1.62-2.23-3.14-3.51-4.62-1.28-1.5-2.64-2.89-4.04-4.13-2.79-2.52-3.76-5.79-4.86-9.09-1.09-3.31-2.29-6.67-5.26-9.7,1.94-.07,3.56-.71,4.1-2.07-.14-2-2.09-2.96-4.06-3.71-1.97-.75-3.98-1.28-4.06-2.11-.65-4.79-1.78-8.88-5.73-12.66-1.24-.34-2.36-.82-3.45-1.41Z"/>
            <path class="cls-10" d="m41.54,51.51c-3.41-2.64.16-5.39.36-8.42-.06-2.34-3.47-3.12-4.97-4.48-2.26-2.03-1.83-4.47-1.3-6.63.54-2.17,1.21-4.08-.33-5.11-3.76-2.75-5.44-5.96-6.32-9.24-.87-3.29-.94-6.69-1.43-9.98-.14-.96-.99-1.56-2.09-1.98-.27.7-.62,1.4-1.12,2.08-.74,1.28,1.86,4.17,2.8,6.23-.01,2.95-2.5,4.31-5.04,5.54-.41.29-.83.58-1.26.88,0-.09-.02-.17-.04-.24-.34.17-.67.34-.98.52.44.84.86,1.68,1.22,2.54.22.08.44.21.64.44-.12.02-.28.05-.44.08.48,1.24.83,2.5.94,3.82,0,1.24.3,2.34.77,3.36.33.06.66.14,1,.3-.34-.06-.6-.02-.81.08,1.79,3.51,5.62,6.06,6.85,10.17.37,1.95,2.5,4.09,4.3,6.38,1.78,2.29,3.27,4.73,1.98,7.42,1.33-.32,2.78,1.69,4.14,1.34-.48,1.06-.73,2.15-.81,3.25,1.1,1.3,2.6,2.42,2.68,3.47-.45,1.01-1.46.18-2.51-.18l.15.86.33.33c.68.04,1.38-.06,2.03-.28.81-.69,1.7-1.37,2.41-2-.39.93-1.33,1.64-2.41,2-.43.36-.83.73-1.18,1.11,1.26,1.2,2.68,2.32,4.32,3.31.37-.06.73-.13,1.08-.23-.29.09-.62.19-.97.29l.68.4c1.48-.41,4.41-1.26,7.25-2.26,1.48,2.98,3.58,4.6,5.92,5.14-.24-1.87-.94-3.71-1.97-5.48-1.04-1.78-2.44-3.57-4.06-5.25-3.26-3.33-7.46-6.61-11.83-9.57Z"/>
          </g>
        </g>
      </g>
      <text class="cls-2" transform="translate(25.02 53.8) scale(1.05 1)"><tspan x="0" y="0">only style remain the same</tspan></text>
      <text class="cls-1" transform="translate(0 40.44)"><tspan x="0" y="0">Minori design</tspan></text>
    </g>
  </g>
</svg>