<?xml version="1.0" encoding="UTF-8"?>
<svg id="_レイヤー_2" data-name="レイヤー 2" xmlns="http://www.w3.org/2000/svg" viewBox="0 0 70.32 23.53">
  <defs>
    <style>
      .cls-1 {
        stroke: #000;
        stroke-miterlimit: 10;
        stroke-width: .5px;
      }

      .cls-1, .cls-2 {
        fill: #666;
      }

      .cls-2 {
        stroke-width: 0px;
      }
    </style>
  </defs>
  <g id="profile">
    <g id="About_me" data-name="About me">
      <g>
        <g>
          <path class="cls-2" d="m18.07,18.22c1.18,0,2.13-.38,2.69-2.5h.7l-.75,3.15h-7.84v-.56h.4c.94,0,1.07-.37,1.07-1.14v-8.72c0-.77-.12-1.14-1.07-1.14h-.4v-.56h4v.56h-.4c-.98,0-1.07.38-1.07,1.14v9.76s2.67,0,2.67,0Z"/>
          <path class="cls-2" d="m29,10.05c2.8,0,4.21,2.13,4.21,4.55,0,2.42-1.41,4.55-4.21,4.54-2.77,0-4.21-2.07-4.21-4.55,0-2.47,1.44-4.54,4.21-4.54Zm.06,8.45c1.49,0,3.09-1.17,3.09-3.74,0-2.62-1.53-4.07-3.21-4.07-.83,0-1.78.34-2.45,1.34-.51.78-.62,1.54-.63,2.7,0,1.62,1.07,3.76,3.2,3.76Z"/>
          <path class="cls-2" d="m39.73,10.31v.54c-.74,0-1.1,0-1.1.38,0,.11.1.38.14.5l2.14,5.86,2.15-5.83c.06-.16.14-.38.14-.51,0-.4-.34-.4-1.06-.4v-.54h2.9v.55c-.45,0-.94,0-1.28.93l-2.76,7.49h-.48l-2.77-7.46c-.35-.96-.82-.96-1.34-.96v-.54h3.31Z"/>
          <path class="cls-2" d="m55.6,17.32c-.29.45-1.18,1.82-3.39,1.82-2.45,0-3.94-1.84-3.94-4.4,0-2.75,1.73-4.69,3.99-4.69,2.22,0,3.41,1.76,3.44,4.15h-6.39c-.07,3.36,1.97,4.22,3.2,4.22.29,0,1.65,0,2.56-1.46l.53.35Zm-1.02-3.76c-.02-.48-.11-2.87-2.35-2.87-1.34,0-2.61.99-2.87,2.86h5.22Z"/>
        </g>
        <line class="cls-1" x1="10.82" y1=".18" x2="5.06" y2="5.93"/>
        <line class="cls-1" x1="5.58" y1=".87" x2=".18" y2="6.28"/>
        <line class="cls-1" x1="70.14" y1="17.25" x2="64.38" y2="23"/>
        <line class="cls-1" x1="64.91" y1="17.94" x2="59.5" y2="23.35"/>
      </g>
    </g>
  </g>
</svg>