<?xml version="1.0" encoding="UTF-8"?>
<svg id="_レイヤー_2" data-name="レイヤー 2" xmlns="http://www.w3.org/2000/svg" viewBox="0 0 70.32 23.53">
  <defs>
    <style>
      .cls-1 {
        stroke: #000;
        stroke-miterlimit: 10;
        stroke-width: .5px;
      }

      .cls-1, .cls-2 {
        fill: #666;
      }

      .cls-2 {
        stroke-width: 0px;
      }
    </style>
  </defs>
  <g id="profile">
    <g id="About_me" data-name="About me">
      <g>
        <g>
          <path class="cls-2" d="m15.17,6.36l4.38,10.65,4.25-10.64h2.35v.56h-.4c-.59,0-.85.24-.8,1.14l.49,8.72c.03.61.06,1.14,1.07,1.14h.4v.56h-4v-.56h.4c.59,0,1.12-.02,1.06-1.14l-.51-8.76-4.17,10.45h-.69s-4.22-10.28-4.22-10.28l-.5,8.58c-.06,1.06.46,1.14,1.06,1.14h.4v.56h-3.6v-.56h.4c.74,0,1.02-.27,1.07-1.14l.5-8.72c.05-.96-.29-1.14-.8-1.14h-.4v-.56h2.26Z"/>
          <path class="cls-2" d="m32.67,9.65c2.8,0,4.21,2.13,4.21,4.55s-1.41,4.55-4.21,4.54c-2.77,0-4.21-2.07-4.21-4.55,0-2.47,1.44-4.55,4.21-4.54Zm.06,8.45c1.49,0,3.09-1.17,3.09-3.74,0-2.62-1.53-4.07-3.21-4.07-.83,0-1.78.33-2.45,1.34-.51.78-.62,1.54-.62,2.71,0,1.62,1.07,3.76,3.2,3.76Z"/>
          <path class="cls-2" d="m40.93,7.36v2.53s2.26,0,2.26,0v.64h-2.26s0,6.32,0,6.32c0,.35,0,1.17.82,1.17.08,0,.7,0,1.2-.56l.4.51c-.46.5-1.1.77-1.79.77-1.44,0-1.6-.9-1.6-1.92v-6.29s-1.26,0-1.26,0v-.54c1.14-.06,1.57-1.12,1.67-2.62h.58Z"/>
          <path class="cls-2" d="m47.06,7.37v2.53s2.26,0,2.26,0v.64h-2.26s0,6.32,0,6.32c0,.35,0,1.17.81,1.17.08,0,.71,0,1.2-.56l.4.51c-.46.5-1.1.77-1.79.77-1.44,0-1.6-.9-1.6-1.92v-6.29s-1.26,0-1.26,0v-.54c1.14-.06,1.57-1.12,1.67-2.62h.58Z"/>
          <path class="cls-2" d="m55.42,9.66c2.8,0,4.21,2.13,4.21,4.55s-1.41,4.55-4.21,4.54c-2.77,0-4.21-2.07-4.21-4.55,0-2.47,1.44-4.54,4.21-4.54Zm.06,8.45c1.49,0,3.09-1.17,3.09-3.74,0-2.62-1.53-4.07-3.21-4.07-.83,0-1.78.33-2.45,1.34-.51.78-.62,1.54-.62,2.7,0,1.62,1.07,3.76,3.2,3.76Z"/>
        </g>
        <line class="cls-1" x1="10.82" y1=".18" x2="5.06" y2="5.93"/>
        <line class="cls-1" x1="5.58" y1=".87" x2=".18" y2="6.28"/>
        <line class="cls-1" x1="70.14" y1="17.25" x2="64.38" y2="23"/>
        <line class="cls-1" x1="64.91" y1="17.94" x2="59.5" y2="23.35"/>
      </g>
    </g>
  </g>
</svg>