<?xml version="1.0" encoding="UTF-8"?>
<svg id="_レイヤー_2" data-name="レイヤー 2" xmlns="http://www.w3.org/2000/svg" viewBox="0 0 106.06 34.38">
  <defs>
    <style>
      .cls-1 {
        fill: none;
        stroke: #4a597b;
        stroke-dasharray: 0 0 0 6.2;
        stroke-linecap: round;
        stroke-miterlimit: 10;
        stroke-width: 1.17px;
      }

      .cls-2 {
        opacity: .7;
      }

      .cls-3 {
        fill: #4a597b;
      }

      .cls-3, .cls-4 {
        stroke-width: 0px;
      }

      .cls-4 {
        fill: #fff;
      }
    </style>
  </defs>
  <g id="_プロフ" data-name="プロフ">
    <g id="VISION">
      <g>
        <g>
          <rect class="cls-4" x=".58" y=".58" width="104.89" height="33.22" rx="5.67" ry="5.67"/>
          <rect class="cls-1" x=".58" y=".58" width="104.89" height="33.22" rx="5.67" ry="5.67"/>
        </g>
        <g>
          <g>
            <path class="cls-3" d="m20.24,21.58s-.05.07-.09.09c-.19.08-.52.12-.9.12-.65,0-1.33-.26-1.91-1.01-.44-.58-1.42-2.43-1.71-2.94-.12-.21-1.74-.28-1.74-.28v3.47c0,.29.17.51.85.57.04,0,.08.03.08.09s-.03.08-.09.08h-2.48c-.08,0-.09-.01-.09-.06v-.02c0-.06.01-.08.08-.09.63-.07.82-.26.82-.57v-6.89c0-.35-.18-.54-.86-.61-.07-.01-.08.01-.08-.09,0-.06.02-.08.09-.08,1.56,0,2.23-.05,3.78-.05,1.77,0,2.82.79,2.82,2.08,0,1.08-.57,2.07-2.31,2.28.4.82,1.1,2.11,1.8,2.97.54.66,1.08.9,1.58.9.07,0,.13,0,.2-.01.04,0,.08-.01.1-.01.04,0,.05.01.06.04v.02Zm-6.34-4.66c0,.31,1.21.4,2.11.4,1.21,0,1.98-.7,1.98-1.91,0-1.08-.71-1.78-2.2-1.78-.33,0-1.53.02-1.89.07v3.22Z"/>
            <path class="cls-3" d="m21.58,19.21c.16,1.45,1.09,2.19,2.15,2.19.81,0,1.39-.29,1.84-.86.02-.03.06-.05.09-.05s.06,0,.08.02c.02.02.06.06.06.09,0,.01-.01.02-.01.03-.39.79-1.13,1.24-2.19,1.24-1.73,0-2.82-1.19-2.82-2.98s1.12-2.97,2.7-2.97c1.27,0,2.43.95,2.43,2.64,0,.21-.02.27-.14.28l-4.18.36Zm3.48-.77s.06-.02.06-.11c0-.96-.49-2.08-1.78-2.08-1.04,0-1.78.84-1.78,2.36v.23l3.5-.4Z"/>
            <path class="cls-3" d="m32.17,20.62c0,.61.12.91.5.91.17,0,.26-.03.38-.12.03-.02.06-.03.08-.03.02,0,.03.02.06.04.01.01.01.02.01.03,0,.06-.07.11-.11.15-.16.16-.46.28-.74.28-.65,0-.93-.32-.93-.94-.49.61-1.43.94-2.18.94-1.26,0-1.87-.59-1.87-1.55,0-1.19.8-1.68,2.17-1.86.5-.07,1.38-.27,1.81-.43,0-1.3-.61-1.73-1.52-1.73-1.09,0-1.43.32-1.43.78,0,.12.19.28.19.48,0,.35-.16.51-.51.51-.31,0-.48-.27-.48-.6,0-.85.84-1.54,2.34-1.54s2.22.71,2.22,2.13v2.56Zm-.78-2.23c-.4.16-1.13.35-1.8.46-.99.17-1.42.66-1.42,1.42,0,.66.42,1.07,1.37,1.07.78,0,1.65-.44,1.85-.88v-2.06Z"/>
            <path class="cls-3" d="m40.11,21.21c.07,0,.09.04.09.09s-.02.09-.08.11c-.41.15-.92.35-1.28.46h-.02s-.07-.04-.07-.11v-.63c-.36.48-1.07.75-1.88.75-1.52,0-2.69-1.08-2.69-2.98s1.22-2.97,2.73-2.97c.76,0,1.42.27,1.77.67v-2.48c0-.29-.04-.33-.65-.33-.08,0-.11-.04-.11-.09,0-.03.03-.08.08-.09.48-.09.99-.24,1.35-.37h.02s.07.04.07.11v7.65c0,.18.01.26.21.26.1,0,.24-.01.43-.04h.02Zm-1.38-3.32c0-.96-.77-1.54-1.8-1.54-1.11,0-1.88.77-1.88,2.31,0,1.98.89,2.8,2.1,2.8.68,0,1.33-.4,1.59-.99v-2.58Z"/>
            <path class="cls-3" d="m52.45,21.79c-.08,0-.09-.01-.09-.06v-.02c0-.06.01-.08.08-.09.55-.04.58-.29.58-.6v-2.98c0-1.16-.39-1.61-.95-1.61-.66,0-1.16.35-1.48.92,0,.23.02.45.02.73v2.85c0,.35.02.62.61.7.02.01.08.03.08.09s-.03.08-.09.08h-1.97c-.06,0-.09-.02-.09-.08s.03-.09.08-.09c.61-.04.62-.35.62-.7v-2.88c0-1.16-.4-1.61-.96-1.61-.61,0-1.12.33-1.45.86v3.63c0,.35.04.63.57.7.07.01.12.03.12.09s-.03.08-.09.08h-2.04c-.08,0-.09-.01-.09-.06v-.02c0-.06.01-.08.08-.09.63-.04.67-.35.67-.7v-4.1c0-.32-.05-.33-.54-.33h-.1c-.08,0-.12-.04-.12-.1,0-.04.03-.09.09-.1.39-.07.93-.21,1.37-.33h.01c.06,0,.08.04.08.11v.77c.35-.58.93-.9,1.53-.9.88,0,1.31.34,1.53,1.09.39-.69,1.01-1.09,1.67-1.09,1.22,0,1.64.7,1.64,2.13v2.85c0,.35.09.63.67.7.02.01.08.03.08.09s-.03.08-.09.08h-2.01Z"/>
            <path class="cls-3" d="m55.89,18.91c0-1.86,1.26-2.98,2.86-2.98s2.87,1.12,2.87,2.98-1.26,2.97-2.87,2.97-2.86-1.11-2.86-2.97Zm4.85.31c0-1.92-.98-2.91-2.13-2.91s-1.85.76-1.85,2.24c0,1.67.69,2.96,2.15,2.96,1.1,0,1.83-.85,1.83-2.29Z"/>
            <path class="cls-3" d="m63.14,21.77c-.08,0-.09-.01-.09-.06v-.02c0-.06.01-.08.08-.09.63-.05.67-.35.67-.7v-4.07c0-.34-.14-.37-.65-.37-.08,0-.1-.04-.1-.09s.02-.09.07-.1c.46-.09,1.03-.24,1.35-.33h.04c.06,0,.06.05.06.11v.87c.45-.57,1.06-1,1.88-1,.66,0,1.13.42,1.13.9,0,.38-.14.53-.36.53-.94,0-.1-1.01-1.11-1.01-.73,0-1.54.8-1.54,1.37v3.19c0,.35.04.66.67.7.04,0,.08.03.08.09s-.04.08-.09.08h-2.07Z"/>
            <path class="cls-3" d="m69.5,19.21c.16,1.45,1.09,2.19,2.15,2.19.8,0,1.39-.29,1.84-.86.02-.03.06-.05.09-.05s.06,0,.08.02c.02.02.06.06.06.09,0,.01-.01.02-.01.03-.39.79-1.13,1.24-2.19,1.24-1.73,0-2.82-1.19-2.82-2.98s1.12-2.97,2.7-2.97c1.27,0,2.43.95,2.43,2.64,0,.21-.02.27-.14.28l-4.18.36Zm3.48-.77s.06-.02.06-.11c0-.96-.49-2.08-1.78-2.08-1.04,0-1.78.84-1.78,2.36v.23l3.5-.4Z"/>
          </g>
          <g class="cls-2">
            <path class="cls-3" d="m84.21,18.21c-.32,1.88.81,3.64,2.54,3.94,1.72.3,3.38-.99,3.71-2.87s-.81-3.64-2.54-3.94-3.38.99-3.71,2.87Zm1.05,2.31c-.04-.06-.07-.12-.11-.18-.02-.03.03-.06.06-.03.27.23.59.39.96.45,1.17.2,2.3-.67,2.52-1.95s-.55-2.48-1.73-2.68c-.11-.02-.22-.03-.33-.03-.05,0-.07-.06-.02-.08.39-.15.81-.2,1.21-.13.64.11,1.2.5,1.58,1.09.41.63.56,1.42.42,2.2s-.54,1.48-1.13,1.94c-.56.43-1.21.61-1.85.5s-1.2-.5-1.58-1.09Z"/>
            <path class="cls-3" d="m77.62,18.21c-.32,1.88.81,3.64,2.54,3.94,1.72.3,3.38-.99,3.71-2.87s-.81-3.64-2.54-3.94-3.38.99-3.71,2.87Zm1.05,2.31c-.04-.06-.07-.12-.11-.18-.02-.03.03-.06.06-.03.27.23.59.39.96.45,1.17.2,2.3-.67,2.52-1.95s-.55-2.48-1.73-2.68c-.11-.02-.22-.03-.33-.03-.05,0-.07-.06-.02-.08.39-.15.81-.2,1.21-.13.64.11,1.2.5,1.58,1.09.41.63.56,1.42.42,2.2s-.54,1.48-1.13,1.94c-.56.43-1.21.61-1.85.5-.64-.11-1.2-.5-1.58-1.09Z"/>
            <path class="cls-3" d="m88.14,13.38s0,0,.01,0c.21,0,.37-.18.36-.39l-.09-2.34c0-.21-.18-.37-.39-.36-.21,0-.37.18-.36.39l.09,2.34c0,.2.17.36.37.36Z"/>
            <path class="cls-3" d="m90.06,14.17c.12,0,.23-.05.31-.16l1.69-2.38c.12-.17.08-.4-.09-.52-.17-.12-.4-.08-.52.09l-1.69,2.38c-.12.17-.08.4.09.52.07.05.14.07.22.07Z"/>
            <path class="cls-3" d="m91.68,15.41s.09,0,.13-.03l2.34-.9c.19-.07.29-.29.21-.48-.07-.19-.29-.29-.48-.21l-2.34.9c-.19.07-.29.29-.21.48.06.15.2.24.35.24Z"/>
          </g>
        </g>
      </g>
    </g>
  </g>
</svg>