<?xml version="1.0" encoding="UTF-8"?>
<svg id="_レイヤー_2" data-name="レイヤー 2" xmlns="http://www.w3.org/2000/svg" viewBox="0 0 228.99 18.88">
  <defs>
    <style>
      .cls-1 {
        stroke-dasharray: 0 0 0 6.04;
      }

      .cls-1, .cls-2 {
        fill: none;
        stroke: #666;
        stroke-linecap: round;
        stroke-miterlimit: 10;
        stroke-width: 2px;
      }

      .cls-3 {
        fill: #666;
        stroke-width: 0px;
      }
    </style>
  </defs>
  <g id="profile">
    <g id="Strengh_etc" data-name="Strengh etc">
      <g>
        <g>
          <path class="cls-3" d="m.38,10.24c1.38,3.34,2.94,4.36,5.18,4.36,2.74,0,4-1.02,4-2.68,0-2.08-.98-2.94-4.88-4.38C1.5,6.38.24,5.2.24,3.54.24,1.54,1.96,0,5.32,0c1.34,0,2.92.54,3.28.54.3,0,.74-.1.92-.16.08-.02.14-.04.18-.04.08,0,.12.04.14.16.14,1.46.32,2.88.5,3.86,0,0,.02.02.02.04s-.04.06-.1.08c-.06,0-.1,0-.14-.02s-.08-.06-.1-.1c-.88-2.48-2.74-3.7-4.66-3.7C2.8.66,1.62,1.52,1.62,2.8c0,1.68.92,2.48,4.32,3.64,3.54,1.2,5.1,2.7,5.1,4.88,0,2.44-1.76,4-5.56,4-1.4,0-3.22-.38-4.58-1.02-.1-.06-.28-.14-.3-.3-.06-.78-.32-2.58-.58-3.64,0-.02-.02-.04-.02-.06,0-.08.06-.12.16-.16.1,0,.18,0,.22.1Z"/>
          <path class="cls-3" d="m14.4,5.62h-1.52c-.18,0-.28-.04-.32-.28,0-.02-.02-.06-.02-.08,0-.12.08-.22.28-.22,1.38,0,2.24-1.28,2.44-2.64.02-.12.08-.24.3-.24.18,0,.2.16.2.3v2.48h2.04c.16,0,.24.02.24.3s-.08.38-.24.38h-2.04v7.56c0,.88.48,1.3,1.18,1.3.5,0,1.02-.14,1.4-.46.08-.06.14-.1.18-.1s.06,0,.08.02c.04.02.06.06.06.1,0,.06-.04.14-.08.2-.56.76-1.2,1.02-2.18,1.02-1.22,0-2-.62-2-2.04v-7.6Z"/>
          <path class="cls-3" d="m20.26,15.08c-.14,0-.16-.02-.16-.1v-.04c0-.1.02-.14.14-.16,1.12-.08,1.18-.62,1.18-1.24v-7.18c0-.6-.24-.66-1.14-.66-.14,0-.18-.08-.18-.16s.04-.16.12-.18c.82-.16,1.82-.42,2.38-.58h.06c.1,0,.1.08.1.2v1.54c.8-1,1.88-1.76,3.32-1.76,1.16,0,2,.74,2,1.58,0,.68-.24.94-.64.94-1.66,0-.18-1.78-1.96-1.78-1.28,0-2.72,1.42-2.72,2.42v5.62c0,.62.08,1.16,1.18,1.24.08,0,.14.06.14.16s-.06.14-.16.14h-3.66Z"/>
          <path class="cls-3" d="m30.86,10.56c.28,2.56,1.92,3.86,3.8,3.86,1.42,0,2.46-.52,3.24-1.52.04-.06.1-.08.16-.08s.1,0,.14.04c.04.04.1.1.1.16,0,.02-.02.04-.02.06-.68,1.4-2,2.18-3.86,2.18-3.06,0-4.98-2.1-4.98-5.26s1.98-5.24,4.76-5.24c2.24,0,4.28,1.68,4.28,4.66,0,.38-.04.48-.24.5l-7.38.64Zm6.14-1.36c.08,0,.1-.04.1-.2,0-1.7-.86-3.66-3.14-3.66-1.84,0-3.14,1.48-3.14,4.16v.4l6.18-.7Z"/>
          <path class="cls-3" d="m47.36,15.08c-.1,0-.16-.04-.16-.14s.02-.14.14-.16c1.08-.08,1.14-.62,1.14-1.24v-5.08c0-1.96-1.2-2.84-2.2-2.84-1.34,0-2.5.64-3.28,1.6v6.32c0,.66.06,1.16,1.14,1.24.12.02.22.06.22.16s-.06.14-.16.14h-3.7c-.14,0-.16-.02-.16-.1v-.04c0-.1.02-.14.14-.16,1.12-.08,1.18-.62,1.18-1.24v-7.24c0-.56-.08-.58-.96-.58h-.18c-.14,0-.2-.1-.2-.18s.04-.16.14-.18c.8-.14,1.82-.42,2.38-.58h.06c.1,0,.1.08.1.2v1.44c1.02-1.08,2.34-1.66,3.38-1.66,2.24,0,3.52,1.48,3.52,3.76v5.02c0,.62.06,1.14,1.18,1.24.08,0,.14.06.14.16s-.06.14-.16.14h-3.7Z"/>
          <path class="cls-3" d="m54.78,12.28c0,.34.6.5,2.02.5,4.02,0,5.98.78,5.98,2.92s-2.42,3.18-5.7,3.18-4.22-1.24-4.22-2.42.86-2.2,1.9-2.76c-.96-.1-1.38-.58-1.38-1.12,0-.64.8-1.26,1.9-1.8-1.2-.5-1.82-1.52-1.82-2.78,0-1.88,1.28-3.24,3.98-3.24,1.04,0,1.82.2,2.48.6.56-.38,1.36-.6,1.78-.6,1,0,1.58.3,1.58.88,0,.54-.2.8-.78.8-.78,0-.16-.96-1.36-.96-.22,0-.5.04-.8.18.66.6,1.02,1.36,1.02,2.34,0,1.8-1.36,3.14-3.92,3.14-.5,0-.88-.02-1.32-.16-.84.44-1.32.82-1.34,1.28v.02Zm-.72,3.88c0,1.4.96,2.12,3.42,2.12s3.68-1.44,3.68-2.36c0-1.44-.88-2.12-5.46-2.2-1.2.68-1.64,1.66-1.64,2.44Zm5.76-7.92c0-1.66-.88-2.94-2.58-2.94s-2.3,1-2.3,2.52.84,2.78,2.66,2.78c1.56,0,2.22-.92,2.22-2.36Z"/>
          <path class="cls-3" d="m70.96,15.08c-.1,0-.16-.04-.16-.14s.02-.14.14-.16c1.08-.08,1.14-.62,1.14-1.24v-5.08c0-1.96-1.2-2.84-2.2-2.84-1.34,0-2.5.64-3.28,1.6v6.32c0,.66.06,1.16,1.14,1.24.12.02.22.06.22.16s-.06.14-.16.14h-3.7c-.14,0-.16-.02-.16-.1v-.04c0-.1.02-.14.14-.16,1.12-.08,1.18-.62,1.18-1.24V1.56c0-.52-.08-.58-1.14-.58-.14,0-.2-.08-.2-.16,0-.06.06-.14.14-.16.8-.14,1.5-.34,2.38-.66h.04c.08,0,.12.08.12.2v6.22c1.02-1.08,2.34-1.66,3.38-1.66,2.24,0,3.52,1.48,3.52,3.76v5.02c0,.62.06,1.14,1.18,1.24.08,0,.14.06.14.16s-.06.14-.16.14h-3.7Z"/>
        </g>
        <g>
          <line class="cls-2" x1="89.07" y1="9.03" x2="89.07" y2="9.03"/>
          <line class="cls-1" x1="95.11" y1="9.03" x2="224.97" y2="9.03"/>
          <line class="cls-2" x1="227.99" y1="9.03" x2="227.99" y2="9.03"/>
        </g>
      </g>
    </g>
  </g>
</svg>