<?xml version="1.0" encoding="UTF-8"?>
<svg id="_レイヤー_2" data-name="レイヤー 2" xmlns="http://www.w3.org/2000/svg" viewBox="0 0 234.32 15.32">
  <defs>
    <style>
      .cls-1, .cls-2 {
        fill: none;
        stroke: #666;
        stroke-linecap: round;
        stroke-miterlimit: 10;
        stroke-width: 2px;
      }

      .cls-2 {
        stroke-dasharray: 0 0 0 5.45;
      }

      .cls-3 {
        fill: #666;
        stroke-width: 0px;
      }
    </style>
  </defs>
  <g id="profile">
    <g id="Strengh_etc" data-name="Strengh etc">
      <g>
        <g>
          <path class="cls-3" d="m12.38,10.42c-.12,1.04-.2,2.28-.2,3.16,0,.2.02.4.02.56,0,.08-.06.2-.3.3-1.18.52-2.94.88-4.34.88C2.8,15.32,0,12.4,0,7.64S2.8,0,6.86,0c.86,0,2.74.26,3.22.42.14.04.32.06.5.06.24,0,.48-.02.66-.06.16-.04.28-.06.34-.06.1,0,.12.06.14.18.1,1.22.36,2.68.54,3.66v.04c0,.08-.04.12-.12.12-.12,0-.22-.02-.26-.12-.86-2.58-2.6-3.58-4.9-3.58C3.78.66,1.64,2.66,1.64,7.02c0,4.6,2.3,7.62,5.88,7.62,2.48,0,3.68-1.08,4.6-4.26.02-.08.04-.1.1-.1h.06c.06.02.1.02.1.1v.04Z"/>
          <path class="cls-3" d="m21.4,15.08c-.1,0-.16-.04-.16-.14s.02-.14.14-.16c1.08-.08,1.14-.62,1.14-1.24v-5.08c0-1.96-1.2-2.84-2.2-2.84-1.34,0-2.5.64-3.28,1.6v6.32c0,.66.06,1.16,1.14,1.24.12.02.22.06.22.16s-.06.14-.16.14h-3.7c-.14,0-.16-.02-.16-.1v-.04c0-.1.02-.14.14-.16,1.12-.08,1.18-.62,1.18-1.24V1.56c0-.52-.08-.58-1.14-.58-.14,0-.2-.08-.2-.16,0-.06.06-.14.14-.16.8-.14,1.5-.34,2.38-.66h.04c.08,0,.12.08.12.2v6.22c1.02-1.08,2.34-1.66,3.38-1.66,2.24,0,3.52,1.48,3.52,3.76v5.02c0,.62.06,1.14,1.18,1.24.08,0,.14.06.14.16s-.06.14-.16.14h-3.7Z"/>
          <path class="cls-3" d="m35.46,13.04c0,1.08.22,1.6.88,1.6.3,0,.46-.06.68-.22.06-.04.1-.06.14-.06s.06.04.1.08c.02.02.02.04.02.06,0,.1-.12.2-.2.26-.28.28-.82.5-1.3.5-1.14,0-1.64-.56-1.64-1.66-.86,1.08-2.52,1.66-3.84,1.66-2.22,0-3.3-1.04-3.3-2.74,0-2.1,1.42-2.96,3.82-3.28.88-.12,2.44-.48,3.2-.76,0-2.3-1.08-3.06-2.68-3.06-1.92,0-2.52.56-2.52,1.38,0,.22.34.5.34.84,0,.62-.28.9-.9.9-.54,0-.84-.48-.84-1.06,0-1.5,1.48-2.72,4.12-2.72s3.92,1.26,3.92,3.76v4.52Zm-1.38-3.94c-.7.28-2,.62-3.18.82-1.74.3-2.5,1.16-2.5,2.5,0,1.16.74,1.88,2.42,1.88,1.38,0,2.92-.78,3.26-1.56v-3.64Z"/>
          <path class="cls-3" d="m38.42,15.08c-.14,0-.16-.02-.16-.1v-.04c0-.1.02-.14.14-.16,1.12-.08,1.18-.62,1.18-1.24v-7.18c0-.6-.24-.66-1.14-.66-.14,0-.18-.08-.18-.16s.04-.16.12-.18c.82-.16,1.82-.42,2.38-.58h.06c.1,0,.1.08.1.2v1.54c.8-1,1.88-1.76,3.32-1.76,1.16,0,2,.74,2,1.58,0,.68-.24.94-.64.94-1.66,0-.18-1.78-1.96-1.78-1.28,0-2.72,1.42-2.72,2.42v5.62c0,.62.08,1.16,1.18,1.24.08,0,.14.06.14.16s-.06.14-.16.14h-3.66Z"/>
          <path class="cls-3" d="m56.06,13.04c0,1.08.22,1.6.88,1.6.3,0,.46-.06.68-.22.06-.04.1-.06.14-.06s.06.04.1.08c.02.02.02.04.02.06,0,.1-.12.2-.2.26-.28.28-.82.5-1.3.5-1.14,0-1.64-.56-1.64-1.66-.86,1.08-2.52,1.66-3.84,1.66-2.22,0-3.3-1.04-3.3-2.74,0-2.1,1.42-2.96,3.82-3.28.88-.12,2.44-.48,3.2-.76,0-2.3-1.08-3.06-2.68-3.06-1.92,0-2.52.56-2.52,1.38,0,.22.34.5.34.84,0,.62-.28.9-.9.9-.54,0-.84-.48-.84-1.06,0-1.5,1.48-2.72,4.12-2.72s3.92,1.26,3.92,3.76v4.52Zm-1.38-3.94c-.7.28-2,.62-3.18.82-1.74.3-2.5,1.16-2.5,2.5,0,1.16.74,1.88,2.42,1.88,1.38,0,2.92-.78,3.26-1.56v-3.64Z"/>
          <path class="cls-3" d="m64.14,15.26c-3.1,0-5.16-2.1-5.16-5.26s2.24-5.24,5.02-5.24c2.36,0,3.86,1.52,3.86,2.68,0,.62-.3.96-.74.96-.68,0-1-.44-1-.84,0-1.48-1.08-2.18-2.44-2.18-1.72,0-3.12,1.38-3.12,4.12,0,3.28,1.9,4.86,3.82,4.86,1.38,0,2.22-.5,2.98-1.74.04-.04.1-.08.18-.08.04,0,.08.02.12.04.06.04.1.12.1.2,0,.04,0,.06-.02.1-.6,1.36-1.96,2.38-3.6,2.38Z"/>
          <path class="cls-3" d="m70.8,5.62h-1.52c-.18,0-.28-.04-.32-.28,0-.02-.02-.06-.02-.08,0-.12.08-.22.28-.22,1.38,0,2.24-1.28,2.44-2.64.02-.12.08-.24.3-.24.18,0,.2.16.2.3v2.48h2.04c.16,0,.24.02.24.3s-.08.38-.24.38h-2.04v7.56c0,.88.48,1.3,1.18,1.3.5,0,1.02-.14,1.4-.46.08-.06.14-.1.18-.1s.06,0,.08.02c.04.02.06.06.06.1,0,.06-.04.14-.08.2-.56.76-1.2,1.02-2.18,1.02-1.22,0-2-.62-2-2.04v-7.6Z"/>
          <path class="cls-3" d="m78.04,10.56c.28,2.56,1.92,3.86,3.8,3.86,1.42,0,2.46-.52,3.24-1.52.04-.06.1-.08.16-.08s.1,0,.14.04c.04.04.1.1.1.16,0,.02-.02.04-.02.06-.68,1.4-2,2.18-3.86,2.18-3.06,0-4.98-2.1-4.98-5.26s1.98-5.24,4.76-5.24c2.24,0,4.28,1.68,4.28,4.66,0,.38-.04.48-.24.5l-7.38.64Zm6.14-1.36c.08,0,.1-.04.1-.2,0-1.7-.86-3.66-3.14-3.66-1.84,0-3.14,1.48-3.14,4.16v.4l6.18-.7Z"/>
          <path class="cls-3" d="m87.68,15.08c-.14,0-.16-.02-.16-.1v-.04c0-.1.02-.14.14-.16,1.12-.08,1.18-.62,1.18-1.24v-7.18c0-.6-.24-.66-1.14-.66-.14,0-.18-.08-.18-.16s.04-.16.12-.18c.82-.16,1.82-.42,2.38-.58h.06c.1,0,.1.08.1.2v1.54c.8-1,1.88-1.76,3.32-1.76,1.16,0,2,.74,2,1.58,0,.68-.24.94-.64.94-1.66,0-.18-1.78-1.96-1.78-1.28,0-2.72,1.42-2.72,2.42v5.62c0,.62.08,1.16,1.18,1.24.08,0,.14.06.14.16s-.06.14-.16.14h-3.66Z"/>
        </g>
        <g>
          <line class="cls-1" x1="113.32" y1="9.03" x2="113.32" y2="9.03"/>
          <line class="cls-2" x1="118.77" y1="9.03" x2="230.59" y2="9.03"/>
          <line class="cls-1" x1="233.32" y1="9.03" x2="233.32" y2="9.03"/>
        </g>
      </g>
    </g>
  </g>
</svg>