<?xml version="1.0" encoding="UTF-8"?>
<svg xmlns="http://www.w3.org/2000/svg" viewBox="0 0 445.33 445.33">
  <defs>
    <style>
      .cls-1, .cls-2 {
        fill: none;
        stroke: #a6a6b5;
        stroke-dasharray: 0 0 0 70.33;
        stroke-linecap: round;
        stroke-linejoin: round;
        stroke-width: 20px;
      }

      .cls-2 {
        mix-blend-mode: overlay;
      }

      .cls-3 {
        isolation: isolate;
      }

      .cls-4 {
        font-family: PTSans-Regular, 'PT Sans';
        font-size: 20px;
        letter-spacing: .04em;
      }

      .cls-4, .cls-5 {
        fill: #666;
      }

      .cls-6 {
        fill: #808095;
      }

      .cls-6, .cls-7, .cls-5 {
        stroke-width: 0px;
      }

      .cls-7 {
        fill: #acbba0;
      }
    </style>
  </defs>
  <g class="cls-3">
    <g id="_レイヤー_2" data-name="レイヤー 2">
      <g id="_ローディング" data-name="ローディング">
        <g>
          <text class="cls-4" transform="translate(90.25 275.47) scale(1.05 1)"><tspan x="0" y="0">only style remain the same</tspan></text>
          <g>
            <circle class="cls-2" cx="222.66" cy="222.66" r="212.66"/>
            <circle class="cls-1" cx="222.66" cy="222.66" r="212.66"/>
          </g>
          <g>
            <path class="cls-7" d="m136.75,204c-1.14,1.33-5.14,2.09-5.14,2.09,0,0-.02-4.14,1.53-5.2,1.45-.99,5.24-2.04,5.24-2.04,0,0-.49,3.81-1.63,5.14Z"/>
            <path class="cls-7" d="m216.18,213.49c-1.34,1.13-5.41,1.25-5.41,1.25,0,0,.64-4.09,2.34-4.89,1.58-.74,5.5-1.18,5.5-1.18,0,0-1.09,3.68-2.42,4.81Z"/>
            <path class="cls-7" d="m335.17,213.51c1.25,1.23,1.74,5.27,1.74,5.27,0,0-4.13-.27-5.08-1.88-.89-1.51-1.68-5.37-1.68-5.37,0,0,3.77.75,5.02,1.97Z"/>
            <path class="cls-5" d="m108.55,198.13c-2.14,0-4.47,1.75-6.99,5.25-2.53,3.5-5.57,9.21-9.14,17.13-1.22,2.73-2.01,4.58-2.34,5.55l4.53-21.64c.49-2.32.74-4.09.74-5.31s-.33-2.18-.98-2.95c-.65-.77-1.47-1.15-2.46-1.15-1.56,0-3.3,1.1-5.21,3.3-1.91,2.2-3.99,5.45-6.23,9.75-3.57,6.93-6.29,12.94-8.16,18.05l-.23.74,1.56-8.52c.7-3.93,1.12-6.38,1.25-7.34.47-3.28.7-6.21.7-8.79,0-3.07-.48-5.49-1.43-7.27-.95-1.77-2.26-2.66-3.93-2.66-1.46,0-2.9.79-4.32,2.36-1.42,1.58-2.64,3.72-3.67,6.43-1.03,2.71-1.76,5.74-2.21,9.1l2.93,1.91c.52-3.83,1.26-7.4,2.23-10.7,1.54-5.26,3.29-7.89,5.27-7.89.81,0,1.44.41,1.89,1.23.46.82.68,1.99.68,3.5,0,2.06-.4,5.4-1.21,10.04-.96,5.91-2.47,13.53-4.53,22.85-.44,1.98-.96,4.25-1.56,6.8l-1.68,6.68-.12.55h3.28c.68-2.81,1.77-6.46,3.28-10.94,1.04-3.07,1.98-5.68,2.81-7.81.83-2.13,1.78-4.44,2.85-6.91,1.07-2.47,2.17-4.84,3.32-7.11,2.42-5.03,4.52-8.73,6.29-11.11,1.77-2.38,3.27-3.57,4.49-3.57.29,0,.54.08.76.23.22.16.4.39.53.7.13.31.2.64.2.98,0,.76-.14,1.8-.43,3.12l-9.06,42.42h3.24c.88-4.11,2.02-8.27,3.42-12.48,1.39-4.21,3.08-8.54,5.06-12.99,2.53-5.65,4.86-10.06,6.99-13.24,1.38-2.08,2.53-3.57,3.44-4.45.91-.88,1.73-1.33,2.46-1.33.47,0,.83.16,1.09.49.26.33.39.74.39,1.23,0,.37-.09,1.03-.27,1.99l-.27,1.37-8.24,39.41h3.75l8.09-38.44c.44-2,.66-3.5.66-4.49,0-1.22-.32-2.21-.96-2.95-.64-.74-1.49-1.11-2.56-1.11Z"/>
            <path class="cls-5" d="m121.41,243.02c-.47,0-.85-.26-1.13-.78-.29-.52-.43-1.2-.43-2.03,0-1.28.29-2.97.86-5.08l3.44-12.85-3.83,1.6-2.46,13.67c-.31,1.69-.47,2.93-.47,3.71,0,1.22.28,2.25.84,3.07.56.82,1.24,1.23,2.05,1.23.6,0,1.25-.31,1.95-.92s1.8-1.79,3.28-3.54l.39-.43-.62-.55c-1.77,1.93-3.06,2.89-3.87,2.89Z"/>
            <path class="cls-5" d="m151.16,243.02c-.47,0-.85-.25-1.13-.76-.29-.51-.43-1.18-.43-2.01s.2-2.03.59-3.59l.39-1.52,1.17-4.77.39-1.64c.29-1.09.43-1.94.43-2.54,0-1.07-.3-1.92-.9-2.56-.6-.64-1.38-.96-2.34-.96-1.95,0-4,1.19-6.13,3.55-2.14,2.37-4.28,5.83-6.45,10.39l3.36-14.34-3.71,1.6-4.14,21.64,2.62-.82.35-1.05c1.04-3.2,1.98-5.71,2.81-7.52.83-1.81,1.89-3.64,3.16-5.49,2.63-3.85,4.84-5.78,6.64-5.78.49,0,.88.14,1.17.43.29.29.43.7.43,1.25s-.1,1.43-.31,2.73l-1.52,8.28c-.31,1.64-.47,2.88-.47,3.71,0,1.22.28,2.25.84,3.07.56.82,1.24,1.23,2.05,1.23.6,0,1.25-.31,1.95-.92s1.8-1.79,3.28-3.54l.39-.43-.62-.55c-1.77,1.93-3.06,2.89-3.87,2.89Z"/>
            <path class="cls-5" d="m174.73,222.74c-2.08,0-4.13.73-6.13,2.19-2.01,1.46-3.64,3.35-4.9,5.68-1.26,2.33-1.89,4.67-1.89,7.01s.68,4.42,2.03,5.92c1.35,1.5,3.14,2.25,5.35,2.25,2.06,0,4.09-.75,6.11-2.25,2.02-1.5,3.65-3.42,4.88-5.76,1.24-2.34,1.86-4.77,1.86-7.27,0-2.29-.67-4.16-2.01-5.61-1.34-1.45-3.11-2.17-5.29-2.17Zm3.01,11.91c-.52,2.01-1.22,3.82-2.11,5.43-1.72,3.15-3.71,4.73-5.98,4.73-1.41,0-2.49-.52-3.24-1.56-.76-1.04-1.13-2.53-1.13-4.45,0-1.61.31-3.46.92-5.55.61-2.08,1.39-3.91,2.32-5.47.83-1.35,1.75-2.38,2.75-3.09,1-.7,2.05-1.05,3.14-1.05,1.2,0,2.18.51,2.95,1.52.77,1.02,1.15,2.3,1.15,3.87,0,1.75-.26,3.62-.78,5.62Z"/>
            <path class="cls-5" d="m198.06,243.56c-.44,0-.82-.2-1.13-.61-.31-.4-.47-.9-.47-1.5,0-1.64.61-4.12,1.82-7.44s2.75-6.7,4.63-10.14l.27-.55h-1.88c-1.04.94-2.37,1.41-3.98,1.41-.57,0-1.21-.09-1.91-.27.29-.99.43-1.89.43-2.7,0-1.15-.25-2.08-.74-2.79-.5-.72-1.13-1.07-1.91-1.07s-1.38.33-1.88.98c-.5.65-.74,1.5-.74,2.54,0,2.19,1.05,3.87,3.16,5.04-.76,2.34-2.25,4.87-4.49,7.58l.7.62c2.29-2.71,3.85-5.34,4.69-7.89.52.13,1.02.2,1.48.2,1.02,0,1.92-.16,2.71-.49.79-.33,1.62-.88,2.48-1.66l-.39.55c-1.3,1.98-2.38,3.69-3.24,5.12-.86,1.43-1.56,2.71-2.11,3.83-1.51,3-2.27,5.47-2.27,7.42,0,1.17.29,2.1.88,2.77s1.39,1.02,2.4,1.02c1.2,0,2.49-.55,3.87-1.64,1.54-1.2,2.67-2.2,3.4-3.01l-.62-.7c-2.37,2.27-4.09,3.4-5.16,3.4Zm-3.48-19.45c-1.62-.96-2.42-2.06-2.42-3.28,0-.36.1-.67.29-.92.2-.25.42-.37.68-.37.47,0,.85.26,1.15.78.3.52.45,1.24.45,2.15,0,.44-.05.99-.16,1.64Z"/>
            <path class="cls-5" d="m215.62,243.02c-.47,0-.85-.26-1.13-.78-.29-.52-.43-1.2-.43-2.03,0-1.28.29-2.97.86-5.08l3.44-12.85-3.83,1.6-2.46,13.67c-.31,1.69-.47,2.93-.47,3.71,0,1.22.28,2.25.84,3.07.56.82,1.24,1.23,2.05,1.23.6,0,1.25-.31,1.95-.92s1.8-1.79,3.28-3.54l.39-.43-.62-.55c-1.77,1.93-3.06,2.89-3.87,2.89Z"/>
            <path class="cls-6" d="m222.03,202.48c-1.85,0-3.41.63-4.67,1.89s-1.89,2.78-1.89,4.56.67,3.22,2,4.56,2.85,2,4.56,2,3.29-.63,4.56-1.89,1.89-2.81,1.89-4.67-.59-3.48-1.78-4.67c-1.19-1.18-2.74-1.78-4.67-1.78Z"/>
            <path class="cls-5" d="m272.29,190.09l-4.22,1.99-6.37,31.91c-1.33-.91-2.76-1.37-4.3-1.37-2.08,0-4.17.86-6.27,2.58-2.1,1.72-3.82,3.9-5.18,6.54-1.35,2.64-2.03,5.25-2.03,7.83,0,1.85.43,3.31,1.29,4.39.86,1.08,2.03,1.62,3.52,1.62,2.47,0,5.03-1.69,7.66-5.08,1.46-1.93,2.53-3.71,3.2-5.35l-.43,2.23c-.37,1.8-.55,3.03-.55,3.71,0,1.15.29,2.16.86,3.05.57.89,1.29,1.33,2.15,1.33.36,0,.7-.08,1-.25.3-.17.77-.58,1.43-1.23l1.29-1.29s.53-.59,1.52-1.68l.31-.35-.59-.55c-.05.03-.09.05-.12.08l-.08.08-1.13,1.13c-.96,1.02-1.78,1.52-2.46,1.52-.52,0-.93-.26-1.23-.78-.3-.52-.45-1.2-.45-2.03,0-.94.27-2.6.82-5l10.35-45.04Zm-11.33,37.85c-.26,1.2-.69,2.79-1.29,4.77-.5,1.54-1.17,3.02-2.03,4.45-1.28,2.11-2.55,3.72-3.81,4.84-1.26,1.12-2.44,1.68-3.54,1.68-.94,0-1.67-.38-2.21-1.13-.53-.75-.8-1.76-.8-3.01,0-1.43.27-3.03.8-4.79.53-1.76,1.22-3.38,2.05-4.86,1.15-2,2.36-3.55,3.65-4.65s2.54-1.64,3.77-1.64c.83,0,1.61.21,2.34.64.73.43,1.21,1,1.45,1.7l-.39,1.99Z"/>
            <path class="cls-5" d="m285.66,242.68c-1.15.77-2.33,1.15-3.55,1.15-1.56,0-2.84-.57-3.83-1.7-.99-1.13-1.48-2.6-1.48-4.39,0-.26.01-.49.04-.7,3.78-1.41,6.76-3.11,8.95-5.12,2.19-2,3.28-4.01,3.28-6.02,0-.99-.35-1.8-1.04-2.42-.69-.62-1.57-.94-2.64-.94-1.82,0-3.67.79-5.53,2.36-1.86,1.58-3.41,3.57-4.65,5.98-1.24,2.41-1.86,4.79-1.86,7.13s.64,4.18,1.91,5.59,2.97,2.11,5.08,2.11c1.77,0,3.42-.48,4.96-1.43,1.54-.95,3.11-2.49,4.73-4.63l-.7-.59c-1.3,1.64-2.53,2.85-3.67,3.61Zm-5.76-15.2c1.73-2.67,3.44-4,5.14-4,1.12,0,1.68.61,1.68,1.84,0,.96-.31,2.04-.94,3.24-.62,1.2-1.45,2.32-2.46,3.36-1.51,1.54-3.67,2.93-6.48,4.18.31-3.07,1.33-5.94,3.07-8.61Z"/>
            <path class="cls-5" d="m309.92,223.5c-.79-.59-1.78-.88-2.95-.88-1.33,0-2.59.32-3.79.96-1.2.64-2.16,1.48-2.87,2.52-.72,1.04-1.07,2.17-1.07,3.4,0,.94.27,1.76.8,2.48.53.72,1.57,1.7,3.11,2.95,1.67,1.35,2.72,2.32,3.16,2.89.44.57.66,1.26.66,2.07,0,1.12-.46,2.1-1.39,2.95-.92.85-2.04,1.27-3.34,1.27-2.5,0-4.32-1.35-5.47-4.06l-2.19,2.58c1.59,2.14,3.54,3.2,5.86,3.2,1.46,0,2.84-.35,4.16-1.05,1.31-.7,2.36-1.65,3.12-2.83.77-1.18,1.15-2.45,1.15-3.81,0-1.82-1.11-3.61-3.32-5.35l-2.27-1.84c-1.35-1.07-2.03-2.15-2.03-3.24,0-.88.4-1.67,1.19-2.36.79-.69,1.72-1.04,2.79-1.04,1.2,0,2.18.35,2.95,1.04.77.69,1.23,1.65,1.39,2.87,1.02-.44,1.52-1.26,1.52-2.46,0-.91-.4-1.66-1.19-2.25Z"/>
            <path class="cls-5" d="m322.84,243.02c-.47,0-.85-.26-1.13-.78-.29-.52-.43-1.2-.43-2.03,0-1.28.29-2.97.86-5.08l3.44-12.85-3.83,1.6-2.46,13.67c-.31,1.69-.47,2.93-.47,3.71,0,1.22.28,2.25.84,3.07.56.82,1.24,1.23,2.05,1.23.6,0,1.25-.31,1.95-.92s1.8-1.79,3.28-3.54l.39-.43-.62-.55c-1.77,1.93-3.06,2.89-3.87,2.89Z"/>
            <path class="cls-6" d="m328.33,203.79c-1.85,0-3.41.63-4.67,1.89s-1.89,2.78-1.89,4.56.67,3.22,2,4.56c1.33,1.33,2.85,2,4.56,2s3.29-.63,4.56-1.89c1.26-1.26,1.89-2.81,1.89-4.67s-.59-3.48-1.78-4.67c-1.19-1.18-2.74-1.78-4.67-1.78Z"/>
            <path class="cls-5" d="m351.18,224.93c-1.22-1.38-2.76-2.07-4.61-2.07-1.98,0-4.02.88-6.11,2.64-2.1,1.76-3.83,3.96-5.21,6.62s-2.07,5.21-2.07,7.66c0,1.72.45,3.13,1.35,4.24.9,1.11,2.08,1.66,3.54,1.66,3.59,0,7.13-3.25,10.62-9.77l-3.01,12.89c-.73,3.15-1.43,5.33-2.11,6.52-.52.99-1.33,1.82-2.42,2.5-1.09.68-2.17,1.02-3.24,1.02-1.67,0-3.35-.81-5.04-2.42l-1.99,2.58c1.41,1.04,3.03,1.56,4.88,1.56,2.03,0,3.93-.5,5.68-1.5,1.76-1,3.25-2.44,4.47-4.32.65-.99,1.2-2.08,1.66-3.28.46-1.2.98-3.07,1.58-5.62l5.98-23.79-3.59,1.52-.35,1.37Zm-.86,3.71c-.78,3.26-1.89,6.07-3.32,8.44-1.25,2.08-2.51,3.7-3.77,4.84-1.26,1.15-2.42,1.72-3.46,1.72s-1.8-.37-2.36-1.11c-.56-.74-.84-1.76-.84-3.07,0-1.93.49-4.11,1.46-6.54.98-2.43,2.15-4.46,3.54-6.07,1.69-1.93,3.41-2.89,5.16-2.89s3.01.98,4.02,2.93l-.43,1.76Z"/>
            <path class="cls-5" d="m384.67,240.12c-1.77,1.93-3.06,2.89-3.87,2.89-.47,0-.85-.25-1.13-.76-.29-.51-.43-1.18-.43-2.01s.2-2.03.59-3.59l.39-1.52,1.17-4.77.39-1.64c.29-1.09.43-1.94.43-2.54,0-1.07-.3-1.92-.9-2.56-.6-.64-1.38-.96-2.34-.96-1.95,0-4,1.19-6.13,3.55-2.14,2.37-4.28,5.83-6.45,10.39l3.36-14.34-3.71,1.6-4.14,21.64,2.62-.82.35-1.05c1.04-3.2,1.98-5.71,2.81-7.52.83-1.81,1.89-3.64,3.16-5.49,2.63-3.85,4.84-5.78,6.64-5.78.49,0,.88.14,1.17.43.29.29.43.7.43,1.25s-.1,1.43-.31,2.73l-1.52,8.28c-.31,1.64-.47,2.88-.47,3.71,0,1.22.28,2.25.84,3.07.56.82,1.24,1.23,2.05,1.23.6,0,1.25-.31,1.95-.92s1.8-1.79,3.28-3.54l.39-.43-.62-.55Z"/>
            <path class="cls-6" d="m128.55,200.49c-1.85,0-3.41.63-4.67,1.89-1.26,1.26-1.89,2.78-1.89,4.56s.67,3.22,2,4.56c1.33,1.33,2.85,2,4.56,2s3.29-.63,4.56-1.89c1.26-1.26,1.89-2.81,1.89-4.67s-.59-3.48-1.78-4.67c-1.19-1.18-2.74-1.78-4.67-1.78Z"/>
          </g>
        </g>
      </g>
    </g>
  </g>
</svg>