<?xml version="1.0" encoding="UTF-8"?>
<svg id="_レイヤー_2" data-name="レイヤー 2" xmlns="http://www.w3.org/2000/svg" viewBox="0 0 232.81 15.34">
  <defs>
    <style>
      .cls-1 {
        stroke-dasharray: 0 0 0 6.25;
      }

      .cls-1, .cls-2 {
        fill: none;
        stroke: #666;
        stroke-linecap: round;
        stroke-miterlimit: 10;
        stroke-width: 2.08px;
      }

      .cls-3 {
        fill: #666;
        stroke-width: 0px;
      }
    </style>
  </defs>
  <g id="profile">
    <g id="Strengh_etc" data-name="Strengh etc">
      <g>
        <g>
          <path class="cls-3" d="m.38,10.26c1.38,3.34,2.94,4.36,5.18,4.36,2.74,0,4-1.02,4-2.68,0-2.08-.98-2.94-4.88-4.38C1.5,6.4.24,5.22.24,3.56.24,1.56,1.96.02,5.32.02c1.34,0,2.92.54,3.28.54.3,0,.74-.1.92-.16.08-.02.14-.04.18-.04.08,0,.12.04.14.16.14,1.46.32,2.88.5,3.86,0,0,.02.02.02.04s-.04.06-.1.08c-.06,0-.1,0-.14-.02s-.08-.06-.1-.1c-.88-2.48-2.74-3.7-4.66-3.7C2.8.68,1.62,1.54,1.62,2.82c0,1.68.92,2.48,4.32,3.64,3.54,1.2,5.1,2.7,5.1,4.88,0,2.44-1.76,4-5.56,4-1.4,0-3.22-.38-4.58-1.02-.1-.06-.28-.14-.3-.3-.06-.78-.32-2.58-.58-3.64,0-.02-.02-.04-.02-.06,0-.08.06-.12.16-.16.1,0,.18,0,.22.1Z"/>
          <path class="cls-3" d="m20.98,15.1c-.3,0-.4-.04-.52-.2l-4.24-5.34-.64.46v3.54c0,.62.18,1.18,1.26,1.24.08,0,.14.06.14.16s-.06.14-.16.14h-3.66c-.14,0-.16-.02-.16-.1v-.04c0-.1.02-.14.14-.16,1.12-.08,1.18-.62,1.18-1.24V1.58c0-.52-.08-.58-1.14-.58-.14,0-.2-.08-.2-.16,0-.06.06-.14.14-.16.72-.12,1.8-.42,2.38-.66.02-.02.06-.02.08-.02.08,0,.08.1.08.22v9l3.5-2.64c.26-.2.42-.46.42-.68,0-.26-.2-.5-.76-.64-.1-.02-.14-.08-.14-.18s.04-.12.16-.12h3.62c.1,0,.12,0,.12.12,0,.1-.02.14-.08.16-1.04.26-1.62.66-2.74,1.54l-2.6,2.06,4.2,5c.5.6,1.02.8,1.9.94.08.02.14.08.14.16s-.04.16-.16.16h-2.26Z"/>
          <path class="cls-3" d="m24.34,15.1c-.1,0-.16-.04-.16-.14s.06-.16.14-.16c1.12-.12,1.22-.62,1.22-1.24v-7.22c0-.56,0-.58-.94-.58h-.2c-.14,0-.22-.08-.22-.16s.06-.14.16-.16c.92-.16,1.82-.42,2.44-.66h.04c.06,0,.12.08.12.2v8.58c0,.62.02,1.16,1.14,1.24.08,0,.14.06.14.16s-.06.14-.16.14h-3.72Zm.66-13.94c0-.58.52-1.14,1.1-1.14s1.1.56,1.1,1.14-.5,1.16-1.1,1.16-1.1-.58-1.1-1.16Z"/>
          <path class="cls-3" d="m30.06,15.1c-.14,0-.16-.04-.16-.14s.02-.14.14-.16c1.12-.1,1.14-.62,1.14-1.24V1.58c0-.52,0-.58-1.14-.58-.14,0-.22-.08-.22-.16,0-.06.06-.14.16-.16.66-.1,1.9-.42,2.52-.66h.04s.04.08.04.2v13.34c0,.62.1,1.14,1.22,1.24.08,0,.14.06.14.16s-.06.14-.16.14h-3.72Z"/>
          <path class="cls-3" d="m35.76,15.1c-.14,0-.16-.04-.16-.14s.02-.14.14-.16c1.12-.1,1.14-.62,1.14-1.24V1.58c0-.52,0-.58-1.14-.58-.14,0-.22-.08-.22-.16,0-.06.06-.14.16-.16.66-.1,1.9-.42,2.52-.66h.04s.04.08.04.2v13.34c0,.62.1,1.14,1.22,1.24.08,0,.14.06.14.16s-.06.14-.16.14h-3.72Z"/>
          <path class="cls-3" d="m41.34,11.6s.06-.06.12-.08c.04,0,.08-.02.1-.02.04,0,.06.02.08.06.82,2.16,1.94,3.12,3.54,3.12,1.76,0,2.8-.66,2.8-1.64,0-1.5-.66-2.16-4.1-3.14-1.6-.46-2.42-1.38-2.42-2.6,0-1.36,1.28-2.52,3.38-2.52.98,0,1.66.04,2.62.28.12.02.26.04.38.04.24,0,.46-.04.58-.12.04-.02.1-.04.14-.04s.08.02.1.08c.08.78.16,1.68.38,2.62,0,.06-.12.12-.2.12s-.14-.04-.16-.1c-1.02-2.06-2.26-2.34-3.58-2.34-1.52,0-2.28.68-2.28,1.76,0,1,.74,1.4,3.08,2.08,2.14.62,3.62,1.58,3.62,3.3,0,1.62-1.08,2.82-4.26,2.82-1.2,0-2.46-.36-3.34-.84-.08-.04-.18-.1-.2-.14-.12-.72-.22-1.6-.38-2.7Z"/>
        </g>
        <g>
          <line class="cls-2" x1="81.77" y1="9.05" x2="81.77" y2="9.05"/>
          <line class="cls-1" x1="88.02" y1="9.05" x2="228.65" y2="9.05"/>
          <line class="cls-2" x1="231.77" y1="9.05" x2="231.77" y2="9.05"/>
        </g>
      </g>
    </g>
  </g>
</svg>