<?xml version="1.0" encoding="UTF-8"?>
<svg id="_レイヤー_2" data-name="レイヤー 2" xmlns="http://www.w3.org/2000/svg" viewBox="0 0 43.08 43.08">
  <defs>
    <style>
      .cls-1 {
        fill: #666;
      }

      .cls-2 {
        opacity: .4;
      }
    </style>
  </defs>
  <g id="_ヘッダー" data-name="ヘッダー">
    <g class="cls-2">
      <path class="cls-1" d="m12.62.15c-2.29.11-3.86.48-5.22,1.01-1.42.55-2.62,1.29-3.81,2.49-1.2,1.2-1.93,2.4-2.48,3.82-.53,1.37-.89,2.94-.99,5.23C.01,15,0,15.73,0,21.58c.01,5.85.04,6.58.15,8.88.11,2.29.48,3.86,1.01,5.22.55,1.42,1.29,2.62,2.49,3.81,1.2,1.19,2.4,1.93,3.82,2.48,1.37.53,2.94.89,5.23.99,2.3.1,3.03.12,8.88.11,5.85-.01,6.58-.04,8.88-.15,2.29-.11,3.86-.48,5.22-1.01,1.42-.55,2.62-1.29,3.81-2.49,1.19-1.2,1.93-2.4,2.48-3.82.53-1.37.89-2.94.99-5.23.1-2.3.12-3.03.11-8.88-.01-5.85-.04-6.58-.15-8.88-.11-2.29-.48-3.86-1.01-5.23-.55-1.42-1.29-2.61-2.49-3.81-1.2-1.19-2.4-1.93-3.82-2.48-1.37-.53-2.94-.89-5.23-.99C28.08.01,27.35,0,21.5,0c-5.85.01-6.58.04-8.88.15m.25,38.94c-2.1-.09-3.24-.44-4-.73-1.01-.39-1.72-.86-2.48-1.61-.75-.75-1.22-1.47-1.62-2.47-.3-.76-.65-1.9-.75-4-.11-2.27-.13-2.95-.14-8.7-.01-5.75,0-6.43.11-8.7.09-2.1.44-3.24.73-4,.39-1.01.85-1.72,1.61-2.48.75-.76,1.47-1.22,2.47-1.62.76-.3,1.9-.65,4-.75,2.27-.11,2.95-.13,8.7-.14,5.75-.01,6.43,0,8.7.11,2.1.09,3.24.44,4,.73,1.01.39,1.73.85,2.48,1.61.76.75,1.22,1.47,1.62,2.47.3.76.65,1.9.75,4,.11,2.27.13,2.95.14,8.7.01,5.75,0,6.43-.11,8.7-.09,2.1-.44,3.24-.73,4-.39,1.01-.85,1.72-1.61,2.48-.75.75-1.47,1.22-2.47,1.62-.76.3-1.9.65-4,.75-2.27.11-2.95.13-8.7.14-5.75.01-6.43-.01-8.7-.11M30.43,10.02c0,1.43,1.16,2.58,2.59,2.58,1.43,0,2.58-1.16,2.58-2.59,0-1.43-1.16-2.58-2.59-2.58-1.43,0-2.58,1.16-2.58,2.59m-19.95,11.53c.01,6.11,4.97,11.05,11.08,11.04,6.11-.01,11.05-4.97,11.04-11.08-.01-6.11-4.97-11.05-11.08-11.04-6.11.01-11.05,4.97-11.04,11.08m3.88,0c0-3.96,3.2-7.18,7.17-7.19,3.96,0,7.19,3.2,7.19,7.16,0,3.97-3.2,7.18-7.17,7.19-3.96,0-7.18-3.2-7.19-7.17"/>
    </g>
  </g>
</svg>