<?xml version="1.0" encoding="UTF-8"?>
<svg id="_レイヤー_2" data-name="レイヤー 2" xmlns="http://www.w3.org/2000/svg" viewBox="0 0 325.27 89.49">
  <defs>
    <style>
      .cls-1 {
        fill: #808095;
      }

      .cls-1, .cls-2, .cls-3 {
        stroke-width: 0px;
      }

      .cls-2 {
        fill: #acbba0;
      }

      .cls-3 {
        fill: #666;
      }
    </style>
  </defs>
  <g id="_ローディング" data-name="ローディング">
    <g>
      <g>
        <path class="cls-3" d="m31.25,80.39c0-1.69.4-2.99,1.19-3.89.79-.9,1.93-1.35,3.42-1.35.79,0,1.47.12,2.05.37.58.25,1.06.6,1.44,1.06s.66,1.01.84,1.66c.18.65.27,1.36.27,2.15,0,1.69-.4,2.99-1.19,3.89-.79.9-1.93,1.35-3.42,1.35-.79,0-1.47-.12-2.05-.37-.58-.25-1.06-.6-1.44-1.06-.38-.46-.66-1.01-.84-1.66-.18-.65-.27-1.36-.27-2.15Zm1.75,0c0,.51.05.99.16,1.46.1.47.27.87.49,1.22s.52.63.88.84.81.32,1.33.32c1.91.01,2.86-1.27,2.86-3.84,0-.52-.05-1.01-.16-1.48-.11-.47-.27-.87-.5-1.22-.22-.35-.52-.62-.88-.83-.37-.21-.81-.31-1.33-.31-1.91-.01-2.86,1.27-2.86,3.84Z"/>
        <path class="cls-3" d="m50.73,85.39v-5.7c0-1.04-.16-1.82-.47-2.35s-.9-.79-1.74-.79c-.74,0-1.36.19-1.84.57s-.82.86-1.02,1.43v6.84h-1.68v-10h1.18l.32,1.22h.08c.34-.43.79-.78,1.36-1.05.57-.27,1.25-.41,2.03-.41.58,0,1.08.06,1.52.19.43.13.8.35,1.08.67.29.32.51.75.65,1.29.15.54.22,1.22.22,2.05v6.04h-1.68Z"/>
        <path class="cls-3" d="m58.2,82.93c0,.47.08.8.25,1s.41.3.72.3c.18,0,.38-.01.59-.04.21-.03.45-.09.72-.18l.19,1.26c-.22.11-.54.19-.94.26-.4.07-.75.1-1.04.1-.63,0-1.15-.17-1.56-.51s-.61-.92-.61-1.73v-12h1.68v11.54Z"/>
        <path class="cls-3" d="m66.43,81.87l.59,1.92h.11l.46-1.94,2.05-6.46h1.68l-3.12,8.98c-.24.65-.47,1.29-.71,1.9-.23.61-.49,1.16-.77,1.64-.28.48-.6.86-.95,1.15-.35.29-.76.43-1.22.43-.51,0-.92-.07-1.24-.2l.29-1.38c.18.07.36.1.53.1.39,0,.77-.2,1.14-.59.36-.39.67-1.07.91-2.03l-4.23-10h1.94l2.54,6.48Z"/>
        <path class="cls-3" d="m85.07,82.66c0-.4-.13-.71-.38-.94-.25-.23-.57-.42-.94-.57-.37-.15-.78-.3-1.22-.44-.44-.14-.85-.32-1.22-.54-.37-.22-.68-.5-.94-.85-.25-.35-.38-.81-.38-1.4,0-.96.29-1.66.86-2.11s1.38-.67,2.4-.67c.76,0,1.39.06,1.91.19.51.13.96.28,1.34.45l-.4,1.32c-.32-.15-.71-.28-1.17-.39s-.94-.17-1.46-.17c-.62,0-1.07.1-1.36.3-.29.2-.43.55-.43,1.04,0,.35.13.62.38.81.25.19.56.37.94.52s.78.3,1.22.45c.44.15.85.34,1.22.58.37.24.68.54.94.91.25.37.38.85.38,1.45,0,.43-.07.83-.22,1.2-.15.37-.38.69-.68.96-.31.27-.69.48-1.15.63-.46.15-.99.23-1.61.23-.8,0-1.48-.07-2.04-.22s-1.03-.32-1.41-.52l.51-1.36c.32.17.74.33,1.26.48.52.15,1.05.22,1.58.22.6,0,1.1-.11,1.49-.34.39-.23.59-.63.59-1.22Z"/>
        <path class="cls-3" d="m88.76,75.39h1.64v-1.98l1.68-.46v2.44h2.86v1.4h-2.86v5.54c0,.69.09,1.18.27,1.47.18.29.49.43.93.43.36,0,.67-.04.93-.11.25-.07.53-.17.84-.29l.38,1.22c-.38.17-.79.31-1.24.42s-.93.16-1.45.16c-.86,0-1.46-.23-1.81-.69-.35-.46-.53-1.23-.53-2.31v-5.84h-1.64v-1.4Z"/>
        <path class="cls-3" d="m101.23,81.87l.59,1.92h.11l.46-1.94,2.05-6.46h1.68l-3.12,8.98c-.24.65-.47,1.29-.71,1.9-.23.61-.49,1.16-.77,1.64-.28.48-.6.86-.95,1.15-.35.29-.76.43-1.22.43-.51,0-.92-.07-1.24-.2l.29-1.38c.18.07.36.1.53.1.39,0,.77-.2,1.14-.59.36-.39.67-1.07.91-2.03l-4.23-10h1.94l2.54,6.48Z"/>
        <path class="cls-3" d="m110.66,82.93c0,.47.08.8.25,1s.41.3.72.3c.18,0,.38-.01.59-.04.21-.03.45-.09.72-.18l.19,1.26c-.22.11-.54.19-.94.26-.4.07-.75.1-1.04.1-.63,0-1.15-.17-1.56-.51s-.61-.92-.61-1.73v-12h1.68v11.54Z"/>
        <path class="cls-3" d="m123.46,84.59c-.42.32-.95.57-1.59.76-.64.19-1.32.28-2.03.28-.8,0-1.49-.12-2.08-.37-.59-.25-1.07-.6-1.45-1.06-.38-.46-.66-1.01-.84-1.65-.18-.64-.27-1.36-.27-2.16,0-1.71.4-3.01,1.2-3.9.8-.89,1.94-1.34,3.43-1.34.48,0,.95.05,1.43.15.48.1.91.29,1.28.57.38.28.69.68.93,1.19.24.51.36,1.19.36,2.03,0,.44-.04.93-.13,1.46h-6.76c0,.59.06,1.11.19,1.56.13.45.32.84.59,1.15.27.31.61.55,1.04.72.43.17.95.25,1.57.25.48,0,.95-.08,1.43-.24.48-.16.83-.35,1.07-.56l.63,1.16Zm-3.62-8.04c-.83,0-1.49.21-1.99.62-.5.41-.8,1.12-.9,2.12h5.22c0-1.01-.2-1.72-.61-2.13-.41-.41-.98-.61-1.73-.61Z"/>
        <path class="cls-3" d="m138.74,76.93c-.42-.13-.82-.2-1.2-.2-.6,0-1.08.16-1.43.47-.35.31-.57.71-.65,1.19v7h-1.68v-10h1.18l.32,1.22h.08c.27-.45.59-.8.96-1.05.37-.25.85-.37,1.42-.37.41,0,.86.07,1.37.2l-.36,1.54Z"/>
        <path class="cls-3" d="m149.46,84.59c-.42.32-.95.57-1.59.76-.64.19-1.32.28-2.03.28-.8,0-1.49-.12-2.08-.37-.59-.25-1.07-.6-1.45-1.06-.38-.46-.66-1.01-.84-1.65-.18-.64-.27-1.36-.27-2.16,0-1.71.4-3.01,1.2-3.9.8-.89,1.94-1.34,3.43-1.34.48,0,.95.05,1.43.15.48.1.91.29,1.28.57.38.28.69.68.93,1.19.24.51.36,1.19.36,2.03,0,.44-.04.93-.13,1.46h-6.76c0,.59.06,1.11.19,1.56.13.45.32.84.59,1.15.27.31.61.55,1.04.72.43.17.95.25,1.57.25.48,0,.95-.08,1.43-.24.48-.16.83-.35,1.07-.56l.63,1.16Zm-3.62-8.04c-.83,0-1.49.21-1.99.62-.5.41-.8,1.12-.9,2.12h5.22c0-1.01-.2-1.72-.61-2.13-.41-.41-.98-.61-1.73-.61Z"/>
        <path class="cls-3" d="m159.48,85.39v-5.66c0-.53-.02-1-.07-1.39-.05-.39-.14-.72-.28-.99-.14-.27-.34-.47-.6-.6-.26-.13-.6-.2-1.02-.2-.65,0-1.18.19-1.61.56-.43.37-.73.84-.9,1.4v6.88h-1.68v-10h1.18l.32,1.22h.08c.38-.43.82-.78,1.32-1.05.5-.27,1.15-.41,1.95-.41.67,0,1.22.12,1.65.37.43.25.76.68,1,1.29.32-.52.77-.93,1.34-1.22s1.21-.44,1.93-.44c.59,0,1.09.06,1.5.19.41.13.74.35,1.01.67.27.32.46.75.58,1.3.12.55.18,1.24.18,2.08v6h-1.68v-6.02c0-.48-.02-.9-.07-1.25-.05-.35-.15-.65-.29-.88-.15-.23-.35-.41-.61-.52s-.6-.17-1.02-.17c-.7,0-1.25.19-1.64.56-.39.37-.67.91-.84,1.6v6.68h-1.68Z"/>
        <path class="cls-3" d="m171.09,76.13c.53-.31,1.15-.53,1.86-.68.71-.15,1.45-.22,2.22-.22.73,0,1.32.09,1.76.28.44.19.78.43,1.01.73.23.3.39.63.46.99.08.36.12.72.12,1.08,0,.8-.02,1.58-.06,2.34-.04.76-.06,1.48-.06,2.16,0,.49.02.96.06,1.4s.12.85.23,1.22h-1.24l-.44-1.4h-.1c-.13.19-.28.37-.47.55-.19.18-.42.34-.68.48-.27.14-.58.26-.93.35-.35.09-.75.14-1.2.14s-.87-.07-1.25-.2c-.39-.13-.72-.32-1-.57s-.5-.54-.66-.89c-.16-.35-.24-.74-.24-1.18,0-.59.13-1.08.38-1.47.25-.39.61-.71,1.06-.94.46-.23,1-.4,1.64-.5.64-.1,1.34-.15,2.12-.15h.58c.19,0,.38.01.58.04.04-.4.06-.76.06-1.08,0-.73-.15-1.25-.46-1.54-.31-.29-.87-.44-1.68-.44-.24,0-.49.02-.77.05-.27.03-.55.08-.84.14-.29.06-.56.14-.82.23-.26.09-.49.19-.68.3l-.53-1.22Zm2.99,8.02c.39,0,.74-.05,1.05-.15s.58-.23.8-.38.41-.32.56-.51c.15-.19.26-.37.33-.54v-1.66c-.2-.01-.4-.02-.6-.03s-.4-.01-.6-.01c-.44,0-.86.02-1.27.07-.41.05-.78.13-1.09.26-.32.13-.57.3-.76.52-.19.22-.28.5-.28.83,0,.47.18.85.53,1.15.35.3.8.45,1.35.45Z"/>
        <path class="cls-3" d="m182.54,72.35c0-.31.11-.57.33-.79.22-.22.49-.33.83-.33s.62.11.86.33c.24.22.36.48.36.79s-.12.56-.36.76c-.24.2-.53.3-.86.3s-.61-.1-.83-.3c-.22-.2-.33-.45-.33-.76Zm.36,3.04h1.68v10h-1.68v-10Z"/>
        <path class="cls-3" d="m195.79,85.39v-5.7c0-1.04-.16-1.82-.47-2.35s-.9-.79-1.74-.79c-.74,0-1.36.19-1.84.57s-.82.86-1.02,1.43v6.84h-1.68v-10h1.18l.32,1.22h.08c.34-.43.79-.78,1.36-1.05.57-.27,1.25-.41,2.03-.41.58,0,1.08.06,1.52.19.43.13.8.35,1.08.67.29.32.51.75.65,1.29.15.54.22,1.22.22,2.05v6.04h-1.68Z"/>
        <path class="cls-3" d="m206.46,75.39h1.64v-1.98l1.68-.46v2.44h2.86v1.4h-2.86v5.54c0,.69.09,1.18.27,1.47.18.29.49.43.93.43.36,0,.67-.04.93-.11.25-.07.53-.17.84-.29l.38,1.22c-.38.17-.79.31-1.24.42s-.93.16-1.45.16c-.86,0-1.46-.23-1.81-.69-.35-.46-.53-1.23-.53-2.31v-5.84h-1.64v-1.4Z"/>
        <path class="cls-3" d="m222.59,85.39v-5.7c0-.52-.03-.98-.09-1.37-.06-.39-.18-.72-.35-.98-.17-.26-.4-.46-.68-.59-.29-.13-.66-.2-1.13-.2-.66,0-1.26.2-1.79.61-.53.41-.88.93-1.03,1.57v6.66h-1.68v-14h1.68v5.12h.08c.36-.41.8-.74,1.32-.99.51-.25,1.15-.37,1.91-.37.59,0,1.1.06,1.54.19.44.13.8.35,1.08.67.29.32.5.75.63,1.29.13.54.2,1.22.2,2.05v6.04h-1.68Z"/>
        <path class="cls-3" d="m235.88,84.59c-.42.32-.95.57-1.59.76-.64.19-1.32.28-2.03.28-.8,0-1.49-.12-2.08-.37-.59-.25-1.07-.6-1.45-1.06-.38-.46-.66-1.01-.84-1.65-.18-.64-.27-1.36-.27-2.16,0-1.71.4-3.01,1.2-3.9.8-.89,1.94-1.34,3.43-1.34.48,0,.95.05,1.43.15.48.1.91.29,1.28.57.38.28.69.68.93,1.19.24.51.36,1.19.36,2.03,0,.44-.04.93-.13,1.46h-6.76c0,.59.06,1.11.19,1.56.13.45.32.84.59,1.15.27.31.61.55,1.04.72.43.17.95.25,1.57.25.48,0,.95-.08,1.43-.24.48-.16.83-.35,1.07-.56l.63,1.16Zm-3.62-8.04c-.83,0-1.49.21-1.99.62-.5.41-.8,1.12-.9,2.12h5.22c0-1.01-.2-1.72-.61-2.13-.41-.41-.98-.61-1.73-.61Z"/>
        <path class="cls-3" d="m250.83,82.66c0-.4-.13-.71-.38-.94-.25-.23-.57-.42-.94-.57-.37-.15-.78-.3-1.22-.44-.44-.14-.85-.32-1.22-.54-.37-.22-.68-.5-.94-.85-.25-.35-.38-.81-.38-1.4,0-.96.29-1.66.86-2.11s1.38-.67,2.4-.67c.76,0,1.39.06,1.91.19.51.13.96.28,1.34.45l-.4,1.32c-.32-.15-.71-.28-1.17-.39s-.94-.17-1.46-.17c-.62,0-1.07.1-1.36.3-.29.2-.43.55-.43,1.04,0,.35.13.62.38.81.25.19.56.37.94.52s.78.3,1.22.45c.44.15.85.34,1.22.58.37.24.68.54.94.91.25.37.38.85.38,1.45,0,.43-.07.83-.22,1.2-.15.37-.38.69-.68.96-.31.27-.69.48-1.15.63-.46.15-.99.23-1.61.23-.8,0-1.48-.07-2.04-.22s-1.03-.32-1.41-.52l.51-1.36c.32.17.74.33,1.26.48.52.15,1.05.22,1.58.22.6,0,1.1-.11,1.49-.34.39-.23.59-.63.59-1.22Z"/>
        <path class="cls-3" d="m255.73,76.13c.53-.31,1.15-.53,1.86-.68.71-.15,1.45-.22,2.22-.22.73,0,1.32.09,1.76.28.44.19.78.43,1.01.73.23.3.39.63.46.99.08.36.12.72.12,1.08,0,.8-.02,1.58-.06,2.34-.04.76-.06,1.48-.06,2.16,0,.49.02.96.06,1.4s.12.85.23,1.22h-1.24l-.44-1.4h-.1c-.13.19-.28.37-.47.55-.19.18-.42.34-.68.48-.27.14-.58.26-.93.35-.35.09-.75.14-1.2.14s-.87-.07-1.25-.2c-.39-.13-.72-.32-1-.57s-.5-.54-.66-.89c-.16-.35-.24-.74-.24-1.18,0-.59.13-1.08.38-1.47.25-.39.61-.71,1.06-.94.46-.23,1-.4,1.64-.5.64-.1,1.34-.15,2.12-.15h.58c.19,0,.38.01.58.04.04-.4.06-.76.06-1.08,0-.73-.15-1.25-.46-1.54-.31-.29-.87-.44-1.68-.44-.24,0-.49.02-.77.05-.27.03-.55.08-.84.14-.29.06-.56.14-.82.23-.26.09-.49.19-.68.3l-.53-1.22Zm2.99,8.02c.39,0,.74-.05,1.05-.15s.58-.23.8-.38.41-.32.56-.51c.15-.19.26-.37.33-.54v-1.66c-.2-.01-.4-.02-.6-.03s-.4-.01-.6-.01c-.44,0-.86.02-1.27.07-.41.05-.78.13-1.09.26-.32.13-.57.3-.76.52-.19.22-.28.5-.28.83,0,.47.18.85.53,1.15.35.3.8.45,1.35.45Z"/>
        <path class="cls-3" d="m273.36,85.39v-5.66c0-.53-.02-1-.07-1.39-.05-.39-.14-.72-.28-.99-.14-.27-.34-.47-.6-.6-.26-.13-.6-.2-1.02-.2-.65,0-1.18.19-1.61.56-.43.37-.73.84-.9,1.4v6.88h-1.68v-10h1.18l.32,1.22h.08c.38-.43.82-.78,1.32-1.05.5-.27,1.15-.41,1.95-.41.67,0,1.22.12,1.65.37.43.25.76.68,1,1.29.32-.52.77-.93,1.34-1.22s1.21-.44,1.93-.44c.59,0,1.09.06,1.5.19.41.13.74.35,1.01.67.27.32.46.75.58,1.3.12.55.18,1.24.18,2.08v6h-1.68v-6.02c0-.48-.02-.9-.07-1.25-.05-.35-.15-.65-.29-.88-.15-.23-.35-.41-.61-.52s-.6-.17-1.02-.17c-.7,0-1.25.19-1.64.56-.39.37-.67.91-.84,1.6v6.68h-1.68Z"/>
        <path class="cls-3" d="m292.81,84.59c-.42.32-.95.57-1.59.76-.64.19-1.32.28-2.03.28-.8,0-1.49-.12-2.08-.37-.59-.25-1.07-.6-1.45-1.06-.38-.46-.66-1.01-.84-1.65-.18-.64-.27-1.36-.27-2.16,0-1.71.4-3.01,1.2-3.9.8-.89,1.94-1.34,3.43-1.34.48,0,.95.05,1.43.15.48.1.91.29,1.28.57.38.28.69.68.93,1.19.24.51.36,1.19.36,2.03,0,.44-.04.93-.13,1.46h-6.76c0,.59.06,1.11.19,1.56.13.45.32.84.59,1.15.27.31.61.55,1.04.72.43.17.95.25,1.57.25.48,0,.95-.08,1.43-.24.48-.16.83-.35,1.07-.56l.63,1.16Zm-3.62-8.04c-.83,0-1.49.21-1.99.62-.5.41-.8,1.12-.9,2.12h5.22c0-1.01-.2-1.72-.61-2.13-.41-.41-.98-.61-1.73-.61Z"/>
      </g>
      <g>
        <path class="cls-2" d="m76.72,13.92c-1.14,1.33-5.14,2.09-5.14,2.09,0,0-.02-4.14,1.53-5.2,1.45-.99,5.24-2.04,5.24-2.04,0,0-.49,3.81-1.63,5.14Z"/>
        <path class="cls-2" d="m156.15,23.41c-1.34,1.13-5.41,1.25-5.41,1.25,0,0,.64-4.09,2.34-4.89,1.58-.74,5.5-1.18,5.5-1.18,0,0-1.09,3.68-2.42,4.81Z"/>
        <path class="cls-2" d="m275.14,23.43c1.25,1.23,1.74,5.27,1.74,5.27,0,0-4.13-.27-5.08-1.88-.89-1.51-1.68-5.37-1.68-5.37,0,0,3.77.75,5.02,1.97Z"/>
        <path class="cls-3" d="m48.52,8.05c-2.14,0-4.47,1.75-6.99,5.25-2.53,3.5-5.57,9.21-9.14,17.13-1.22,2.73-2.01,4.58-2.34,5.55l4.53-21.64c.49-2.32.74-4.09.74-5.31s-.33-2.18-.98-2.95c-.65-.77-1.47-1.15-2.46-1.15-1.56,0-3.3,1.1-5.21,3.3-1.91,2.2-3.99,5.45-6.23,9.75-3.57,6.93-6.29,12.94-8.16,18.05l-.23.74,1.56-8.52c.7-3.93,1.12-6.38,1.25-7.34.47-3.28.7-6.21.7-8.79,0-3.07-.48-5.49-1.43-7.27-.95-1.77-2.26-2.66-3.93-2.66-1.46,0-2.9.79-4.32,2.36-1.42,1.58-2.64,3.72-3.67,6.43-1.03,2.71-1.76,5.74-2.21,9.1l2.93,1.91c.52-3.83,1.26-7.4,2.23-10.7,1.54-5.26,3.29-7.89,5.27-7.89.81,0,1.44.41,1.89,1.23.46.82.68,1.99.68,3.5,0,2.06-.4,5.4-1.21,10.04-.96,5.91-2.47,13.53-4.53,22.85-.44,1.98-.96,4.25-1.56,6.8l-1.68,6.68-.12.55h3.28c.68-2.81,1.77-6.46,3.28-10.94,1.04-3.07,1.98-5.68,2.81-7.81.83-2.13,1.78-4.44,2.85-6.91,1.07-2.47,2.17-4.84,3.32-7.11,2.42-5.03,4.52-8.73,6.29-11.11,1.77-2.38,3.27-3.57,4.49-3.57.29,0,.54.08.76.23.22.16.4.39.53.7.13.31.2.64.2.98,0,.76-.14,1.8-.43,3.12l-9.06,42.42h3.24c.88-4.11,2.02-8.27,3.42-12.48,1.39-4.21,3.08-8.54,5.06-12.99,2.53-5.65,4.86-10.06,6.99-13.24,1.38-2.08,2.53-3.57,3.44-4.45.91-.88,1.73-1.33,2.46-1.33.47,0,.83.16,1.09.49.26.33.39.74.39,1.23,0,.37-.09,1.03-.27,1.99l-.27,1.37-8.24,39.41h3.75l8.09-38.44c.44-2,.66-3.5.66-4.49,0-1.22-.32-2.21-.96-2.95-.64-.74-1.49-1.11-2.56-1.11Z"/>
        <path class="cls-3" d="m61.38,52.93c-.47,0-.85-.26-1.13-.78-.29-.52-.43-1.2-.43-2.03,0-1.28.29-2.97.86-5.08l3.44-12.85-3.83,1.6-2.46,13.67c-.31,1.69-.47,2.93-.47,3.71,0,1.22.28,2.25.84,3.07.56.82,1.24,1.23,2.05,1.23.6,0,1.25-.31,1.95-.92s1.8-1.79,3.28-3.54l.39-.43-.62-.55c-1.77,1.93-3.06,2.89-3.87,2.89Z"/>
        <path class="cls-3" d="m91.12,52.93c-.47,0-.85-.25-1.13-.76-.29-.51-.43-1.18-.43-2.01s.2-2.03.59-3.59l.39-1.52,1.17-4.77.39-1.64c.29-1.09.43-1.94.43-2.54,0-1.07-.3-1.92-.9-2.56-.6-.64-1.38-.96-2.34-.96-1.95,0-4,1.19-6.13,3.55-2.14,2.37-4.28,5.83-6.45,10.39l3.36-14.34-3.71,1.6-4.14,21.64,2.62-.82.35-1.05c1.04-3.2,1.98-5.71,2.81-7.52.83-1.81,1.89-3.64,3.16-5.49,2.63-3.85,4.84-5.78,6.64-5.78.49,0,.88.14,1.17.43.29.29.43.7.43,1.25s-.1,1.43-.31,2.73l-1.52,8.28c-.31,1.64-.47,2.88-.47,3.71,0,1.22.28,2.25.84,3.07.56.82,1.24,1.23,2.05,1.23.6,0,1.25-.31,1.95-.92s1.8-1.79,3.28-3.54l.39-.43-.62-.55c-1.77,1.93-3.06,2.89-3.87,2.89Z"/>
        <path class="cls-3" d="m114.7,32.66c-2.08,0-4.13.73-6.13,2.19-2.01,1.46-3.64,3.35-4.9,5.68-1.26,2.33-1.89,4.67-1.89,7.01s.68,4.42,2.03,5.92c1.35,1.5,3.14,2.25,5.35,2.25,2.06,0,4.09-.75,6.11-2.25,2.02-1.5,3.65-3.42,4.88-5.76,1.24-2.34,1.86-4.77,1.86-7.27,0-2.29-.67-4.16-2.01-5.61-1.34-1.45-3.11-2.17-5.29-2.17Zm3.01,11.91c-.52,2.01-1.22,3.82-2.11,5.43-1.72,3.15-3.71,4.73-5.98,4.73-1.41,0-2.49-.52-3.24-1.56-.76-1.04-1.13-2.53-1.13-4.45,0-1.61.31-3.46.92-5.55.61-2.08,1.39-3.91,2.32-5.47.83-1.35,1.75-2.38,2.75-3.09,1-.7,2.05-1.05,3.14-1.05,1.2,0,2.18.51,2.95,1.52.77,1.02,1.15,2.3,1.15,3.87,0,1.75-.26,3.62-.78,5.62Z"/>
        <path class="cls-3" d="m138.03,53.48c-.44,0-.82-.2-1.13-.61-.31-.4-.47-.9-.47-1.5,0-1.64.61-4.12,1.82-7.44s2.75-6.7,4.63-10.14l.27-.55h-1.88c-1.04.94-2.37,1.41-3.98,1.41-.57,0-1.21-.09-1.91-.27.29-.99.43-1.89.43-2.7,0-1.15-.25-2.08-.74-2.79-.5-.72-1.13-1.07-1.91-1.07s-1.38.33-1.88.98c-.5.65-.74,1.5-.74,2.54,0,2.19,1.05,3.87,3.16,5.04-.76,2.34-2.25,4.87-4.49,7.58l.7.62c2.29-2.71,3.85-5.34,4.69-7.89.52.13,1.02.2,1.48.2,1.02,0,1.92-.16,2.71-.49.79-.33,1.62-.88,2.48-1.66l-.39.55c-1.3,1.98-2.38,3.69-3.24,5.12-.86,1.43-1.56,2.71-2.11,3.83-1.51,3-2.27,5.47-2.27,7.42,0,1.17.29,2.1.88,2.77s1.39,1.02,2.4,1.02c1.2,0,2.49-.55,3.87-1.64,1.54-1.2,2.67-2.2,3.4-3.01l-.62-.7c-2.37,2.27-4.09,3.4-5.16,3.4Zm-3.48-19.45c-1.62-.96-2.42-2.06-2.42-3.28,0-.36.1-.67.29-.92.2-.25.42-.37.68-.37.47,0,.85.26,1.15.78.3.52.45,1.24.45,2.15,0,.44-.05.99-.16,1.64Z"/>
        <path class="cls-3" d="m155.59,52.93c-.47,0-.85-.26-1.13-.78-.29-.52-.43-1.2-.43-2.03,0-1.28.29-2.97.86-5.08l3.44-12.85-3.83,1.6-2.46,13.67c-.31,1.69-.47,2.93-.47,3.71,0,1.22.28,2.25.84,3.07.56.82,1.24,1.23,2.05,1.23.6,0,1.25-.31,1.95-.92s1.8-1.79,3.28-3.54l.39-.43-.62-.55c-1.77,1.93-3.06,2.89-3.87,2.89Z"/>
        <path class="cls-1" d="m161.99,12.39c-1.85,0-3.41.63-4.67,1.89s-1.89,2.78-1.89,4.56.67,3.22,2,4.56,2.85,2,4.56,2,3.29-.63,4.56-1.89,1.89-2.81,1.89-4.67-.59-3.48-1.78-4.67c-1.19-1.18-2.74-1.78-4.67-1.78Z"/>
        <path class="cls-3" d="m212.26,0l-4.22,1.99-6.37,31.91c-1.33-.91-2.76-1.37-4.3-1.37-2.08,0-4.17.86-6.27,2.58-2.1,1.72-3.82,3.9-5.18,6.54-1.35,2.64-2.03,5.25-2.03,7.83,0,1.85.43,3.31,1.29,4.39.86,1.08,2.03,1.62,3.52,1.62,2.47,0,5.03-1.69,7.66-5.08,1.46-1.93,2.53-3.71,3.2-5.35l-.43,2.23c-.37,1.8-.55,3.03-.55,3.71,0,1.15.29,2.16.86,3.05.57.89,1.29,1.33,2.15,1.33.36,0,.7-.08,1-.25.3-.17.77-.58,1.43-1.23l1.29-1.29s.53-.59,1.52-1.68l.31-.35-.59-.55c-.05.03-.09.05-.12.08l-.08.08-1.13,1.13c-.96,1.02-1.78,1.52-2.46,1.52-.52,0-.93-.26-1.23-.78-.3-.52-.45-1.2-.45-2.03,0-.94.27-2.6.82-5L212.26,0Zm-11.33,37.85c-.26,1.2-.69,2.79-1.29,4.77-.5,1.54-1.17,3.02-2.03,4.45-1.28,2.11-2.55,3.72-3.81,4.84-1.26,1.12-2.44,1.68-3.54,1.68-.94,0-1.67-.38-2.21-1.13-.53-.75-.8-1.76-.8-3.01,0-1.43.27-3.03.8-4.79.53-1.76,1.22-3.38,2.05-4.86,1.15-2,2.36-3.55,3.65-4.65s2.54-1.64,3.77-1.64c.83,0,1.61.21,2.34.64.73.43,1.21,1,1.45,1.7l-.39,1.99Z"/>
        <path class="cls-3" d="m225.63,52.6c-1.15.77-2.33,1.15-3.55,1.15-1.56,0-2.84-.57-3.83-1.7-.99-1.13-1.48-2.6-1.48-4.39,0-.26.01-.49.04-.7,3.78-1.41,6.76-3.11,8.95-5.12,2.19-2,3.28-4.01,3.28-6.02,0-.99-.35-1.8-1.04-2.42-.69-.62-1.57-.94-2.64-.94-1.82,0-3.67.79-5.53,2.36-1.86,1.58-3.41,3.57-4.65,5.98-1.24,2.41-1.86,4.79-1.86,7.13s.64,4.18,1.91,5.59,2.97,2.11,5.08,2.11c1.77,0,3.42-.48,4.96-1.43,1.54-.95,3.11-2.49,4.73-4.63l-.7-.59c-1.3,1.64-2.53,2.85-3.67,3.61Zm-5.76-15.2c1.73-2.67,3.44-4,5.14-4,1.12,0,1.68.61,1.68,1.84,0,.96-.31,2.04-.94,3.24-.62,1.2-1.45,2.32-2.46,3.36-1.51,1.54-3.67,2.93-6.48,4.18.31-3.07,1.33-5.94,3.07-8.61Z"/>
        <path class="cls-3" d="m249.89,33.42c-.79-.59-1.78-.88-2.95-.88-1.33,0-2.59.32-3.79.96-1.2.64-2.16,1.48-2.87,2.52-.72,1.04-1.07,2.17-1.07,3.4,0,.94.27,1.76.8,2.48.53.72,1.57,1.7,3.11,2.95,1.67,1.35,2.72,2.32,3.16,2.89.44.57.66,1.26.66,2.07,0,1.12-.46,2.1-1.39,2.95-.92.85-2.04,1.27-3.34,1.27-2.5,0-4.32-1.35-5.47-4.06l-2.19,2.58c1.59,2.14,3.54,3.2,5.86,3.2,1.46,0,2.84-.35,4.16-1.05,1.31-.7,2.36-1.65,3.12-2.83.77-1.18,1.15-2.45,1.15-3.81,0-1.82-1.11-3.61-3.32-5.35l-2.27-1.84c-1.35-1.07-2.03-2.15-2.03-3.24,0-.88.4-1.67,1.19-2.36.79-.69,1.72-1.04,2.79-1.04,1.2,0,2.18.35,2.95,1.04.77.69,1.23,1.65,1.39,2.87,1.02-.44,1.52-1.26,1.52-2.46,0-.91-.4-1.66-1.19-2.25Z"/>
        <path class="cls-3" d="m262.81,52.93c-.47,0-.85-.26-1.13-.78-.29-.52-.43-1.2-.43-2.03,0-1.28.29-2.97.86-5.08l3.44-12.85-3.83,1.6-2.46,13.67c-.31,1.69-.47,2.93-.47,3.71,0,1.22.28,2.25.84,3.07.56.82,1.24,1.23,2.05,1.23.6,0,1.25-.31,1.95-.92s1.8-1.79,3.28-3.54l.39-.43-.62-.55c-1.77,1.93-3.06,2.89-3.87,2.89Z"/>
        <path class="cls-1" d="m268.3,13.7c-1.85,0-3.41.63-4.67,1.89s-1.89,2.78-1.89,4.56.67,3.22,2,4.56c1.33,1.33,2.85,2,4.56,2s3.29-.63,4.56-1.89c1.26-1.26,1.89-2.81,1.89-4.67s-.59-3.48-1.78-4.67c-1.19-1.18-2.74-1.78-4.67-1.78Z"/>
        <path class="cls-3" d="m291.15,34.84c-1.22-1.38-2.76-2.07-4.61-2.07-1.98,0-4.02.88-6.11,2.64-2.1,1.76-3.83,3.96-5.21,6.62s-2.07,5.21-2.07,7.66c0,1.72.45,3.13,1.35,4.24.9,1.11,2.08,1.66,3.54,1.66,3.59,0,7.13-3.25,10.62-9.77l-3.01,12.89c-.73,3.15-1.43,5.33-2.11,6.52-.52.99-1.33,1.82-2.42,2.5-1.09.68-2.17,1.02-3.24,1.02-1.67,0-3.35-.81-5.04-2.42l-1.99,2.58c1.41,1.04,3.03,1.56,4.88,1.56,2.03,0,3.93-.5,5.68-1.5,1.76-1,3.25-2.44,4.47-4.32.65-.99,1.2-2.08,1.66-3.28.46-1.2.98-3.07,1.58-5.62l5.98-23.79-3.59,1.52-.35,1.37Zm-.86,3.71c-.78,3.26-1.89,6.07-3.32,8.44-1.25,2.08-2.51,3.7-3.77,4.84-1.26,1.15-2.42,1.72-3.46,1.72s-1.8-.37-2.36-1.11c-.56-.74-.84-1.76-.84-3.07,0-1.93.49-4.11,1.46-6.54.98-2.43,2.15-4.46,3.54-6.07,1.69-1.93,3.41-2.89,5.16-2.89s3.01.98,4.02,2.93l-.43,1.76Z"/>
        <path class="cls-3" d="m324.64,50.04c-1.77,1.93-3.06,2.89-3.87,2.89-.47,0-.85-.25-1.13-.76-.29-.51-.43-1.18-.43-2.01s.2-2.03.59-3.59l.39-1.52,1.17-4.77.39-1.64c.29-1.09.43-1.94.43-2.54,0-1.07-.3-1.92-.9-2.56-.6-.64-1.38-.96-2.34-.96-1.95,0-4,1.19-6.13,3.55-2.14,2.37-4.28,5.83-6.45,10.39l3.36-14.34-3.71,1.6-4.14,21.64,2.62-.82.35-1.05c1.04-3.2,1.98-5.71,2.81-7.52.83-1.81,1.89-3.64,3.16-5.49,2.63-3.85,4.84-5.78,6.64-5.78.49,0,.88.14,1.17.43.29.29.43.7.43,1.25s-.1,1.43-.31,2.73l-1.52,8.28c-.31,1.64-.47,2.88-.47,3.71,0,1.22.28,2.25.84,3.07.56.82,1.24,1.23,2.05,1.23.6,0,1.25-.31,1.95-.92s1.8-1.79,3.28-3.54l.39-.43-.62-.55Z"/>
        <path class="cls-1" d="m68.52,10.41c-1.85,0-3.41.63-4.67,1.89-1.26,1.26-1.89,2.78-1.89,4.56s.67,3.22,2,4.56c1.33,1.33,2.85,2,4.56,2s3.29-.63,4.56-1.89c1.26-1.26,1.89-2.81,1.89-4.67s-.59-3.48-1.78-4.67c-1.19-1.18-2.74-1.78-4.67-1.78Z"/>
      </g>
    </g>
  </g>
</svg>