<?xml version="1.0" encoding="UTF-8"?>
<svg id="_レイヤー_2" data-name="レイヤー 2" xmlns="http://www.w3.org/2000/svg" viewBox="0 0 187.06 60.64">
  <defs>
    <style>
      .cls-1 {
        font-family: MatisseProN-M-83pv-RKSJ-H, 'FOT-Matisse ProN';
        font-size: 20px;
        letter-spacing: .03em;
      }

      .cls-1, .cls-2 {
        fill: #4a597b;
      }

      .cls-3 {
        fill: none;
        stroke: #4a597b;
        stroke-dasharray: 0 0 0 10.84;
        stroke-linecap: round;
        stroke-miterlimit: 10;
        stroke-width: 2.06px;
      }

      .cls-2, .cls-4 {
        stroke-width: 0px;
      }

      .cls-4 {
        fill: #fff;
      }
    </style>
  </defs>
  <g id="Top">
    <g id="_プロフ" data-name="プロフ">
      <g>
        <g>
          <rect class="cls-4" x="1.03" y="1.03" width="185" height="58.58" rx="6" ry="6"/>
          <rect class="cls-3" x="1.03" y="1.03" width="185" height="58.58" rx="6" ry="6"/>
        </g>
        <text class="cls-1" transform="translate(23.7 37.82)"><tspan x="0" y="0">View more</tspan></text>
        <path class="cls-2" d="m148.15,31.53c-.57,3.32,1.44,6.43,4.48,6.95s5.97-1.74,6.54-5.06c.57-3.32-1.44-6.43-4.48-6.95s-5.97,1.74-6.54,5.06Zm1.85,4.08c-.07-.11-.13-.21-.19-.32-.03-.05.05-.1.1-.06.47.4,1.05.68,1.69.79,2.07.35,4.06-1.19,4.45-3.44s-.98-4.37-3.05-4.73c-.19-.03-.39-.05-.58-.05-.09,0-.12-.11-.04-.14.69-.27,1.42-.36,2.14-.23,1.13.19,2.12.87,2.79,1.92.72,1.12.99,2.5.75,3.89s-.95,2.6-2,3.42c-.98.76-2.14,1.07-3.27.88-1.13-.19-2.12-.87-2.79-1.92Z"/>
        <path class="cls-2" d="m136.51,31.53c-.57,3.32,1.44,6.43,4.48,6.95,3.04.52,5.97-1.74,6.54-5.06.57-3.32-1.44-6.43-4.48-6.95s-5.97,1.74-6.54,5.06Zm1.85,4.08c-.07-.11-.13-.21-.19-.32-.03-.05.05-.1.1-.06.47.4,1.05.68,1.69.79,2.07.35,4.06-1.19,4.45-3.44.39-2.26-.98-4.37-3.05-4.73-.19-.03-.39-.05-.58-.05-.09,0-.12-.11-.04-.14.69-.27,1.42-.36,2.14-.23,1.13.19,2.12.87,2.79,1.92.72,1.12.99,2.5.75,3.89s-.95,2.6-2,3.42c-.98.76-2.14,1.07-3.27.88s-2.12-.87-2.79-1.92Z"/>
      </g>
    </g>
  </g>
</svg>