<?xml version="1.0" encoding="UTF-8"?>
<svg id="_レイヤー_2" data-name="レイヤー 2" xmlns="http://www.w3.org/2000/svg" viewBox="0 0 2.39 72.31">
  <defs>
    <style>
      .cls-1 {
        fill: #808090;
        stroke-width: 0px;
      }
    </style>
  </defs>
  <g id="Works_02" data-name="Works 02">
    <g id="Firstview">
      <g>
        <path class="cls-1" d="m1.2,2.56c0,2.38-.04,4.74-.09,7.05-.06,3.08-.12,6.27-.07,9.45-.01.08-.07.16-.15.16-.09,0-.16-.07-.16-.15-.05-3.19.01-6.37.07-9.46.06-3.08.12-6.27.07-9.45C.86.08.94,0,1.02,0c.09,0,.16.07.16.15.01.8.02,1.61.02,2.41Z"/>
        <g>
          <path class="cls-1" d="m1.48,23.94c.06.13,0,.3-.11.38-.12.08-.29.06-.39-.04-.1-.1-.12-.27-.04-.39.06-.09.16-.14.26-.13.1,0,.22.06.27.18Z"/>
          <path class="cls-1" d="m1.65,24.06c0,.15-.07.3-.2.39-.18.12-.44.1-.59-.05-.15-.15-.18-.41-.06-.59.09-.13.25-.21.41-.2.18.01.34.12.4.27h0c.02.06.04.12.04.18Zm-.18-.12h0s0,0,0,0Zm-.43.12s.01.08.04.11c.05.05.14.06.19.02.06-.04.08-.13.05-.19-.02-.05-.09-.08-.14-.09-.05,0-.1.02-.12.06-.02.02-.02.05-.02.08Z"/>
        </g>
        <g>
          <path class="cls-1" d="m1.76,27.42c.11.26.02.6-.22.76-.23.16-.58.13-.78-.07-.2-.2-.23-.55-.07-.78.12-.17.32-.28.53-.26.21.02.45.13.55.36Z"/>
          <path class="cls-1" d="m1.96,27.65c0,.25-.12.51-.33.65-.3.2-.73.16-.98-.09-.25-.25-.3-.68-.09-.98.15-.22.41-.35.67-.33.23.02.54.15.68.45h0c.04.09.06.2.06.3Zm-.2-.23h0s0,0,0,0Zm-1.02.24c0,.12.04.25.13.33.15.15.41.17.59.05.17-.12.25-.37.16-.57-.08-.18-.27-.26-.42-.27-.15-.01-.3.07-.39.19-.05.07-.07.16-.07.25Z"/>
        </g>
        <g>
          <path class="cls-1" d="m1.87,31.4c.14.31.02.72-.26.91-.28.19-.7.15-.94-.09-.24-.24-.28-.66-.09-.94.14-.21.39-.33.64-.31.25.02.54.16.66.43Z"/>
          <path class="cls-1" d="m2.09,31.68c0,.29-.14.59-.39.76-.34.24-.85.19-1.14-.11-.3-.29-.34-.8-.11-1.14.17-.26.48-.4.78-.38.27.02.63.17.79.53h0c.05.11.07.23.07.35Zm-1.48,0c0,.16.06.31.17.42.19.19.52.22.75.07.22-.15.31-.47.21-.72h0c-.1-.23-.35-.33-.53-.34-.19-.01-.39.08-.5.25-.06.09-.1.21-.1.32Z"/>
        </g>
        <g>
          <path class="cls-1" d="m2.15,35.73c.19.44.03,1.01-.37,1.28-.4.27-.99.22-1.33-.12-.34-.34-.4-.93-.13-1.33.2-.29.55-.47.9-.44.35.03.76.22.93.61Z"/>
          <path class="cls-1" d="m2.39,36.13c0,.39-.19.79-.52,1.01-.46.31-1.13.25-1.52-.14-.39-.39-.46-1.06-.15-1.52.23-.34.64-.54,1.04-.51.36.03.85.23,1.06.7h0c.06.15.09.3.09.46Zm-.24-.4h0s0,0,0,0Zm-1.84.41c0,.24.09.47.25.64.29.29.79.33,1.13.1.33-.23.48-.72.31-1.09-.15-.35-.52-.49-.8-.52-.28-.02-.59.13-.75.37-.1.14-.14.32-.14.49Z"/>
        </g>
        <g>
          <path class="cls-1" d="m1.87,40.9c.14-.31.02-.72-.26-.91-.28-.19-.7-.15-.94.09-.24.24-.28.66-.09.94.14.21.39.33.64.31.25-.02.54-.16.66-.43Z"/>
          <path class="cls-1" d="m2.09,40.62c0,.12-.02.24-.07.34-.15.35-.52.51-.79.53-.3.02-.61-.13-.78-.38-.23-.35-.19-.85.11-1.14.3-.29.8-.34,1.14-.11.25.17.39.46.39.76Zm-1.48,0c0,.12.03.23.09.32.11.16.31.26.5.25.18-.01.43-.11.53-.34h0c.11-.25.01-.57-.21-.72-.22-.15-.56-.12-.75.07-.11.11-.17.27-.17.42Z"/>
        </g>
        <g>
          <path class="cls-1" d="m1.76,44.88c.11-.26.02-.6-.22-.76-.23-.16-.58-.13-.78.07s-.23.55-.07.78c.12.17.32.28.53.26.21-.02.45-.13.55-.36Z"/>
          <path class="cls-1" d="m1.96,44.64c0,.1-.02.2-.06.3h0c-.13.31-.45.43-.68.45-.26.02-.52-.11-.67-.33-.2-.3-.16-.73.09-.98.25-.25.69-.29.98-.09.21.14.33.4.33.65Zm-.35.17c.08-.19.01-.45-.16-.57-.17-.12-.44-.09-.59.05-.15.15-.17.41-.06.59.09.13.24.2.39.19.14-.01.34-.09.42-.27h0Z"/>
        </g>
        <g>
          <path class="cls-1" d="m1.48,48.35c.06-.13,0-.3-.11-.38-.12-.08-.29-.06-.39.04-.1.1-.12.27-.04.39.06.09.16.14.26.13.1,0,.22-.06.27-.18Z"/>
          <path class="cls-1" d="m1.65,48.24c0,.06-.01.12-.04.18h0c-.07.15-.22.26-.4.27-.16.01-.32-.07-.41-.2-.12-.18-.1-.44.06-.59.15-.15.41-.18.59-.05.13.09.2.24.2.39Zm-.32.05c.03-.06,0-.15-.05-.19-.06-.04-.15-.03-.19.02-.05.05-.06.14-.02.19.03.04.08.07.12.06.05,0,.12-.03.14-.09h0Z"/>
        </g>
        <path class="cls-1" d="m1.2,69.75c0,.8,0,1.61-.02,2.41,0,.09-.07.15-.16.15-.09,0-.16-.07-.15-.16.05-3.18-.01-6.37-.07-9.45-.06-3.08-.12-6.27-.07-9.46,0-.09.07-.15.16-.15.09,0,.14.08.15.16-.05,3.18.01,6.37.07,9.45.04,2.31.09,4.67.09,7.05Z"/>
      </g>
    </g>
  </g>
</svg>