<?xml version="1.0" encoding="UTF-8"?>
<svg id="_レイヤー_2" data-name="レイヤー 2" xmlns="http://www.w3.org/2000/svg" viewBox="0 0 155.69 15.32">
  <defs>
    <style>
      .cls-1 {
        fill: none;
        stroke: #808095;
        stroke-dasharray: 0 0 0 5;
        stroke-linecap: round;
        stroke-miterlimit: 10;
        stroke-width: 2px;
      }

      .cls-2 {
        fill: #666;
        stroke-width: 0px;
      }
    </style>
  </defs>
  <g id="TOP">
    <g id="PROFILE">
      <g>
        <g>
          <path class="cls-2" d="m33.15,15.08c-.12,0-.16-.04-.16-.14s.02-.14.14-.16c1.12-.12,1.44-.46,1.44-1V1.62c0-.62-.4-.96-1.44-1.08-.08,0-.14,0-.14-.16,0-.12.04-.14.16-.14,2.3,0,4.1-.08,6.9-.08h.1c3.02,0,5.02,1.76,5.02,4.46s-1.7,4.64-5.16,4.64c-1.34,0-3.02-.22-3.96-.46v4.98c0,.54.6.86,1.84,1,.04,0,.14.06.14.16s-.06.14-.16.14h-4.72Zm2.9-7.48c0,.48,1.8,1.02,3.96,1.02s3.72-1.66,3.72-3.98-1.72-3.84-4.42-3.84c-.44,0-2.62,0-3.26.16v6.64Z"/>
          <path class="cls-2" d="m61.07,14.74c0,.08-.08.12-.16.16-.34.14-.92.22-1.58.22-1.14,0-2.34-.46-3.36-1.78-.78-1.02-2.5-4.28-3.02-5.18-.22-.38-3.06-.5-3.06-.5v6.12c0,.52.3.9,1.5,1,.08,0,.14.06.14.16s-.06.14-.16.14h-4.38c-.14,0-.16-.02-.16-.1v-.04c0-.1.02-.14.14-.16,1.12-.12,1.44-.46,1.44-1V1.62c0-.62-.32-.96-1.52-1.08-.12-.02-.14.02-.14-.16,0-.1.04-.14.16-.14,2.76,0,3.94-.08,6.66-.08,3.12,0,4.98,1.4,4.98,3.66,0,1.9-1,3.66-4.08,4.02.7,1.44,1.94,3.72,3.18,5.24.96,1.16,1.9,1.58,2.78,1.58.12,0,.24,0,.36-.02.08,0,.14-.02.18-.02.06,0,.08.02.1.08v.04Zm-11.18-8.22c0,.54,2.14.7,3.72.7,2.14,0,3.5-1.24,3.5-3.36,0-1.9-1.26-3.14-3.88-3.14-.58,0-2.7.04-3.34.12v5.68Z"/>
          <path class="cls-2" d="m61.57,7.7c0-4.64,2.48-7.7,6.9-7.7s6.9,3.06,6.9,7.7-2.4,7.62-6.9,7.62-6.9-2.98-6.9-7.62Zm12.2.52c0-4.72-2.34-7.56-5.44-7.56-2.94,0-5.18,2.12-5.2,6.44v.06c0,4.58,2.44,7.5,5.44,7.5,2.78,0,5.2-2.2,5.2-6.44Z"/>
          <path class="cls-2" d="m77.63,15.08c-.14,0-.16-.02-.16-.1v-.04c0-.1.02-.14.14-.16,1.12-.12,1.44-.46,1.44-1V1.62c0-.62-.32-.96-1.44-1.08-.1-.02-.14-.02-.14-.16,0-.12.02-.14.16-.14h6.98c1.16,0,2.26-.06,3.56-.2h.04c.08,0,.18.06.22.28.06.8.26,2.6.5,3.5v.04c0,.06-.06.1-.14.12h-.06c-.06,0-.1-.02-.14-.12-.74-2.08-1.98-3.04-3.8-3.04h-4.26v6.42h1.04c1.14,0,2.82,0,3-.02.34-.04.7-.16,1.02-.5.44-.46.78-1.36.94-2.08.02-.08.08-.08.16-.08.12,0,.2.04.2.12v.02c-.2,1.12-.32,2.2-.32,2.84,0,.74.16,2.12.32,2.86v.02c0,.06-.08.12-.18.12-.08,0-.12-.02-.16-.06,0-.02-.02-.02-.02-.04-.24-.8-.58-1.68-.96-2.06-.24-.24-.66-.44-1-.48-.18-.02-1.86-.02-3-.02h-1.04v5.9c0,.54.72.88,1.84,1,.04.02.14.06.14.16s-.06.14-.16.14h-4.72Z"/>
          <path class="cls-2" d="m90.49,15.08c-.1,0-.16-.04-.16-.14s.02-.14.14-.16c.96-.2,1.66-.38,1.66-.92V1.46c0-.54-.7-.72-1.66-.92-.12-.02-.14.02-.14-.16v-.04c0-.08.02-.1.16-.1h4.76c.1,0,.16.04.16.14,0,.18-.1.14-.14.16-.96.2-1.66.38-1.66.92v12.4c0,.54.7.72,1.66.92.04.02.14.06.14.16s-.06.14-.16.14h-4.76Z"/>
          <path class="cls-2" d="m107.55,15.18c-1.6-.02-4.12-.1-5.22-.1h-5.16c-.1,0-.16-.04-.16-.14s.1-.14.14-.16c1.12-.12,1.5-.46,1.5-1V1.62c0-.62-.2-.86-1.5-1.08-.08-.02-.14.02-.14-.16,0-.1.06-.14.16-.14h4.44c.1,0,.16.04.16.14,0,.18-.06.14-.14.16-1.24.18-1.5.46-1.5,1.08v12.12c0,.38.2.64.46.7.22.06.74.08,1.34.08,1.04,0,2.38-.08,3.06-.24,1.38-.32,2.52-2.44,3.08-3.86.02-.06.06-.1.14-.1.04,0,.1.02.16.04.1.04.12.1.12.16v.06c-.34,1.32-.68,3.46-.76,4.3-.02.26-.02.3-.16.3h-.02Z"/>
          <path class="cls-2" d="m122.11,11.18c-.22.74-.6,2.9-.7,3.7-.04.26-.12.3-.24.3-2.8-.02-2.9-.1-4.08-.1h-7.04c-.14,0-.16-.02-.16-.1v-.04c0-.1.02-.14.14-.16,1.12-.12,1.44-.46,1.44-1V1.62c0-.62-.32-.96-1.44-1.08-.1-.02-.14-.02-.14-.16,0-.12.02-.14.16-.14h7.08c1.16,0,2.26-.06,3.56-.2h.04c.08,0,.18.06.22.28.06.8.26,2.6.5,3.5v.04c0,.06-.06.1-.14.12h-.06c-.06,0-.1-.02-.14-.12-.74-2.08-1.98-3.04-3.8-3.04h-4.36v6.28h.92c1.02,0,2.54,0,2.72-.02.34-.04.7-.16,1.02-.5.44-.46.78-1.36.94-2.08.02-.08.08-.08.16-.08.12,0,.2.04.2.12v.02c-.2,1.12-.32,2.2-.32,2.84,0,.74.16,2.12.32,2.86v.02c0,.08-.08.12-.18.12-.08,0-.12-.02-.16-.06,0-.02-.02-.02-.02-.04-.24-.8-.58-1.68-.96-2.06-.24-.24-.66-.44-1-.48-.18-.02-1.7-.02-2.72-.02h-.92v5.96c0,.44.18.7.42.76.26.06,1.14.1,2.12.1,1.44,0,3.1-.06,3.46-.2,1.24-.48,1.84-1.38,2.78-3.22.04-.08.06-.12.14-.12.02,0,.04,0,.08.02.12.04.16.06.16.1v.04Z"/>
        </g>
        <line class="cls-1" x1="1" y1="8.32" x2="22.22" y2="8.32"/>
        <line class="cls-1" x1="133.47" y1="8.32" x2="154.69" y2="8.32"/>
      </g>
    </g>
  </g>
</svg>