<?xml version="1.0" encoding="UTF-8"?>
<svg id="_レイヤー_2" data-name="レイヤー 2" xmlns="http://www.w3.org/2000/svg" viewBox="0 0 181.56 150">
  <defs>
    <style>
      .cls-1 {
        fill: none;
        stroke: #666;
        stroke-dasharray: 0 0 0 7;
        stroke-linecap: round;
        stroke-miterlimit: 10;
        stroke-width: 2px;
      }

      .cls-2 {
        fill: #fff;
        opacity: .7;
      }

      .cls-2, .cls-3, .cls-4, .cls-5, .cls-6, .cls-7, .cls-8, .cls-9, .cls-10, .cls-11, .cls-12, .cls-13, .cls-14, .cls-15, .cls-16, .cls-17, .cls-18, .cls-19, .cls-20, .cls-21, .cls-22, .cls-23, .cls-24, .cls-25, .cls-26, .cls-27, .cls-28, .cls-29, .cls-30, .cls-31, .cls-32, .cls-33, .cls-34 {
        stroke-width: 0px;
      }

      .cls-35 {
        opacity: .5;
      }

      .cls-3 {
        fill: #5f8067;
      }

      .cls-4 {
        fill: #618078;
      }

      .cls-5 {
        fill: #74805f;
      }

      .cls-6 {
        fill: #5e6780;
      }

      .cls-7 {
        fill: #614a3b;
      }

      .cls-8 {
        fill: #788080;
      }

      .cls-9 {
        fill: #4f7556;
      }

      .cls-10 {
        fill: #4a597b;
      }

      .cls-11 {
        fill: #637f4b;
      }

      .cls-12 {
        fill: #638080;
      }

      .cls-13 {
        fill: #808378;
      }

      .cls-14 {
        fill: #808c80;
      }

      .cls-15 {
        fill: gray;
      }

      .cls-16 {
        fill: #80808e;
      }

      .cls-17 {
        fill: #808280;
      }

      .cls-18 {
        fill: #527a65;
      }

      .cls-19 {
        fill: #468080;
      }

      .cls-20 {
        fill: #6d8070;
      }

      .cls-21 {
        fill: #808069;
      }

      .cls-22 {
        fill: #2e6e60;
      }

      .cls-23 {
        fill: #2f384e;
      }

      .cls-24 {
        fill: #396144;
      }

      .cls-25 {
        fill: #3a4768;
      }

      .cls-26 {
        fill: #839e80;
      }

      .cls-27 {
        fill: #2e6150;
      }

      .cls-28 {
        fill: #2f5249;
      }

      .cls-29 {
        fill: #3f7a6e;
      }

      .cls-30 {
        fill: #3f6d55;
      }

      .cls-31 {
        fill: #254438;
      }

      .cls-32 {
        fill: #666;
      }

      .cls-33 {
        fill: #806d5e;
      }

      .cls-34 {
        fill: #805f4f;
      }
    </style>
  </defs>
  <g id="TOP">
    <g id="skills">
      <g>
        <circle class="cls-2" cx="75" cy="75" r="75"/>
        <g>
          <path class="cls-32" d="m37.42,105.4c1.38,3.34,2.94,4.36,5.18,4.36,2.74,0,4-1.02,4-2.68,0-2.08-.98-2.94-4.88-4.38-3.18-1.16-4.44-2.34-4.44-4,0-2,1.72-3.54,5.08-3.54,1.34,0,2.92.54,3.28.54.3,0,.74-.1.92-.16.08-.02.14-.04.18-.04.08,0,.12.04.14.16.14,1.46.32,2.88.5,3.86,0,0,.02.02.02.04,0,.02-.04.06-.1.08-.06,0-.1,0-.14-.02-.04-.02-.08-.06-.1-.1-.88-2.48-2.74-3.7-4.66-3.7-2.56,0-3.74.86-3.74,2.14,0,1.68.92,2.48,4.32,3.64,3.54,1.2,5.1,2.7,5.1,4.88,0,2.44-1.76,4-5.56,4-1.4,0-3.22-.38-4.58-1.02-.1-.06-.28-.14-.3-.3-.06-.78-.32-2.58-.58-3.64,0-.02-.02-.04-.02-.06,0-.08.06-.12.16-.16.1,0,.18,0,.22.1Z"/>
          <path class="cls-32" d="m59.7,110.24c-.1,0-.14-.02-.14-.16,0-.08.04-.12.22-.16.72-.12,1.08-.26,1.08-.56,0-.12-.06-.26-.2-.44l-5.52-6.7-.92.8v5.92c0,.52.32.9,1.5,1,.12.02.14.06.14.16v.04c0,.08-.02.1-.16.1h-4.38c-.1,0-.16-.04-.16-.14s.1-.14.14-.16c1.12-.12,1.44-.48,1.44-1v-12.24c0-.54-.32-.88-1.44-1-.04-.02-.14-.06-.14-.16s.06-.14.16-.14h4.38c.14,0,.16.02.16.1v.04c0,.1-.02.14-.14.16-1.18.1-1.5.48-1.5,1v5.42l5.38-4.84c.34-.3.5-.56.5-.8,0-.34-.32-.6-1.02-.78-.1-.02-.16-.1-.16-.18,0-.1.06-.12.16-.12h4.2c.1,0,.18.02.18.12,0,.08-.06.12-.18.18-.94.34-1.6.62-2.32,1.28l-4.76,4.3,6.38,7.58c.42.5,1.1.96,1.8,1.08.1.02.12.08.12.14,0,.12-.04.16-.14.16h-4.66Z"/>
          <path class="cls-32" d="m65.98,110.24c-.1,0-.16-.04-.16-.14s.02-.14.14-.16c.96-.2,1.66-.38,1.66-.92v-12.4c0-.54-.7-.72-1.66-.92-.12-.02-.14.02-.14-.16v-.04c0-.08.02-.1.16-.1h4.76c.1,0,.16.04.16.14,0,.18-.1.14-.14.16-.96.2-1.66.38-1.66.92v12.4c0,.54.7.72,1.66.92.04.02.14.06.14.16s-.06.14-.16.14h-4.76Z"/>
          <path class="cls-32" d="m84.05,110.34c-1.6-.02-4.12-.1-5.22-.1h-5.16c-.1,0-.16-.04-.16-.14s.1-.14.14-.16c1.12-.12,1.5-.46,1.5-1v-12.16c0-.62-.2-.86-1.5-1.08-.08-.02-.14.02-.14-.16,0-.1.06-.14.16-.14h4.44c.1,0,.16.04.16.14,0,.18-.06.14-.14.16-1.24.18-1.5.46-1.5,1.08v12.12c0,.38.2.64.46.7.22.06.74.08,1.34.08,1.04,0,2.38-.08,3.06-.24,1.38-.32,2.52-2.44,3.08-3.86.02-.06.06-.1.14-.1.04,0,.1.02.16.04.1.04.12.1.12.16v.06c-.34,1.32-.68,3.46-.76,4.3-.02.26-.02.3-.16.3h-.02Z"/>
          <path class="cls-32" d="m97.86,110.34c-1.6-.02-4.12-.1-5.22-.1h-5.16c-.1,0-.16-.04-.16-.14s.1-.14.14-.16c1.12-.12,1.5-.46,1.5-1v-12.16c0-.62-.2-.86-1.5-1.08-.08-.02-.14.02-.14-.16,0-.1.06-.14.16-.14h4.44c.1,0,.16.04.16.14,0,.18-.06.14-.14.16-1.24.18-1.5.46-1.5,1.08v12.12c0,.38.2.64.46.7.22.06.74.08,1.34.08,1.04,0,2.38-.08,3.06-.24,1.38-.32,2.52-2.44,3.08-3.86.02-.06.06-.1.14-.1.04,0,.1.02.16.04.1.04.12.1.12.16v.06c-.34,1.32-.68,3.46-.76,4.3-.02.26-.02.3-.16.3h-.02Z"/>
          <path class="cls-32" d="m101.82,105.4c1.38,3.34,2.94,4.36,5.18,4.36,2.74,0,4-1.02,4-2.68,0-2.08-.98-2.94-4.88-4.38-3.18-1.16-4.44-2.34-4.44-4,0-2,1.72-3.54,5.08-3.54,1.34,0,2.92.54,3.28.54.3,0,.74-.1.92-.16.08-.02.14-.04.18-.04.08,0,.12.04.14.16.14,1.46.32,2.88.5,3.86,0,0,.02.02.02.04,0,.02-.04.06-.1.08-.06,0-.1,0-.14-.02-.04-.02-.08-.06-.1-.1-.88-2.48-2.74-3.7-4.66-3.7-2.56,0-3.74.86-3.74,2.14,0,1.68.92,2.48,4.32,3.64,3.54,1.2,5.1,2.7,5.1,4.88,0,2.44-1.76,4-5.56,4-1.4,0-3.22-.38-4.58-1.02-.1-.06-.28-.14-.3-.3-.06-.78-.32-2.58-.58-3.64,0-.02-.02-.04-.02-.06,0-.08.06-.12.16-.16.1,0,.18,0,.22.1Z"/>
        </g>
        <g class="cls-35">
          <path class="cls-25" d="m164.65,89.15c.55-.18,1.06-.3,1.66-.4.25.24.49.25.79.17.38-.07.7-.07,1.11-.03.42.37.92.26,1.38.54.95.5,1.81.95,2.77,1.43.29.24.27.51.28.85-.14.22-.24.35-.35.48.38,0,.76-.01,1.04-.02-.14,1.33.98,2.76-.05,4.21-.09.18-.1.28-.03.46-.15.54-.33,1.01-.57,1.54-.59.11-.41.6-.65.95-.07.08-.07.06-.06.06-.15.08-.32.13-.5.14-2.57.14-3.51-.81-3.36-3.37.08-1.39-.05-2.73-1.18-3.74-.42-.38-.14-1.47-1.08-1.25-.89.21-.84,1.15-1.04,1.86-.06.22-.15.42-.44.57-1.06-.39-1.02-1.14-.75-1.96.21-.64.47-1.27-.25-1.88.25-.26.55-.43.93-.6.13.07.18.09.23.08.05,0,.08-.02.13-.09Z"/>
          <path class="cls-23" d="m164.14,93.54c.68-1.38.39-4.27,3.07-2.25,1.01.76,1.83,2.83,1.56,4.02-.66,2.89.18,4.04,3.1,4.05-.08.25-.24.47-.49.71-.18.03-.28.06-.38.2,0,.08-.02.09-.03.09-.83.06-1.65.17-2.45.4-.48.14-.94.18-1.45-.21-.26-.26-.36-.54-.59-.67-1.04-.57-1.7-1.45-2.23-2.57-.3-.41-.19-.87-.45-1.3-.19-.41-.13-.79-.32-1.21-.04-.42.07-.71.32-1.05.12-.11.17-.14.31-.21Z"/>
          <path class="cls-3" d="m167.3,72.37c1.89,3.93.74,7.46-1.58,10.9-.57.4-1.07.48-1.65,0-.31-.45-.62-.78-.93-1.23-.17-.57.04-.95.4-1.28-.42-.51-1.13-.41-1.54-.97-.21-.77.17-1.22.72-1.69.99-.04,1.45-.74,1.96-1.3.48-.52.16-.76-.51-.78-.51.2-.58.95-1.32.67-.51-.87.08-1.48.36-2.14.19-.44.41-.87.69-1.38.43-.38.82-.47,1.32-.18.25.47-.05.84,0,1.24.28.03.32-.24.54-.43.37-.27.92-.02,1.04-.68.1-.34.22-.56.51-.78Z"/>
          <path class="cls-7" d="m137.68,110.05c-1.73.32-3.4.49-5.16.66-1.91-.8-2.35-.69-3.83.99q-3.7,2.06-6.56,2.13c3.87-3.02,8.09-4.88,12.25-7.01.3.23.76.17.81.65-.53.39-1.01.71-1.55,1.09.05.12-.27.37.12.4.49.1.92.14,1.45.21.29.26.52.34.84.12.19-.09.34-.1.56-.09.25.29.51.3.85.19.06-.06.12-.11.16-.09.16.2.2.4.07.75Z"/>
          <path class="cls-22" d="m154.37,87.48c-.27-.74-.44-1.49-.59-2.33.04-.15.06-.19.04-.31-.05-.06-.08-.11-.06-.13.65-1.82.32-3.76.88-5.67.33-.96.69-1.82,1.1-2.77.4.16.6.6,1.2.41.39-.13.86-.04,1.37.12.7.45.91.89.4,1.58-.61.83-.99,1.85-1.09,2.84-.21,2.12-1.34,3.8-2.34,5.69-.26.32-.5.49-.91.57Z"/>
          <path class="cls-3" d="m139.34,108.79c1.22-2.47,3.37-3.67,5.99-4.35.48,1.11,1.53,1.39,2.46,1.96.26.89.83,1.01,1.56.93.79-.08,1.61-.12,2,.94-.27.87-.87.86-1.52.76-.65-.1-1.28-.35-2.06-.32-.78-.26-1.49-.35-2.08-.92-.77-.74-1.37-.41-1.58.83.18.29.39.44.54.75-.14.64-.59.71-1.15.78-.96-.56-2.12-.7-2.71-1.68-.19-.32-.25-.04-.33.02-.32.23-.61.54-1.13.3Z"/>
          <path class="cls-18" d="m181.43,76.17c-.84,3.86-3.65,5.71-7.05,7.04-.5-.73-.12-1.35.26-1.84.53-.67.6-1.32.31-2.16.07-.59.4-.87.91-1.09.44-.17.9.06,1.22-.42.08-.12.11-.17.2-.28.13-.16.2-.25.35-.39.12-.09.17-.13.3-.2.88-.08,1.75.2,2.45-.63.37-.2.67-.26,1.05-.04Z"/>
          <path class="cls-24" d="m169.11,84.36c-.28.1-.49.15-.78.2-.34.05-.54-.01-.65-.37.5-1.39.97-2.67,1.5-4.04.12-.11.18-.13.31-.08.1.12.12.18.17.33.07.75.45.71.77.35.54-.61,1.27-1.08,1.51-2.02.07-.21.13-.32.25-.51.56-.57,1.06-1.08,1.51-1.63.41-.5.81-.8,1.47-.57.72.25,1.04-.34,1.43-.73.71-.72,1.16-1.69,2.07-2.24.46-.28.88-.64,1.53-.2.22.41.1.71-.14,1.08-2.08,2.4-4.6,4.21-6.71,6.58-.65.81-1.48,1.32-2.07,2.18-.84.45-1.47,1.03-2.17,1.68Z"/>
          <path class="cls-9" d="m143.68,98.08c-.58.23-1.1.39-1.7.57-.7-1.34.06-2.64.14-4.08.16-.41.31-.68.53-1.06.88-1.95,1.12-3.92,1.33-6.02.08-.33.14-.55.24-.88.69-1.3.72-2.86,2.2-3.64.57.07.83.4,1.06.88.11,1.01.52,1.34,1.43.95.36-.15.77-.22,1.24-.06.12.28.16.51.19.82-.13,1.5-1.03,2.05-2.4,2.23-.71.32-1.36.88-1.86-.14-.08-.16-.25-.27-.45-.19-.34.14-.36.47-.42.77-.12.58.42,1.23-.25,1.83-.78,1.94-1.12,3.9-1.26,5.99.07.72.31,1.34-.03,2.04Z"/>
          <path class="cls-24" d="m154.23,114.6c-.37.18-.67.3-1.05.43-.54-.44-1.15-.58-1.72-.8-.85-.33-1.38-.85-.7-1.88.13-.15.31-.15.31-.27,0-.1-.09-.09-.22.09-.82.28-1.56.19-2.36-.13.12-1.33.68-1.87,1.94-2.02.62-.07,1.22.03,1.83.14.44.08.98.34,1.23-.46.19-.34.43-.46.8-.56.77-.06,1.39.21,2.15.24,1.2-.26,2.22-.29,3.06.81-.25.55-.55,1.01-.95,1.51-.5.2-1.05.51-1.34.21-1.41-1.42-2.67,0-4.03.03.12.87.37,1.51,1.29,1.68.39.07.6.35.41.87-.05.08-.08.06-.06.06-.16-.05-.33-.04-.57.05Z"/>
          <path class="cls-29" d="m159.59,110.21c-.94-.3-1.8-.92-2.96-.42-.83-.64-1.77-.47-2.71-.66-.92-.26-1.86-.15-2.62-.89-.85-.92-1.79-.47-2.68-.41-.83.06-1.29-.13-.89-1.17.57-.57,1.22-.62,2-.61.79.17,1.5.26,2.26.54.42.2.6.54.9.73.48.31.99.71.98-.36,0-.7.39-1.05,1.14-1.18,2.22.79,3.69,2.29,4.6,4.43Z"/>
          <path class="cls-22" d="m137.93,85.1c.36-1.96,1.34-3.53,2.4-5.19.52.32.84-.24,1.34-.27.15.02.21.04.35.1.71.69.84,1.26.25,2.1-.62.9-.19,1.85.48,2.75.25.42.29.88,0,1.05-1.03.59-2.2.9-3.38.96-.83.05-1.1-.77-1.44-1.51Z"/>
          <path class="cls-19" d="m154.99,105.68c-.37.57-1.2.88-.66,1.84.09.16-.19.54-.31.81-.58-.36-1.16-.72-1.75-1.17.23-.49,0-.66-.34-.75-.69-.18-1.39-.27-2.17-.05-.66.1-1.24.15-1.92.19-1.16-.33-2.47-.33-2.44-2.03,3.3-.62,6.45-.16,9.59,1.16Z"/>
          <path class="cls-13" d="m165.24,73.43c-.31-.14-.59-.2-.95-.25-.61-.42-.14-1.03-.43-1.57-.8-.38-1.08.16-1.4.64-.36.55-.86.7-1.28.15-.41-.54-.78-.58-1.34-.3-.36.19-.77.18-1.16-.18,1.16-2.54,5.14-3.58,7.48-1.97-.25,1.34.34,2.4.92,3.54-.08.95-.44,1-1.07.32-.33-.04-.56-.1-.78-.38Z"/>
          <path class="cls-11" d="m148.36,111.91c.94.03,1.78.05,2.72.07-1.54,2.46,1.97,1.5,2,2.96.01.11,0,.09,0,.08-.1-.06-.21-.07-.33.02-.83.28-1.65.48-2.56.67-.26-.58-1.46-1.21-2.11-1.09-.72.13-.26.72-.47,1.14-.89-.06-1.71-.18-2.62-.38-.7-.84-.55-1.44.36-1.99.56-.34,1.31-.24,1.81-.9.34-.39.68-.58,1.2-.57Z"/>
          <path class="cls-7" d="m143.52,101.69c3.18-2.48,7-3.98,9.75-7.12.52-.09.84-.54,1.43-.45.23.02.35.05.56.15.12.11.16.16.15.29-.22.22-.39.36-.63.54-1.31.53-2.38,1.17-2.46,2.79-2.58,1.5-5.14,2.92-7.79,4.35-.47.05-.76-.1-1-.55Z"/>
          <path class="cls-20" d="m163.75,86.15c-.24.49-.55.91-.91,1.46-.04.17-.03.21-.03.33-.06.16-.11.24-.21.38-.08.09-.12.13-.21.22-.1.08-.14.11-.32.24-.18.12-.23.14-.36.21-.13.06-.19.08-.33.13-1.22.28-2.07,1.48-3.51.98-.68-.6-.44-1.14.01-1.74,1.77-.3,1.83-2.1,2.85-2.99.31-.27.5-.72.86-1.12.16-.31.05-.54.06-.87.17-.45.47-.5.91-.44.34.11.55.27.89.38.66.37.66.85.46,1.4-.15.44-.52.84-.19,1.42Z"/>
          <path class="cls-11" d="m150.26,84.72c-.94-.52-2.42,2.58-2.95-.47.3-.61.01-1.15.12-1.67.15-.72.29-.82,1.26-.69-1.01-.6-1.81.02-2.75.17-.29.04-.48,0-.75-.12-.55-.45-.45-1.02-.57-1.63-.1-.48-.27-.85-.17-1.34.07-.15.1-.2.21-.3.71.29,1.24.13,1.78-.41,1.72.49,1.85.74,1.01,1.83.57.46,1.27.24,1.97.41.33.95.58,1.86.82,2.86-.17.21-.2.37-.07.61.08.27.1.48.09.77Z"/>
          <path class="cls-5" d="m143.01,93.55c-.12.32-.22.52-.4.75-1.25.37-1.24,1.45-1.6,2.41-.81.4-1.25-.18-1.88-.51-.34-.36-.58-.69-.86-1.11.09-.9-.39-1.67-.1-2.56.92-.25,1.7.4,2.52.12-.67-.78-.57-1.19.39-1.54.29-.1.64.01.92-.34.26-.59.31-1.15.69-1.7.26-.24.47-.27.8-.11.6,1.62-.32,2.99-.48,4.58Z"/>
          <path class="cls-4" d="m144.64,89.68c.13-.7.16-1.34.26-1.97.07-.41.08-.96.74-.9.44.05.81.1.94.71.26,1.27.6-.37,1.01-.01.59.36.4.73.12,1.12q-.75,1.05.6,1.2c.22.04.34.08.53.19.17.15.23.26.29.48,0,.22-.01.34-.08.55-.67.24-.69.79-.9,1.26-.19.42-.33.9-.83,1.23-.73.18-1.27-.26-1.97-.3-1.04-.99-1.03-1.07,0-1.75-.31-.55-.98-.96-.7-1.81Z"/>
          <path class="cls-4" d="m158.14,76.91c-.78-.24-1.94.98-2.3-.67.42-.94.89-1.82,1.44-2.76,1.07-.47,2-.61,2.89.24.53.5,1.41.19,2.05.77.17,1.08-.32,1.9-.78,2.81-.32.18-.51.08-.65-.11-.74-1.03-1.62-.92-2.65-.28Z"/>
          <path class="cls-21" d="m162.25,74.63c-1.61-.41-3.15-.78-4.79-1.17.27-.53.65-1.02,1.11-1.57,1.06.38,2.56-1.68,3.16.59.76-.46.71-2.17,2.29-1.39.33.88-.03,1.59-.35,2.4-.19.23-.35.35-.61.46-.18.1-.41-.03-.39.31-.06.26-.16.37-.42.36Z"/>
          <path class="cls-31" d="m154.91,114.57c-.56-.93-2.25-.71-2.15-2.21.01-.16-.38-.35-.58-.52.32-.11.65-.2.96-.33,1.73-.72,3.43-.63,5.21.21-.75,1.34-2,2.15-3.44,2.86Z"/>
          <path class="cls-21" d="m142.36,91.2c-.97.5-.84.44-.48,1.24.28.61-.32.77-.87.71-.31-.03-.62-.01-.92-.08-.55-.13-1.08-.3-1.72-.5-.53-.36-.78-.83-1.15-1.31-.12-.57-.18-1.07-.21-1.66.81-.52,1.74-.52,2.52-.99.47-.28.99,0,1.25.48.41.75,1.05,1.33,1.57,2.11Z"/>
          <path class="cls-15" d="m172.4,78.2c-.09.18-.13.28-.21.45-.36.49-.58.98-.93,1.37-.45.5-.96.95-1.74.38-.04-.1-.04-.2-.05-.25-.04-.1-.07-.15-.03-.27.06-.06.07-.04.06-.05.11-.07.19-.16.25-.39.5-1.12,1.09-2.07,1.85-3.03,1.32-2.28,3.54-2.99,5.82-3.75.16,1.33-.95,2.22-1.73,2.5-1.6.58-2.25,1.9-3.3,3.04Z"/>
          <path class="cls-6" d="m164.19,96.97c1.02,1.05,1.96,2.04,2.9,3.13-.27.61.18,1.67-1.1,1.51-.3.04-.54.03-.82-.06-.18-.47-.57-.36-.94-.45-.59-.36-1.1-.74-1.68-1.19-.18-1.22-.34-2.39,1.1-3.05.22-.04.35-.02.54.11Z"/>
          <path class="cls-29" d="m137.83,85.11c1.72,1.85,3.28,1.14,4.76-.35-.12-.24-.12-.38.06-.59.46-.1.69.1.9.5.04,1.21-.17,2.27-.64,3.38-.17.24-.29.37-.46.43-1.08.41-4.17-.34-5.07-1.3.08-.71.23-1.34.44-2.07Z"/>
          <path class="cls-10" d="m164.17,93.43c.06.07.03.18.02.24-.89.17-1.52.57-1.89,1.42-.21.49-.65.81-1.31.9-.22-.03-.34-.08-.5-.24-.08-.12-.1-.17-.09-.28.64-.52.02-1.11.21-1.67.34-1.01.67-2,1.43-2.9.39-.45.76-.81,1.2-1.19,1.39.17,1.33,1.21.85,1.85-.56.75-.17,1.22.09,1.88Z"/>
          <path class="cls-16" d="m160.77,95.84c1.21-.33,1.36-1.35,1.82-2.17.31-.55.92-.3,1.48.04-.04.3-.17.57-.33.94-.05.36-.09.63-.19.97-.04.18-.06.28-.1.46-.03.23,0,.38.11.58.05.12.06.17.05.29-.33.98-.64,1.88-1.04,2.83-1.2-.51-1.39-1.68-1.92-2.73-.26-.46-.2-.8.11-1.22Z"/>
          <path class="cls-4" d="m137.3,87.2c1.69.28,3.36.68,5.13,1.09.37.19.42.45.44.82-.12.7-.26,1.32-.43,2.06-.07.11-.13.11-.15.08-1.31-1.67-2.85-2.63-5.14-1.71-.03-.75.05-1.49.16-2.33Z"/>
          <path class="cls-18" d="m172.45,78.29c.52-1.46,1.24-2.72,2.89-3.38.85-.34,1.43-1.35,2.15-2.14.85-.64,1.7-.97,2.69-.21.08.14.1.2.05.32-1.68.11-2.29,1.37-3.07,2.47-1.14,1.58-3.7.99-4.7,2.96Z"/>
          <path class="cls-34" d="m143.49,101.57c.25.18.5.36.84.62-2.19,1.39-4.46,2.7-6.83,4.03-.44-.05-.77-.14-1.05-.53,1.05-.91,2.15-1.72,3.31-2.6.3-.28.41-.57.5-.92-.03-.2-.02-.32.02-.53.09-.12.14-.15.28-.18.15.02.2.04.33.12.2.28.13.53.23.85.18.18.33.28.55.34.13-.01.18,0,.25-.06.02-.08.06-.03.04-.02.08,0,.18-.04.3-.18.04-.15.08-.2.21-.23.17,0,.27-.02.43-.13.06-.06-.02-.05-.02-.09.26.01.41-.18.6-.39.02-.08,0-.09,0-.1Z"/>
          <path class="cls-19" d="m145.21,93.06c.76-.36,1.26-.03,1.85.37.41.51-.02.9-.18,1.42-1.09,1.14-2.09,2.2-3.18,3.28-.15-.55-.21-1.12-.25-1.79.11-1.39.39-2.58,1.76-3.28Z"/>
          <path class="cls-30" d="m147.41,112.42c-.19,1.4-1.64.73-2.24,1.45-.31.36-.67.73-.28,1.34-.08.07-.18.05-.34,0-.21,0-.36-.01-.6-.13-1.14-.71-2.18-1.35-3.28-2.08.12-.32.44-.23.68-.42.01-.48-.82-.55-.61-1.13.16-.42.57-.5,1.01-.68.28-.04.47,0,.73.11.37.27.55.57.78.84.76.91,1.66,1.27,2.82.8.4-.16.81-.39,1.33-.11Z"/>
          <path class="cls-24" d="m142.63,111.16c-.31-.08-.5-.12-.79-.18-.97-.58-2.03-.18-3.03-.56-.4-.07-.7-.13-1.1-.21-.08-.21-.07-.41-.06-.75,0-.15,0-.14.01-.14.16.08.32.07.56.05.36-.2.64-.37,1-.59,1.99-1.77,2.9-.02,4.07,1.11.79.9.44,1.26-.66,1.27Z"/>
          <path class="cls-20" d="m171.02,82.67c.64-.8,1.26-1.51,1.95-2.29.86-.26,1.13-1.24,2.07-1.28,1.56,1.68-.73,2.54-.74,3.97-.01.1-.03.07-.02.07-.09.03-.18.08-.3.23-.26.17-.49.28-.79.38-.28.03-.4-.08-.49-.34-.04-.2.19-.34-.13-.41-.57-.1-1.27.93-1.56-.33Z"/>
          <path class="cls-28" d="m158.33,88.2c-.2.62-1.08,1.11-.13,1.76-.12.51-.63.6-1.08.94-.56.22-1.02,1.2-1.51-.01.05-.22.07-.35.16-.5.06-.14.04-.25-.04-.42-.03-.08-.07-.03-.09-.05-.24-.72.17-1.28.44-1.99.62-.78,1-1.61,1.82-2.23.63-.19,1.11-.08,1.26.48.21.78-.06,1.45-.82,2.01Z"/>
          <path class="cls-30" d="m148.51,90.09c-4.55.48-.52-1.6-.82-2.49.97-.46,2.21-.49,2.55-1.92-.03.78-.15,1.6-.33,2.52-.37.4-.33.86-.59,1.26-.26.27-.48.45-.81.62Z"/>
          <path class="cls-24" d="m140.88,101.61c-.12.03-.15.04-.17.02-.36-.53.1-.99,0-1.58-.07-.68-.07-1.26-.09-1.95-.19-.49,0-.86.1-1.31.45-.96-.44-2.68,1.7-2.5-.11,1.39-.32,2.75-.54,4.24-.03.23-.05.33-.11.49-.7.77-.15,1.84-.91,2.58Z"/>
          <path class="cls-4" d="m138.73,110.49c.94.1,2.12-1.2,2.94.41-.18.28-.42.5-.7.74.14.59,1.67.14,1.12,1.29-.33.7-.83.11-1.36.01-1.14-.47-1.55-1.43-1.99-2.46Z"/>
          <path class="cls-34" d="m152.39,98c-.51-.44-.79-1.08-.3-1.41.8-.54,1.08-1.97,2.53-1.5-.52.62-1.11,1.19-1.93,1.99,1-.11,1.69-.18,2.48-.23.43.06.78.04,1.19.36-1.22.36-2.55.58-3.97.79Z"/>
          <path class="cls-25" d="m166.04,101.7c.22-.51.55-.99.96-1.49,1.29.94,2.56-.86,3.87.11-1.31,1.2-2.82,1.99-4.83,1.38Z"/>
          <path class="cls-31" d="m155.56,90.85c.73,1.05.87-.25,1.37-.32.44,1.08-.32,1.82-.82,2.75-.14.27-.26.44-.46.67-.2.23-.38.32-.67.41-.55.09-1,.14-1.54.19.62-1.22,1.33-2.42,2.12-3.69Z"/>
          <path class="cls-12" d="m142.06,79.97c-.06-.07-.17-.14-.23-.17-.47-.41-.55-.83-.14-1.39.88-1.11,1.91-1.61,3.32-1.4.29.37.29.71.09,1.14-.1.14-.14.19-.28.27-.71.33-1.65.13-1.61,1.36.02.6-.63.58-1.17.19Z"/>
          <path class="cls-3" d="m162.71,87.85c.05-.08.1-.12.09-.12,1.08.08,1.49-.99,2.39-1.41.25-.04.37.04.38.3-1.57,1.36-3.09,2.61-4.69,3.89-.23.06-.35,0-.47-.22-.07-.91.64-1.05,1.21-1.47.09-.05.07-.06.07-.05.07-.04.15-.09.28-.17.06-.03.04-.04.04-.03.07-.04.15-.09.28-.17.06-.03.04-.04.04-.03.17-.1.21-.3.37-.53Z"/>
          <path class="cls-8" d="m172.89,83.02c.03.25.07.42.17.66-1.24.31-2.53.56-3.93.77.17-.98.79-1.58,1.81-1.86.49.95,1.11-.41,1.64.16.19.05.26.11.31.28Z"/>
          <path class="cls-5" d="m147.65,115.86c-.19-.68-1.41-1.74.36-1.74,1.06,0,2.11.44,3.45.74-.58.31-.94.5-1.33.76-.82.14-1.6.2-2.48.23Z"/>
          <path class="cls-11" d="m156.55,97.36c-.39-.13-.69-.26-1.14-.43,1.44-.34,3.02-.63,4.7-.96.11-.1.12-.16.19-.29.05-.07.11-.07.12-.04.1.05.19.08.36.11.02.35-.02.69-.11,1.12-1.37.23-2.7.37-4.12.5Z"/>
          <path class="cls-13" d="m160.44,90.09c.13.15.17.26.28.42-1.46,1.27-2.99,2.49-4.61,3.73-.29-.07-.55,0-.75-.27,0-.21.04-.33.11-.49,1.1-1.12,2.37-1.92,3.58-2.8.39-.29.76-.63,1.38-.57Z"/>
          <path class="cls-21" d="m149.5,80.44c-1.02.81-2.13.23-2.98-.1-.39-.15.79-.57,1.18-.95-.37-.3-.74-.6-1.2-.93-.16-.14-.17-.26-.11-.46.18-.22.35-.27.63-.22.47.28.85.54,1.26.88.05.27.15.4.38.53.33.41.58.78.84,1.25Z"/>
          <path class="cls-20" d="m180.14,73.01c.03-.14.04-.19.08-.31,1.55.66,1.37,2.03,1.29,3.45-.3.11-.56.13-.91.13-.7-.34-.46-1.09-.87-1.62-.11-.25-.12-.43-.08-.7.17-.35.32-.6.49-.95Z"/>
          <path class="cls-21" d="m163.88,86.15c-2.24-.57.73-1.65-.35-2.43-.23-.24-.24-.45-.08-.77.21-.15.36-.16.59-.02.53.18.98.28,1.52.4-.48.93-1.05,1.84-1.68,2.82Z"/>
          <path class="cls-17" d="m156.38,87.74c-.26.73-.49,1.34-.74,2.06-.49-.64-.96-1.4-1.41-2.23.21-.22.39-.36.65-.53.79-.35,1.31-.24,1.5.7Z"/>
          <path class="cls-34" d="m128.73,111.75c-.09-1.5,1.17-1.74,2.21-2.05.61-.19,1.28.11,1.43.98-1.16.32-2.53.07-3.64,1.07Z"/>
          <path class="cls-26" d="m167.18,73.45c-1.07-.79-2.08-1.71-1.01-3.33.46.63.85,1.34,1.23,2.14-.07.42-.13.75-.22,1.2Z"/>
          <path class="cls-14" d="m137.16,91.3c.72-.05,1.04.39,1.12,1.14-.17.88.97,1.6.04,2.49-1.01-.95-1.05-2.25-1.16-3.63Z"/>
          <path class="cls-33" d="m136.32,105.61c.4.13.71.27,1.06.52-.66.53-1.36.96-2.15,1.4-.08-.49-1.12.27-.79-.66.61-.46,1.2-.85,1.88-1.26Z"/>
          <path class="cls-30" d="m146.63,77.87c-.1.16-.14.27-.19.46-.24.48-.45.88-.66,1.27-.28-.29-.56-.57-.97-.97-.13-.17-.13-.22-.06-.32.15-.38.24-.73.35-1.17.15-.09.27-.08.47-.02.11.08.14.11.24.14.26.04.46.09.73.2.16.14.19.24.09.4Z"/>
          <path class="cls-27" d="m154.55,79.04c-.64,1.68,1.1,3.79-.73,5.54-.61-1.84.41-3.59.73-5.54Z"/>
          <path class="cls-20" d="m165.61,86.71c-.13-.08-.17-.19-.28-.36.69-.78,1.45-1.5,2.28-2.24.21.1.34.23.55.4-.77.76-1.62,1.47-2.55,2.2Z"/>
          <path class="cls-29" d="m146.86,94.87c.03-.36.13-.78.26-1.31,1.02-.59.07-2.42,1.77-2.45-.59,1.25-1.28,2.48-2.03,3.77Z"/>
          <path class="cls-13" d="m140.68,96.7c.07.41.06.8-.01,1.25-.57-.49-1.09-1.05-1.61-1.69.82-.91.92.56,1.63.44Z"/>
          <path class="cls-23" d="m161.98,90.85c-.41,1.44-.89,2.94-1.47,4.49-.13-1.62.05-3.22,1.47-4.49Z"/>
          <path class="cls-8" d="m171.56,76.35c-.49,1-1.07,2.03-1.68,3.16-.09.12-.15.15-.27.11.58-1.13,1.22-2.18,1.95-3.27Z"/>
          <path class="cls-19" d="m141.67,78.34c.09.39.09.81.09,1.33-.5-.38-.65,1.68-1.33.22.35-.55.75-1.04,1.24-1.55Z"/>
          <path class="cls-31" d="m140.76,101.74c.26-.9.53-1.71.89-2.58-.07,1-.25,2.06-.45,3.23-.17-.11-.3-.34-.44-.65Z"/>
          <path class="cls-31" d="m149.04,89.59c.26-.47.45-.86.73-1.27-.11.68-.31,1.38-.56,2.17-.14.07-.2.02-.26-.13-.09-.28-.1-.49.1-.78Z"/>
          <path class="cls-34" d="m155.3,93.95c.27.01.5.1.73.25-.11.12-.21.17-.41.27-.12.08-.16.13-.26.1-.15-.09-.24-.12-.41-.17.05-.14.18-.26.35-.45Z"/>
          <path class="cls-31" d="m140.61,100.08c.06.37.08.85.09,1.44-.07.11-.14.11-.29.07,0-.5.07-.95.2-1.51Z"/>
          <path class="cls-31" d="m140.2,102.12c.41.38.41.72-.28.91-.05-.12-.02-.23.07-.39.05-.13.05-.19.11-.31.06-.07.07-.16.1-.21Z"/>
          <path class="cls-8" d="m172.67,91.79c-.14-.22-.18-.46-.23-.79,0-.09.02-.07.01-.06.05-.01.1-.03.21.02-.01.33,1.07.51,0,.83Z"/>
          <path class="cls-31" d="m169.64,89.37c-.39-.02-.81-.14-1.29-.36.38.02.82.13,1.29.36Z"/>
          <path class="cls-25" d="m164.23,101.17c.22.02.52.09.86.24-.24,0-.5-.1-.86-.24Z"/>
          <path class="cls-7" d="m143.43,101.6c-.07.15-.21.32-.45.46.06-.17.22-.3.45-.46Z"/>
          <path class="cls-11" d="m148.71,79.14c-.37.35-.45.14-.42-.32.14.02.26.13.42.32Z"/>
          <path class="cls-23" d="m172.04,99.36c.06-.26.2-.57.46-.9-.05.27-.21.56-.46.9Z"/>
          <path class="cls-25" d="m172.77,91c-.1.02-.14,0-.25-.03.02-.11.11-.2.19-.29.04.1.08.19.06.32Z"/>
          <path class="cls-11" d="m146.63,77.93c-.06-.09-.05-.18-.03-.33.15-.01.28.03.46.14-.09.1-.22.15-.43.18Z"/>
          <path class="cls-15" d="m174.02,92.84c-.17-.03-.26-.11-.35-.2.11-.06.21-.13.32-.19.04.11.07.22.02.39Z"/>
          <path class="cls-31" d="m167.06,88.83c-.14.05-.37.08-.63.02.16-.07.35-.06.63-.02Z"/>
          <path class="cls-31" d="m135.99,109.2c-.14.06-.38.12-.64.08.16-.09.35-.09.64-.08Z"/>
          <path class="cls-31" d="m137.41,109.3c-.16.05-.41.08-.7.01.18-.07.39-.06.7-.01Z"/>
          <path class="cls-11" d="m143.91,115.05c.09-.01.23.01.47.08-.07.01-.24-.02-.47-.08Z"/>
          <path class="cls-24" d="m152.79,115.13c.01-.07.09-.14.22-.16.01.13-.06.17-.22.16Z"/>
          <path class="cls-9" d="m150.27,83.91c-.07-.07-.12-.24-.1-.44.09.09.11.22.1.44Z"/>
          <path class="cls-7" d="m138.22,109.31c-.09.06-.25.09-.48.06.09-.06.24-.08.48-.06Z"/>
          <path class="cls-31" d="m154.25,114.68c.07-.08.23-.14.48-.17-.07.08-.23.13-.48.17Z"/>
          <path class="cls-16" d="m160.31,95.65s.03.13-.04.25c-.07-.06-.05-.14.04-.25Z"/>
          <path class="cls-23" d="m164.61,89.09s-.08.1-.2.11c.02-.06.07-.09.2-.11Z"/>
          <path class="cls-27" d="m153.75,84.84s.08.08.08.18c-.06-.02-.08-.06-.08-.18Z"/>
          <path class="cls-31" d="m155.71,89.97s.06.12.1.3c-.02-.02-.06-.12-.1-.3Z"/>
          <path class="cls-13" d="m155.3,94.54s.12-.05.18-.04c.06,0,.04.1.04.1,0,0-.08.06-.12.05s-.09-.07-.09-.11Z"/>
          <path class="cls-25" d="m171.07,100.34c-.01-.06.04-.13.17-.22.01.06-.04.13-.17.22Z"/>
          <path class="cls-10" d="m173.3,96.84c-.06-.03-.08-.13-.07-.3.06.03.08.13.07.3Z"/>
          <path class="cls-18" d="m169.43,79.8c.07.06.07.1.05.22-.01.07-.13.05-.19.04-.02-.1.02-.18.14-.26Z"/>
          <path class="cls-18" d="m169.51,79.61c.09-.05.14-.04.26-.02,0,.08-.06.15-.21.22-.08-.04-.09-.09-.06-.2Z"/>
          <path class="cls-18" d="m174.03,83.42c-.02-.06.04-.15.19-.26.02.06-.04.15-.19.26Z"/>
          <path class="cls-7" d="m142.22,102.45c.01.07-.06.14-.2.23-.01-.06.05-.14.2-.23Z"/>
          <path class="cls-7" d="m142.88,102.07c0,.08-.1.13-.27.2,0-.06.1-.14.27-.2Z"/>
          <path class="cls-34" d="m140.12,102.3s.05.08.05.08c0,0-.04.11-.09.15-.06-.04-.05-.12.03-.23Z"/>
          <path class="cls-11" d="m145.82,77.23c-.03.12-.1.11-.17,0,0-.04.12-.04.17,0Z"/>
          <path class="cls-7" d="m141.89,102.64c.01.05-.04.11-.11.13-.03-.04.05-.12.11-.13Z"/>
          <path class="cls-10" d="m169.96,97.28c-.31-.16-.9-.44-.44-.54,1.29-.28,1.37-3.05,3.29-1.65.69.5.15.94-.55,1.01.97,3.5-1.29,1.13-2.3,1.18Z"/>
          <path class="cls-10" d="m163.12,96.32c-.02-.19,0-.3.05-.49.23-.22.44-.2.72,0,.86.17.71.58.39,1.13-.17.08-.31.07-.57.07-.11.01-.23-.03-.29-.06-.1-.21-.18-.38-.29-.63Z"/>
          <path class="cls-6" d="m163.98,95.81c-.2.06-.4.02-.68-.04.02-.33.13-.64.34-.99.18.29.27.61.35,1.03Z"/>
          <path class="cls-30" d="m164.12,82.91c-.11.08-.22.07-.41.05-.36.03-.55.3-.94.28-.35.05-.63.1-.93.25.05.25.14.41.29.65-1.57,1.1-1.39,3.77-3.79,4.15-.25-.8,1.71-1.72-.34-2.33-.34.16-.52.06-.71-.25-.1-.41-.03-.7.14-1.08.89-1.07.94-2.48,1.97-3.45.15-.07.22-.08.38-.06.6,1.17-.49,1.92-.54,2.76.6-1.43,1.24-3.02,1.83-4.74.66-.79,1.12-1.61,1.74-2.42.36-.37.63-.69.97-.97.52.94-.04,1.55-.64,2.26-.4.58-.7,1.08-1.03,1.69,0,.14.03.19.01.22-.53,1.09-.13,1.7,1.06,2,.36.34.65.62.94,1Z"/>
          <path class="cls-26" d="m162.88,76.57c-.42.88-.84,1.66-1.35,2.49-.15.07-.22.08-.37.03-.22-.35-.19-.64-.08-1.03.84-1.01.8-2.31,1.54-3.36.08-.15.11-.21.16-.37.07-.23.13-.35.3-.52.36-.85.64-1.63.94-2.53.93.4.1,1.08.19,1.79-.45,1.21-.9,2.31-1.33,3.5Z"/>
          <path class="cls-18" d="m163.27,81.88c-.71.04-1.39,0-2.07-.06.26-.62.52-1.24.83-1.95.89.32,3.13-.12,1.24,2.01Z"/>
          <path class="cls-20" d="m163.14,78.1c.15-.72.4-1.41.68-2.21.65-.7,1.25-.4,1.64.1.51.65-.3.88-.59,1.26-.4.54-.4,1.88-1.73.84Z"/>
          <path class="cls-20" d="m165.12,73.41c.3.04.52.13.78.3-.13.64-.1,1.6-.98,1.23-.65-.27-.06-.98.21-1.53Z"/>
          <path class="cls-19" d="m161.43,77.95c-.09.34-.19.6-.33.95-.05.43-.24.66-.52.93-.17.12-.28.18-.48.24-1.08.03-.16.68-.45,1.01-.59,1.22-1.13,2.37-1.77,3.53-.93-.09-.93.26-.5.9.16.2.27.32.46.48-.37.63-.83,1.23-1.37,1.85-.5-.25-.9-.51-1.39-.81,1.13-3.08,2.37-6.12,3.56-9.19.07-.18-.27-.51-.49-.83-.03-1.19.85-1,1.54-1.02.78-.02,1.37.25,1.37,1.28.15.25.32.38.4.67Z"/>
          <path class="cls-27" d="m155.27,79.08c-.03-.09-.02-.19,0-.3.02.09.03.18,0,.3Z"/>
          <path class="cls-4" d="m155.87,78.29c-.01-.09.03-.17.07-.26,0,.09-.01.17-.07.26Z"/>
          <path class="cls-31" d="m142.52,111.22c.39-.35,1.24-.21.87-1.22.37-.21.76-.33,1.22-.52.33-.34.7-.34,1.15-.39,1.74.17,3.38.41,5.13.13.17-.02.24-.02.4-.02.29.04.48.09.75.18.36.14.62.29,1.01.15.21-.02.32,0,.5.11.32.33.57.6.87.93-1.98.54-4.42-1.39-5.94,1.27-.32.25-.6.4-.95.61-2,.84-3.85,1.31-5.02-1.23Z"/>
          <path class="cls-9" d="m151.61,109.48c-.15.03-.2.04-.35.02-1.87-.12-3.65-.12-5.5-.09-.35.06-.64.05-1.01.02-.31-.12-.54-.23-.81-.41.81-1.3,2.1-.67,3.28-.76,1.36-.33,2.64,1.08,3.96-.01,1,.12,1.97.34,3.05.58.15.09.17.14.14.28-.92.24-1.78.44-2.76.37Z"/>
          <path class="cls-8" d="m147.26,108.25c-1.04.26-2.11.46-3.28.67-1.37-.79.12-1.22.16-1.85.7.11,1.4.23,2.1.34-.16.88.69.47,1.02.84Z"/>
          <path class="cls-14" d="m179.6,73.93c.12.08.18.21.21.43-.03,1.33-.96,1.92-1.89,2.62-.08.06-.08.07-.08.06-.12.1-.17.25-.31.42-.07.04-.06.02-.07.02-.33.34-.61.75-1.24.79-.39.25-.7.49-1.04.79-.68.47-1.32.88-2.04,1.27,2.08-2.12,4.24-4.23,6.47-6.4Z"/>
          <path class="cls-9" d="m177.92,77.03c.51-.83,1.11-1.66,1.79-2.54,1.01.2.58,1.02.79,1.68-.47,1.49-1.5,1.09-2.58.86Z"/>
          <path class="cls-9" d="m176.23,78.32c.27-.32.65-.61,1.12-.87.05.73-.19,1.18-1.12.87Z"/>
          <path class="cls-9" d="m177.53,77.47c0-.12.06-.26.22-.42,0,.12-.07.26-.22.42Z"/>
          <path class="cls-18" d="m169.44,80.4c1.59.52,1.57-1.35,2.62-1.67.01,1.5-1.14,2.38-2.23,2.86-1.01.44-.45-.62-.39-1.19Z"/>
          <path class="cls-12" d="m145.29,92.96c-.55,1.08-1.14,2.07-1.77,3.17-.38-2.17.46-4.26,1.1-6.46.34.38.56.84.83,1.27.19.31.65.61.62.87-.07.65-.59.16-.88.24-.96.26.06.53.1.9Z"/>
          <path class="cls-5" d="m145.89,82c.74-.87,1.67-.86,2.54-.56.36.13.57.72.8,1.13.03.05-.25.38-.41.41-.83.16-.31-.76-.81-1.01-.17.75-.33,1.46-.59,2.18-.27-.27-.44-.54-.65-.89-.25-.5-.93-.55-.88-1.26Z"/>
          <path class="cls-14" d="m144.85,80c.15.52.18,1.02.23,1.61.45.63.58,1.27.34,1.86-.38.92-.39,1.91-.72,2.95-.11.3-.16.5-.24.8-.18.17-.33.18-.57.06-.67-.96-.11-1.89-.21-2.92.16-.95.15-1.8.26-2.63.08-.64.1-1.37.92-1.72Z"/>
          <path class="cls-24" d="m144.71,86.46c.06-1.47.21-3,.38-4.64.22-.06.42-.01.72.06.38.39.67.76.94,1.22-1.34.74-1.5,2.11-2.03,3.36Z"/>
          <path class="cls-13" d="m143.8,87.26c.22-.04.34,0,.54.04-.33,2.08-.75,4.15-1.25,6.29.05-1.4.19-2.88.34-4.48-.29-.73-.17-1.28.38-1.85Z"/>
          <path class="cls-8" d="m154.24,109.17c.06-.08.1-.2.11-.26.6.59,1.89-.72,2.18.8-.68-.02-1.36-.12-2.15-.24-.14-.09-.17-.15-.14-.3Z"/>
          <path class="cls-21" d="m154.19,109.07c.1.07.09.13.08.28-.18.15-.36.2-.59.3-.18.04-.3.04-.5.04-.3.12-.52.16-.82,0-.27-.07-.46-.09-.74-.14.76-.18,1.62-.33,2.58-.46Z"/>
          <path class="cls-11" d="m151.18,111.98s.08-.04.12-.06c-.02.02-.03.03-.08.06-.04,0-.04,0-.04,0Z"/>
          <path class="cls-12" d="m149.81,106.45c1.03-1.28,2.18-.31,3.33-.01.08.02.11.26.17.4-.28.08-.55.16-.93.24-.88-.2-1.66-.4-2.56-.63Z"/>
          <path class="cls-19" d="m142.02,79.99c.35-.15,1.14.38.93-.56-.34-1.5.51-1.29,1.5-1.15.15.05.2.12.28.24.04.05.05.08.06.09-.01.06-.04.12-.1.25-.14.12-.24.16-.41.22-.32.1-.34.29-.32.59.19,1.19-.33,2.25-.12,3.37.13.68-.58.78-1.1,1.09-.11.16-.14.27-.19.46-.3-.07-.59-.23-.88-.38,1.11-.79-1.36-1.79.14-2.52.95-.46.54-1.02.19-1.69Z"/>
          <path class="cls-18" d="m162.73,83.31c.22-.2.47-.31.81-.39.03.21-.02.39-.08.66-.24,0-.46-.09-.73-.27Z"/>
          <path class="cls-18" d="m162.19,84.13c-.14-.08-.28-.24-.39-.48.15.08.28.24.39.48Z"/>
          <path class="cls-22" d="m144.05,78.81c.19-.02.32,0,.52.08.18.35.27.66.38,1.05-.93,1.34-.42,2.92-.93,4.4-.14.26-.3.31-.56.28-.27-.15-.45-.27-.71-.42,1.16-1.33.55-3.06.94-4.67-.06-.38.1-.53.35-.73Z"/>
          <path class="cls-18" d="m143.36,84.73c.18-.18.32-.23.55-.27.06.85.04,1.69,0,2.63-.14.63-.28,1.16-.45,1.8-.18.14-.32.17-.52.25-.18-.19-.3-.43-.42-.75.27-1.23.54-2.38.83-3.65Z"/>
          <path class="cls-29" d="m149.02,89.5c.05.21.01.41-.06.7-.15.06-.26.02-.45-.05.09-.24.26-.45.51-.66Z"/>
          <path class="cls-18" d="m161.52,77.96c-.22-.09-.37-.25-.5-.49.38-.95.74-1.81,1.13-2.78.14-.21.25-.32.39-.5,0-.12-.02-.17.02-.27.2-.1.33-.16.54-.2.05.12.03.22-.02.4-.06.12-.09.17-.12.3-.45,1.21-.89,2.34-1.42,3.53Z"/>
          <path class="cls-4" d="m162.58,73.89s.02.11,0,.17c-.03-.01-.04-.09,0-.17Z"/>
          <path class="cls-6" d="m163.06,96.32c.13.09.24.27.33.53-.13-.09-.24-.27-.33-.53Z"/>
          <path class="cls-18" d="m172.98,83.11c-.16-.07-.22-.14-.28-.28.33-.21.68-.64,1.04-.07-.22.12-.44.24-.75.35Z"/>
          <path class="cls-22" d="m144.78,78.5c-.09.04-.16-.02-.22-.17-.02-.06.11-.06.18-.05.06.05.05.1.04.22Z"/>
          <path class="cls-14" d="m160.42,79.74c.22-.27.37-.47.57-.71.13-.01.2,0,.37.06-.71,2.06-1.51,4.1-2.32,6.13-.16-.06-.31-.11-.47-.17.43-1.2.85-2.4,1.3-3.71-.02-.16-.07-.21-.1-.36.07-.52.33-.84.64-1.23Z"/>
          <path class="cls-12" d="m157.46,85.49c-.35.02-.66-.05-.97-.12.11-.37.12-.82.34-1.09.22-.26.71-.49.91.26-.07.35-.16.61-.29.95Z"/>
          <path class="cls-22" d="m159.98,80.96c-.06.11-.05.19-.06.23-.07.02-.12.01-.25-.02-.36-.53-.64-1.05-.92-1.56.4.08.8.15,1.29.24.26.36.07.67-.06,1.11Z"/>
          <path class="cls-18" d="m160.91,83.09c.11-.04.21-.01.3.02,0,0-.02.07-.03.11-.1-.02-.19-.05-.27-.13Z"/>
          <path class="cls-21" d="m162.98,74.44s-.03-.1.02-.21c.03.03.02.08-.02.21Z"/>
          <path class="cls-30" d="m160,81c-.03-.25.03-.57.11-1.01.1-.17.17-.23.32-.3-.07.4-.21.82-.43,1.31Z"/>
          <path class="cls-21" d="m145.81,109.5c1.65-.81,3.46-.35,5.32-.1-1.7.09-3.45.1-5.32.1Z"/>
          <path class="cls-9" d="m152.3,109.72c.2-.09.42-.09.72-.07-.12.42-.37.58-.72.07Z"/>
          <path class="cls-12" d="m144.04,78.75c-.02.2-.12.38-.27.62-.75-.45-.26-.54.27-.62Z"/>
        </g>
        <g>
          <path class="cls-32" d="m57.61,86.44c0,.31-.34.42-.75.42-.06,0-.13-.01-.19-.01-1.38-.08-2.4-.53-2.53-2.38-.01-.12-.01-.25-.01-.38,0-1.47.6-3.11,2.39-3.75.1-.04.15-.07.15-.09,0,0-.01,0-.04,0-.02,0-.06,0-.11,0-1.69.31-2.75.83-3.47,1.15-.42.18-.64.38-.96.39h-.03c-.35,0-.89-.4-1-.88-.01-.04-.01-.07-.01-.09,0-.06.02-.08.05-.08.04,0,.08.02.14.06.13.09.3.12.48.12.23,0,.48-.05.71-.1.79-.16,2.63-.63,4.51-1.03.49-.11.56-.19.82-.2.07,0,.13,0,.19,0,.49,0,.67.18.76.47.01.05.02.09.02.12,0,.33-.54.24-.93.27-2.13.15-3.23,1.28-3.23,3.19,0,.21.01.43.04.66.1.86.65,1.72,1.92,1.72h.24c.56,0,.84.1.84.42h0Zm.43-3.65c-.11-.34-.38-.76-.85-1.1-.06-.04-.09-.08-.09-.11,0-.02.03-.04.07-.04.03,0,.07,0,.11.02.54.16,1.03.51,1.21.89.05.1.07.19.07.27,0,.21-.12.36-.25.36-.1,0-.2-.09-.27-.29Zm.89-.64c-.16-.36-.45-.7-.91-1-.07-.04-.1-.08-.1-.1,0-.02.02-.03.06-.03.03,0,.06,0,.09,0,.62.14,1.07.41,1.27.74.07.12.1.23.1.33,0,.17-.11.29-.23.29-.1,0-.21-.07-.28-.24Z"/>
          <path class="cls-32" d="m67.9,81.12c.16,0,.32.09.32.27,0,.07-.02.16-.09.26-.23.36-1.14.67-1.69.83.38.56.82,1.04,1.23,1.38.31.25.46.66.46.99,0,.21-.06.39-.19.48-.04.03-.09.04-.15.04-.28,0-.71-.33-.94-.5-.55-.39-1.29-.58-1.98-.58-.9,0-1.7.32-1.88.93-.02.06-.02.12-.02.17,0,.55.7,1.13,2.05,1.13.24,0,.5-.02.78-.06.15-.02.31-.04.46-.04.26,0,.48.06.53.26.01.03.01.06.01.09,0,.24-.29.41-.6.45-.33.05-.63.07-.92.07-1.71,0-2.67-.77-2.67-1.72,0-.14.02-.3.07-.45.22-.72,1.08-1.09,2.19-1.09.66,0,1.42.13,2.18.41.07.03.13.04.17.04s.07-.02.07-.05-.03-.08-.09-.14c-.37-.4-.8-1.01-1.24-1.68-.75.19-1.38.28-1.9.28-1.02,0-1.59-.32-1.72-.8-.01-.04-.02-.07-.02-.11v-.07c0-.06,0-.08.03-.08.03,0,.07.04.12.1.19.29.74.43,1.44.43.53,0,1.14-.08,1.76-.23-.21-.34-.42-.69-.61-1.03-.33.08-.69.15-1.04.15-.47,0-.9-.13-1.19-.54-.04-.06-.06-.11-.06-.14,0-.02,0-.03.03-.03.03,0,.08.02.14.06.25.14.53.2.84.2s.65-.06,1.03-.15c-.2-.35-.38-.67-.51-.93-.18-.35-.47-.49-.82-.5-.1,0-.17,0-.17-.05,0-.02.02-.05.07-.09.18-.16.5-.24.8-.24.27,0,.53.07.64.21.16.21.04.42.21.8.09.2.19.43.31.66.43-.13.79-.3,1.16-.5.13-.07.25-.1.35-.1.2,0,.33.12.33.25,0,.12-.09.25-.29.34-.51.22-.85.35-1.32.48.17.33.36.68.57,1.02.39-.13.78-.3.95-.46.04-.04.07-.07.07-.11s-.02-.08-.07-.12c-.16-.13-.4-.27-.55-.37-.04-.03-.06-.06-.06-.08,0-.02.02-.03.05-.03.02,0,.04,0,.07,0,.62.21.96.28,1.21.28h.09Z"/>
          <path class="cls-32" d="m77.06,80.11s0,.04,0,.07c-.09.25-.45.3-.82.58-1.2.91-1.99,2.01-2.8,2.77-.04.03-.05.05-.05.07,0,.02.01.03.04.03.02,0,.05,0,.07-.02.91-.51,1.77-.72,2.5-.72,1.37,0,2.3.78,2.3,1.86,0,.06,0,.12,0,.18-.14,1.37-1.63,1.98-2.92,1.98-1.01,0-1.91-.38-1.91-1.08,0-.06,0-.11.02-.17.08-.44.52-.68,1.02-.68.63,0,1.37.38,1.59,1.23.71-.2,1.31-.6,1.43-1.34,0-.09.02-.17.02-.25,0-.9-.73-1.42-1.73-1.42-.67,0-1.47.23-2.24.76-.66.45-.68,1.16-1.25,1.16-.04,0-.08,0-.13-.01-.19-.03-.28-.17-.28-.35,0-.23.13-.51.37-.74.84-.83,2.45-2.37,3.63-3.9.08-.11.12-.2.12-.26,0-.07-.04-.1-.12-.1-.06,0-.14.02-.23.06-1.38.59-1.47.82-1.93.97-.05.02-.1.02-.15.02-.35,0-.7-.36-.7-.81v-.04c.01-.1.03-.14.06-.14s.07.03.12.07c.12.11.26.14.42.14.14,0,.29-.03.44-.06.36-.08.98-.26,1.37-.38.31-.09.5-.23.77-.26h.08c.48,0,.91.47.91.77h0Zm-2.7,5.11c-.3,0-.55.14-.6.4,0,.03,0,.06,0,.08,0,.41.62.64,1.34.64.13,0,.27,0,.41-.02-.11-.76-.68-1.1-1.14-1.1Z"/>
          <path class="cls-32" d="m87.89,86.56c-.51.07-1.14.11-1.78.11-1.13,0-2.3-.13-2.94-.46-.61-.32-.96-.84-.96-1.42,0-.41.18-.85.57-1.28.07-.08.13-.12.17-.12.03,0,.05.02.05.05,0,.04-.02.09-.06.15-.22.32-.31.62-.31.9,0,.52.34.92.82,1.16.46.22,1.28.3,2.12.3.78,0,1.57-.06,2.1-.15.08,0,.16-.02.23-.02.37,0,.58.18.58.36s-.18.36-.59.42Zm-1.15-6.72c.61,0,.92.23.92.45,0,.03,0,.07-.02.1-.13.3-.54.26-.84.32-.37.08-.85.35-1.73.79-.03.02-.06.03-.08.03-.03,0-.04,0-.04-.03s.02-.06.07-.1c.29-.25.54-.52.73-.71.06-.05.09-.09.09-.12s-.04-.05-.13-.05h-.04c-.34,0-.64.02-.89.02-1.11,0-1.44-.14-1.74-.47-.05-.07-.08-.11-.08-.14s.02-.04.05-.04.07.01.12.03c.25.1.58.13.94.13.85,0,1.9-.2,2.57-.21h.1Z"/>
          <path class="cls-32" d="m94.62,79.61c-.05.35-.19.28-.22.74-.03.39-.07.77-.07,1.11,0,.44.08.8.37,1,.84-.4,1.38-.6,1.89-.82.11-.05.27-.12.27-.25,0-.04,0-.08-.04-.12-.04-.07-.06-.12-.06-.15,0-.05.05-.06.16-.06.55,0,1.01.53,1.01.85,0,.06-.02.11-.05.15-.13.15-.35.05-.8.17-2.1.53-4.36,1.36-4.36,2.74,0,.08,0,.16.02.24.12.66,1.17.86,2.3.86.71,0,1.45-.08,2.01-.17.12-.02.23-.03.33-.03.43,0,.63.17.63.35,0,.19-.22.4-.63.44-.32.03-1.02.11-1.8.11-1.34,0-2.91-.24-3.14-1.36-.03-.13-.04-.25-.04-.38,0-.99.86-1.73,1.95-2.39-.54-.26-.62-.83-.62-1.44,0-.23,0-.47,0-.7,0-.17,0-.33-.02-.48-.05-.48-.07-.73-.48-.91-.04-.02-.07-.04-.1-.05-.06-.04-.1-.08-.1-.11s.05-.06.15-.08c.07-.02.14-.02.22-.02.54,0,1.21.37,1.21.72v.04Z"/>
        </g>
        <line class="cls-1" x1="60" y1="121.86" x2="90" y2="121.86"/>
      </g>
    </g>
  </g>
</svg>