<?xml version="1.0" encoding="UTF-8"?>
<svg id="_レイヤー_2" data-name="レイヤー 2" xmlns="http://www.w3.org/2000/svg" viewBox="0 0 187.06 60.64">
  <defs>
    <style>
      .cls-1 {
        fill: none;
        stroke: #4a597b;
        stroke-dasharray: 0 0 0 10.92;
        stroke-linecap: round;
        stroke-miterlimit: 10;
        stroke-width: 2.06px;
      }

      .cls-2 {
        opacity: .7;
      }

      .cls-3 {
        fill: #4a597b;
      }

      .cls-3, .cls-4 {
        stroke-width: 0px;
      }

      .cls-4 {
        fill: #fff;
      }
    </style>
  </defs>
  <g id="Top">
    <g id="WORKS">
      <g>
        <g>
          <rect class="cls-4" x="1.03" y="1.03" width="185" height="58.58" rx="29.29" ry="29.29"/>
          <path class="cls-1" d="m156.74,59.61H30.32C14.14,59.61,1.03,46.5,1.03,30.32S14.14,1.03,30.32,1.03h126.42c16.18,0,29.29,13.11,29.29,29.29s-13.11,29.29-29.29,29.29Z"/>
        </g>
        <g>
          <g>
            <path class="cls-3" d="m24.42,24.12c-.18-.44-.58-.72-1.34-.82-.08-.02-.14-.02-.14-.16,0-.1.04-.16.14-.16h4.66c.1,0,.16.06.16.12,0,.14-.12.18-.24.2-.96.18-1.5.46-1.5.82,0,.06.02.12.04.18l4.72,11.16,4.2-10.36c.1-.26.16-.5.16-.7,0-.5-.36-.86-1.4-1.12-.1-.02-.16-.02-.16-.18,0-.1.08-.12.24-.12h3.82c.16,0,.24.02.24.12,0,.12-.02.16-.16.2-1.04.34-1.48.78-1.88,1.78l-5.02,12.4c-.14.34-.2.58-.36.58-.2,0-.32-.26-.46-.58l-5.72-13.36Z"/>
            <path class="cls-3" d="m39.1,37.82c-.1,0-.16-.04-.16-.14s.06-.16.14-.16c1.12-.12,1.22-.62,1.22-1.24v-7.22c0-.56,0-.58-.94-.58h-.2c-.14,0-.22-.08-.22-.16s.06-.14.16-.16c.92-.16,1.82-.42,2.44-.66h.04c.06,0,.12.08.12.2v8.58c0,.62.02,1.16,1.14,1.24.08,0,.14.06.14.16s-.06.14-.16.14h-3.72Zm.66-13.94c0-.58.52-1.14,1.1-1.14s1.1.56,1.1,1.14-.5,1.16-1.1,1.16-1.1-.58-1.1-1.16Z"/>
            <path class="cls-3" d="m46.82,33.3c.28,2.56,1.92,3.86,3.8,3.86,1.42,0,2.46-.52,3.24-1.52.04-.06.1-.08.16-.08s.1,0,.14.04.1.1.1.16c0,.02-.02.04-.02.06-.68,1.4-2,2.18-3.86,2.18-3.06,0-4.98-2.1-4.98-5.26s1.98-5.24,4.76-5.24c2.24,0,4.28,1.68,4.28,4.66,0,.38-.04.48-.24.5l-7.38.64Zm6.14-1.36c.08,0,.1-.04.1-.2,0-1.7-.86-3.66-3.14-3.66-1.84,0-3.14,1.48-3.14,4.16v.4l6.18-.7Z"/>
            <path class="cls-3" d="m63.48,30.1l-2.5,7.8c-.08.1-.2.1-.24.1-.06,0-.14,0-.14-.06v-.04l-3.72-9.28c-.12-.32-.52-.58-1.06-.66-.08-.02-.12-.06-.12-.14,0-.1.04-.14.14-.14h3.62c.12,0,.18.04.18.12s-.1.12-.16.14c-.6.1-1.12.4-1.12.72,0,.02,0,.06.02.1l2.72,6.76,1.98-6.14c.02-.08.04-.16.04-.22,0-.58-.7-1.12-1.42-1.2-.08-.02-.12-.06-.12-.14s.04-.14.14-.14h3.62c.12,0,.18.02.18.1s-.02.14-.12.16c-.52.12-1.12.38-1.12.7,0,.04,0,.08.02.12l2.68,6.76,2.06-6.36s.02-.08.02-.12c0-.46-.46-.92-1.16-1.14-.1-.04-.12-.06-.12-.08v-.02c0-.08.02-.12.14-.12h3c.12,0,.14.02.14.1,0,.02-.02.1-.1.12-.68.16-1.12.72-1.28,1.22l-2.82,8.78c-.04.1-.14.1-.18.1-.08,0-.2-.06-.22-.1l-2.98-7.8Z"/>
            <path class="cls-3" d="m91.81,37.84c-.14,0-.16-.02-.16-.1v-.04c0-.1.02-.14.14-.16.98-.08,1.02-.52,1.02-1.06v-5.26c0-2.04-.68-2.84-1.68-2.84-1.16,0-2.04.62-2.62,1.62,0,.4.04.8.04,1.28v5.02c0,.62.04,1.1,1.08,1.24.04.02.14.06.14.16s-.06.14-.16.14h-3.48c-.1,0-.16-.04-.16-.14s.06-.16.14-.16c1.08-.08,1.1-.62,1.1-1.24v-5.08c0-2.04-.7-2.84-1.7-2.84-1.08,0-1.98.58-2.56,1.52v6.4c0,.62.08,1.12,1,1.24.12.02.22.06.22.16s-.06.14-.16.14h-3.6c-.14,0-.16-.02-.16-.1v-.04c0-.1.02-.14.14-.16,1.12-.08,1.18-.62,1.18-1.24v-7.24c0-.56-.08-.58-.96-.58h-.18c-.14,0-.22-.08-.22-.18,0-.08.06-.16.16-.18.68-.12,1.64-.38,2.42-.58h.02c.1,0,.14.08.14.2v1.36c.62-1.02,1.64-1.58,2.7-1.58,1.56,0,2.32.6,2.7,1.92.68-1.22,1.78-1.92,2.94-1.92,2.16,0,2.9,1.24,2.9,3.76v5.02c0,.62.16,1.12,1.18,1.24.04.02.14.06.14.16s-.06.14-.16.14h-3.54Z"/>
            <path class="cls-3" d="m97.86,32.76c0-3.28,2.22-5.26,5.04-5.26s5.06,1.98,5.06,5.26-2.22,5.24-5.06,5.24-5.04-1.96-5.04-5.24Zm8.56.54c0-3.38-1.72-5.14-3.76-5.14s-3.26,1.34-3.26,3.96c0,2.94,1.22,5.22,3.8,5.22,1.94,0,3.22-1.5,3.22-4.04Z"/>
            <path class="cls-3" d="m110.64,37.82c-.14,0-.16-.02-.16-.1v-.04c0-.1.02-.14.14-.16,1.12-.08,1.18-.62,1.18-1.24v-7.18c0-.6-.24-.66-1.14-.66-.14,0-.18-.08-.18-.16s.04-.16.12-.18c.82-.16,1.82-.42,2.38-.58h.06c.1,0,.1.08.1.2v1.54c.8-1,1.88-1.76,3.32-1.76,1.16,0,2,.74,2,1.58,0,.68-.24.94-.64.94-1.66,0-.18-1.78-1.96-1.78-1.28,0-2.72,1.42-2.72,2.42v5.62c0,.62.08,1.16,1.18,1.24.08,0,.14.06.14.16s-.06.14-.16.14h-3.66Z"/>
            <path class="cls-3" d="m121.86,33.3c.28,2.56,1.92,3.86,3.8,3.86,1.42,0,2.46-.52,3.24-1.52.04-.06.1-.08.16-.08s.1,0,.14.04.1.1.1.16c0,.02-.02.04-.02.06-.68,1.4-2,2.18-3.86,2.18-3.06,0-4.98-2.1-4.98-5.26s1.98-5.24,4.76-5.24c2.24,0,4.28,1.68,4.28,4.66,0,.38-.04.48-.24.5l-7.38.64Zm6.14-1.36c.08,0,.1-.04.1-.2,0-1.7-.86-3.66-3.14-3.66-1.84,0-3.14,1.48-3.14,4.16v.4l6.18-.7Z"/>
          </g>
          <g class="cls-2">
            <path class="cls-3" d="m148.15,31.53c-.57,3.32,1.44,6.43,4.48,6.95s5.97-1.74,6.54-5.06c.57-3.32-1.44-6.43-4.48-6.95s-5.97,1.74-6.54,5.06Zm1.85,4.08c-.07-.11-.13-.21-.19-.32-.03-.05.05-.1.1-.06.47.4,1.05.68,1.69.79,2.07.35,4.06-1.19,4.45-3.44s-.98-4.37-3.05-4.73c-.19-.03-.39-.05-.58-.05-.09,0-.12-.11-.04-.14.69-.27,1.42-.36,2.14-.23,1.13.19,2.12.87,2.79,1.92.72,1.12.99,2.5.75,3.89s-.95,2.6-2,3.42c-.98.76-2.14,1.07-3.27.88-1.13-.19-2.12-.87-2.79-1.92Z"/>
            <path class="cls-3" d="m136.51,31.53c-.57,3.32,1.44,6.43,4.48,6.95,3.04.52,5.97-1.74,6.54-5.06.57-3.32-1.44-6.43-4.48-6.95s-5.97,1.74-6.54,5.06Zm1.85,4.08c-.07-.11-.13-.21-.19-.32-.03-.05.05-.1.1-.06.47.4,1.05.68,1.69.79,2.07.35,4.06-1.19,4.45-3.44.39-2.26-.98-4.37-3.05-4.73-.19-.03-.39-.05-.58-.05-.09,0-.12-.11-.04-.14.69-.27,1.42-.36,2.14-.23,1.13.19,2.12.87,2.79,1.92.72,1.12.99,2.5.75,3.89s-.95,2.6-2,3.42c-.98.76-2.14,1.07-3.27.88s-2.12-.87-2.79-1.92Z"/>
            <path class="cls-3" d="m155.08,23.01s.02,0,.03,0c.36-.01.65-.32.63-.68l-.16-4.13c-.01-.36-.32-.65-.68-.63-.36.01-.65.32-.63.68l.16,4.13c.01.36.31.63.66.63Z"/>
            <path class="cls-3" d="m158.46,24.4c.21,0,.41-.1.54-.28l2.99-4.2c.21-.3.14-.71-.16-.92-.3-.21-.71-.14-.92.16l-2.99,4.2c-.21.3-.14.71.16.92.12.08.25.12.38.12Z"/>
            <path class="cls-3" d="m161.32,26.59c.08,0,.16-.01.24-.04l4.13-1.59c.34-.13.51-.51.38-.85-.13-.34-.51-.51-.85-.38l-4.13,1.59c-.34.13-.51.51-.38.85.1.26.35.42.62.42Z"/>
          </g>
        </g>
      </g>
    </g>
  </g>
</svg>