<?xml version="1.0" encoding="UTF-8"?>
<svg id="_レイヤー_2" data-name="レイヤー 2" xmlns="http://www.w3.org/2000/svg" viewBox="0 0 440 440">
  <defs>
    <style>
      .cls-1 {
        fill: #fff;
        opacity: .7;
      }

      .cls-1, .cls-2, .cls-3, .cls-4, .cls-5, .cls-6, .cls-7, .cls-8, .cls-9, .cls-10, .cls-11, .cls-12, .cls-13, .cls-14, .cls-15, .cls-16, .cls-17, .cls-18, .cls-19, .cls-20, .cls-21, .cls-22, .cls-23, .cls-24, .cls-25, .cls-26, .cls-27, .cls-28, .cls-29, .cls-30, .cls-31, .cls-32, .cls-33 {
        stroke-width: 0px;
      }

      .cls-34 {
        fill: none;
        stroke: #666;
        stroke-dasharray: 0 0 0 7;
        stroke-linecap: round;
        stroke-miterlimit: 10;
        stroke-width: 3px;
      }

      .cls-35 {
        opacity: .5;
      }

      .cls-2 {
        fill: #5f8067;
      }

      .cls-3 {
        fill: #618078;
      }

      .cls-4 {
        fill: #74805f;
      }

      .cls-5 {
        fill: #5e6780;
      }

      .cls-6 {
        fill: #614a3b;
      }

      .cls-7 {
        fill: #788080;
      }

      .cls-8 {
        fill: #4f7556;
      }

      .cls-9 {
        fill: #4a597b;
      }

      .cls-10 {
        fill: #637f4b;
      }

      .cls-11 {
        fill: #638080;
      }

      .cls-12 {
        fill: #808e80;
      }

      .cls-13 {
        fill: gray;
      }

      .cls-14 {
        fill: #808090;
      }

      .cls-15 {
        fill: #527a65;
      }

      .cls-16 {
        fill: #468080;
      }

      .cls-17 {
        fill: #6d8070;
      }

      .cls-18 {
        fill: #808069;
      }

      .cls-19 {
        fill: #2e6e60;
      }

      .cls-20 {
        fill: #2f384e;
      }

      .cls-21 {
        fill: #396144;
      }

      .cls-22 {
        fill: #3a4768;
      }

      .cls-23 {
        fill: #2e6150;
      }

      .cls-24 {
        fill: #2f5249;
      }

      .cls-25 {
        fill: #3f7a6e;
      }

      .cls-26 {
        fill: #3f6d55;
      }

      .cls-27 {
        fill: #254438;
      }

      .cls-28 {
        fill: #85a080;
      }

      .cls-29 {
        fill: #666;
      }

      .cls-30 {
        fill: #806d5e;
      }

      .cls-31 {
        fill: #805f4f;
      }

      .cls-32 {
        fill: #808480;
      }

      .cls-33 {
        fill: #808578;
      }
    </style>
  </defs>
  <g id="Top">
    <g id="_スキル" data-name="スキル">
      <circle class="cls-1" cx="220" cy="220" r="220"/>
      <g>
        <path class="cls-29" d="m136.52,317.67c2.76,6.68,5.88,8.72,10.36,8.72,5.48,0,8-2.04,8-5.36,0-4.16-1.96-5.88-9.76-8.76-6.36-2.32-8.88-4.68-8.88-8,0-4,3.44-7.08,10.16-7.08,2.68,0,5.84,1.08,6.56,1.08.6,0,1.48-.2,1.84-.32.16-.04.28-.08.36-.08.16,0,.24.08.28.32.28,2.92.64,5.76,1,7.72,0,0,.04.04.04.08s-.08.12-.2.16c-.12,0-.2,0-.28-.04s-.16-.12-.2-.2c-1.76-4.96-5.48-7.4-9.32-7.4-5.12,0-7.48,1.72-7.48,4.28,0,3.36,1.84,4.96,8.64,7.28,7.08,2.4,10.2,5.4,10.2,9.76,0,4.88-3.52,8-11.12,8-2.8,0-6.44-.76-9.16-2.04-.2-.12-.56-.28-.6-.6-.12-1.56-.64-5.16-1.16-7.28,0-.04-.04-.08-.04-.12,0-.16.12-.24.32-.32.2,0,.36,0,.44.2Z"/>
        <path class="cls-29" d="m181.08,327.34c-.2,0-.28-.04-.28-.32,0-.16.08-.24.44-.32,1.44-.24,2.16-.52,2.16-1.12,0-.24-.12-.52-.4-.88l-11.04-13.4-1.84,1.6v11.84c0,1.04.64,1.8,3,2,.24.04.28.12.28.32v.08c0,.16-.04.2-.32.2h-8.76c-.2,0-.32-.08-.32-.28s.2-.28.28-.32c2.24-.24,2.88-.96,2.88-2v-24.48c0-1.08-.64-1.76-2.88-2-.08-.04-.28-.12-.28-.32s.12-.28.32-.28h8.76c.28,0,.32.04.32.2v.08c0,.2-.04.28-.28.32-2.36.2-3,.96-3,2v10.84l10.76-9.68c.68-.6,1-1.12,1-1.6,0-.68-.64-1.2-2.04-1.56-.2-.04-.32-.2-.32-.36,0-.2.12-.24.32-.24h8.4c.2,0,.36.04.36.24,0,.16-.12.24-.36.36-1.88.68-3.2,1.24-4.64,2.56l-9.52,8.6,12.76,15.16c.84,1,2.2,1.92,3.6,2.16.2.04.24.16.24.28,0,.24-.08.32-.28.32h-9.32Z"/>
        <path class="cls-29" d="m193.64,327.34c-.2,0-.32-.08-.32-.28s.04-.28.28-.32c1.92-.4,3.32-.76,3.32-1.84v-24.8c0-1.08-1.4-1.44-3.32-1.84-.24-.04-.28.04-.28-.32v-.08c0-.16.04-.2.32-.2h9.52c.2,0,.32.08.32.28,0,.36-.2.28-.28.32-1.92.4-3.32.76-3.32,1.84v24.8c0,1.08,1.4,1.44,3.32,1.84.08.04.28.12.28.32s-.12.28-.32.28h-9.52Z"/>
        <path class="cls-29" d="m229.76,327.55c-3.2-.04-8.24-.2-10.44-.2h-10.32c-.2,0-.32-.08-.32-.28s.2-.28.28-.32c2.24-.24,3-.92,3-2v-24.32c0-1.24-.4-1.72-3-2.16-.16-.04-.28.04-.28-.32,0-.2.12-.28.32-.28h8.88c.2,0,.32.08.32.28,0,.36-.12.28-.28.32-2.48.36-3,.92-3,2.16v24.24c0,.76.4,1.28.92,1.4.44.12,1.48.16,2.68.16,2.08,0,4.76-.16,6.12-.48,2.76-.64,5.04-4.88,6.16-7.72.04-.12.12-.2.28-.2.08,0,.2.04.32.08.2.08.24.2.24.32v.12c-.68,2.64-1.36,6.92-1.52,8.6-.04.52-.04.6-.32.6h-.04Z"/>
        <path class="cls-29" d="m257.4,327.55c-3.2-.04-8.24-.2-10.44-.2h-10.32c-.2,0-.32-.08-.32-.28s.2-.28.28-.32c2.24-.24,3-.92,3-2v-24.32c0-1.24-.4-1.72-3-2.16-.16-.04-.28.04-.28-.32,0-.2.12-.28.32-.28h8.88c.2,0,.32.08.32.28,0,.36-.12.28-.28.32-2.48.36-3,.92-3,2.16v24.24c0,.76.4,1.28.92,1.4.44.12,1.48.16,2.68.16,2.08,0,4.76-.16,6.12-.48,2.76-.64,5.04-4.88,6.16-7.72.04-.12.12-.2.28-.2.08,0,.2.04.32.08.2.08.24.2.24.32v.12c-.68,2.64-1.36,6.92-1.52,8.6-.04.52-.04.6-.32.6h-.04Z"/>
        <path class="cls-29" d="m265.32,317.67c2.76,6.68,5.88,8.72,10.36,8.72,5.48,0,8-2.04,8-5.36,0-4.16-1.96-5.88-9.76-8.76-6.36-2.32-8.88-4.68-8.88-8,0-4,3.44-7.08,10.16-7.08,2.68,0,5.84,1.08,6.56,1.08.6,0,1.48-.2,1.84-.32.16-.04.28-.08.36-.08.16,0,.24.08.28.32.28,2.92.64,5.76,1,7.72,0,0,.04.04.04.08s-.08.12-.2.16c-.12,0-.2,0-.28-.04s-.16-.12-.2-.2c-1.76-4.96-5.48-7.4-9.32-7.4-5.12,0-7.48,1.72-7.48,4.28,0,3.36,1.84,4.96,8.64,7.28,7.08,2.4,10.2,5.4,10.2,9.76,0,4.88-3.52,8-11.12,8-2.8,0-6.44-.76-9.16-2.04-.2-.12-.56-.28-.6-.6-.12-1.56-.64-5.16-1.16-7.28,0-.04-.04-.08-.04-.12,0-.16.12-.24.32-.32.2,0,.36,0,.44.2Z"/>
      </g>
      <line class="cls-34" x1="197.24" y1="354.49" x2="227.24" y2="354.49"/>
      <g>
        <path class="cls-29" d="m183.77,278.01c0,.43-.48.59-1.05.59-.08,0-.18-.01-.27-.01-1.93-.11-3.36-.74-3.54-3.33-.01-.17-.01-.35-.01-.53,0-2.06.84-4.36,3.35-5.25.14-.06.21-.1.21-.13,0-.01-.01-.01-.06-.01-.03,0-.08,0-.15.01-2.37.43-3.85,1.16-4.86,1.61-.59.25-.9.53-1.34.55h-.04c-.49,0-1.25-.56-1.4-1.23-.01-.06-.01-.1-.01-.13,0-.08.03-.11.07-.11.06,0,.11.03.2.08.18.13.42.17.67.17.32,0,.67-.07.99-.14,1.11-.22,3.68-.88,6.32-1.44.69-.15.78-.27,1.15-.28.1-.01.18-.01.27-.01.69,0,.94.25,1.06.66.01.07.03.13.03.17,0,.46-.76.34-1.3.38-2.98.21-4.52,1.79-4.52,4.47,0,.29.01.6.06.92.14,1.2.91,2.41,2.69,2.41h.34c.78,0,1.18.14,1.18.59h0Zm.6-5.11c-.15-.48-.53-1.06-1.19-1.54-.08-.06-.13-.11-.13-.15,0-.03.04-.06.1-.06.04,0,.1.01.15.03.76.22,1.44.71,1.69,1.25.07.14.1.27.1.38,0,.29-.17.5-.35.5-.14,0-.28-.13-.38-.41Zm1.25-.9c-.22-.5-.63-.98-1.27-1.4-.1-.06-.14-.11-.14-.14s.03-.04.08-.04c.04,0,.08,0,.13.01.87.2,1.5.57,1.78,1.04.1.17.14.32.14.46,0,.24-.15.41-.32.41-.14,0-.29-.1-.39-.34Z"/>
        <path class="cls-29" d="m198.17,270.54c.22,0,.45.13.45.38,0,.1-.03.22-.13.36-.32.5-1.6.94-2.37,1.16.53.78,1.15,1.46,1.72,1.93.43.35.64.92.64,1.39,0,.29-.08.55-.27.67-.06.04-.13.06-.21.06-.39,0-.99-.46-1.32-.7-.77-.55-1.81-.81-2.77-.81-1.26,0-2.38.45-2.63,1.3-.03.08-.03.17-.03.24,0,.77.98,1.58,2.87,1.58.34,0,.7-.03,1.09-.08.21-.03.43-.06.64-.06.36,0,.67.08.74.36.01.04.01.08.01.13,0,.34-.41.57-.84.63-.46.07-.88.1-1.29.1-2.4,0-3.74-1.08-3.74-2.41,0-.2.03-.42.1-.63.31-1.01,1.51-1.53,3.07-1.53.92,0,1.99.18,3.05.58.1.04.18.06.24.06s.1-.03.1-.07-.04-.11-.13-.2c-.52-.56-1.12-1.41-1.74-2.35-1.05.27-1.93.39-2.66.39-1.43,0-2.23-.45-2.41-1.12-.01-.06-.03-.1-.03-.15v-.1c0-.08.01-.11.04-.11.04,0,.1.06.17.14.27.41,1.04.6,2.02.6.74,0,1.6-.11,2.47-.32-.29-.48-.59-.97-.85-1.44-.46.11-.97.21-1.46.21-.66,0-1.26-.18-1.67-.76-.06-.08-.08-.15-.08-.2,0-.03.01-.04.04-.04.04,0,.11.03.2.08.35.2.74.28,1.18.28s.91-.08,1.44-.21c-.28-.49-.53-.94-.71-1.3-.25-.49-.66-.69-1.15-.7-.14,0-.24-.01-.24-.07,0-.03.03-.07.1-.13.25-.22.7-.34,1.12-.34.38,0,.74.1.9.29.22.29.06.59.29,1.12.13.28.27.6.43.92.6-.18,1.11-.42,1.62-.7.18-.1.35-.14.49-.14.28,0,.46.17.46.35,0,.17-.13.35-.41.48-.71.31-1.19.49-1.85.67.24.46.5.95.8,1.43.55-.18,1.09-.42,1.33-.64.06-.06.1-.1.1-.15s-.03-.11-.1-.17c-.22-.18-.56-.38-.77-.52-.06-.04-.08-.08-.08-.11s.03-.04.07-.04c.03,0,.06,0,.1.01.87.29,1.34.39,1.69.39h.13Z"/>
        <path class="cls-29" d="m211,269.13s0,.06-.01.1c-.13.35-.63.42-1.15.81-1.68,1.27-2.79,2.82-3.92,3.88-.06.04-.07.07-.07.1s.01.04.06.04c.03,0,.07-.01.1-.03,1.27-.71,2.48-1.01,3.5-1.01,1.92,0,3.22,1.09,3.22,2.61,0,.08,0,.17-.01.25-.2,1.92-2.28,2.77-4.09,2.77-1.41,0-2.68-.53-2.68-1.51,0-.08.01-.15.03-.24.11-.62.73-.95,1.43-.95.88,0,1.92.53,2.23,1.72.99-.28,1.83-.84,2-1.88.01-.13.03-.24.03-.35,0-1.26-1.02-1.99-2.42-1.99-.94,0-2.06.32-3.14,1.06-.92.63-.95,1.62-1.75,1.62-.06,0-.11,0-.18-.01-.27-.04-.39-.24-.39-.49,0-.32.18-.71.52-1.04,1.18-1.16,3.43-3.32,5.08-5.46.11-.15.17-.28.17-.36,0-.1-.06-.14-.17-.14-.08,0-.2.03-.32.08-1.93.83-2.06,1.15-2.7,1.36-.07.03-.14.03-.21.03-.49,0-.98-.5-.98-1.13v-.06c.01-.14.04-.2.08-.2s.1.04.17.1c.17.15.36.2.59.2.2,0,.41-.04.62-.08.5-.11,1.37-.36,1.92-.53.43-.13.7-.32,1.08-.36h.11c.67,0,1.27.66,1.27,1.08h0Zm-3.78,7.16c-.42,0-.77.2-.84.56-.01.04-.01.08-.01.11,0,.57.87.9,1.88.9.18,0,.38,0,.57-.03-.15-1.06-.95-1.54-1.6-1.54Z"/>
        <path class="cls-29" d="m226.16,278.18c-.71.1-1.6.15-2.49.15-1.58,0-3.22-.18-4.12-.64-.85-.45-1.34-1.18-1.34-1.99,0-.57.25-1.19.8-1.79.1-.11.18-.17.24-.17.04,0,.07.03.07.07,0,.06-.03.13-.08.21-.31.45-.43.87-.43,1.26,0,.73.48,1.29,1.15,1.62.64.31,1.79.42,2.97.42,1.09,0,2.2-.08,2.94-.21.11-.01.22-.03.32-.03.52,0,.81.25.81.5s-.25.5-.83.59Zm-1.61-9.41c.86,0,1.29.32,1.29.63,0,.04-.01.1-.03.14-.18.42-.76.36-1.18.45-.52.11-1.19.49-2.42,1.11-.04.03-.08.04-.11.04-.04,0-.06-.01-.06-.04s.03-.08.1-.14c.41-.35.76-.73,1.02-.99.08-.07.13-.13.13-.17s-.06-.07-.18-.07h-.06c-.48,0-.9.03-1.25.03-1.55,0-2.02-.2-2.44-.66-.07-.1-.11-.15-.11-.2s.03-.06.07-.06.1.01.17.04c.35.14.81.18,1.32.18,1.19,0,2.66-.28,3.6-.29h.14Z"/>
        <path class="cls-29" d="m235.58,268.43c-.07.49-.27.39-.31,1.04-.04.55-.1,1.08-.1,1.55,0,.62.11,1.12.52,1.4,1.18-.56,1.93-.84,2.65-1.15.15-.07.38-.17.38-.35,0-.06-.01-.11-.05-.17-.06-.1-.08-.17-.08-.21,0-.07.07-.08.22-.08.77,0,1.42.74,1.42,1.19,0,.08-.03.15-.07.21-.18.21-.49.07-1.12.24-2.94.74-6.11,1.9-6.11,3.84,0,.11,0,.22.03.34.17.92,1.64,1.21,3.22,1.21.99,0,2.03-.11,2.82-.24.17-.03.32-.04.46-.04.6,0,.88.24.88.49,0,.27-.31.56-.88.62-.45.04-1.43.15-2.52.15-1.88,0-4.08-.34-4.4-1.91-.04-.18-.06-.35-.06-.53,0-1.39,1.2-2.42,2.73-3.35-.76-.36-.87-1.16-.87-2.02,0-.32.01-.66.01-.98,0-.24,0-.46-.03-.67-.07-.67-.1-1.02-.67-1.28-.06-.03-.1-.06-.14-.07-.08-.06-.14-.11-.14-.15s.07-.08.21-.11c.1-.03.2-.03.31-.03.76,0,1.7.52,1.7,1.01v.06Z"/>
      </g>
      <g class="cls-35">
        <path class="cls-22" d="m334.84,319.11c.76-.25,1.46-.42,2.29-.55.35.33.67.34,1.08.24.52-.09.96-.09,1.52-.04.58.52,1.27.35,1.91.75,1.31.69,2.49,1.3,3.81,1.97.4.33.37.71.38,1.17-.2.3-.34.48-.48.66.52,0,1.04-.02,1.44-.02-.2,1.84,1.35,3.8-.08,5.79-.12.24-.13.38-.04.63-.21.75-.45,1.39-.78,2.12-.81.15-.56.82-.89,1.31-.09.11-.1.08-.09.09-.21.11-.44.19-.69.2-3.54.2-4.83-1.12-4.63-4.65.11-1.91-.07-3.76-1.63-5.15-.58-.52-.2-2.03-1.48-1.72-1.22.29-1.15,1.59-1.43,2.56-.09.3-.2.58-.6.78-1.46-.53-1.4-1.57-1.03-2.69.3-.88.64-1.75-.35-2.59.35-.35.76-.6,1.28-.83.18.09.24.13.32.12.07-.01.11-.03.18-.13Z"/>
        <path class="cls-20" d="m334.15,325.15c.93-1.9.54-5.88,4.23-3.1,1.39,1.05,2.52,3.89,2.15,5.54-.91,3.99.25,5.56,4.27,5.57-.11.35-.34.64-.67.98-.25.04-.39.08-.52.27,0,.11-.03.12-.04.13-1.15.08-2.27.23-3.37.55-.66.19-1.3.25-1.99-.29-.35-.35-.49-.75-.81-.92-1.43-.78-2.34-2-3.07-3.54-.42-.57-.27-1.19-.62-1.79-.26-.57-.18-1.09-.44-1.67-.06-.58.1-.98.45-1.44.16-.15.24-.19.43-.3Z"/>
        <path class="cls-2" d="m338.49,296.01c2.61,5.41,1.02,10.27-2.17,15.02-.79.55-1.48.66-2.27,0-.43-.62-.85-1.08-1.28-1.69-.23-.78.05-1.31.54-1.76-.58-.7-1.56-.56-2.13-1.34-.28-1.06.24-1.68.99-2.32,1.36-.05,1.99-1.02,2.7-1.79.66-.71.22-1.05-.7-1.07-.71.27-.8,1.31-1.82.92-.7-1.2.11-2.04.49-2.94.26-.6.56-1.19.95-1.9.59-.53,1.12-.64,1.81-.25.35.65-.07,1.16,0,1.71.39.05.44-.34.74-.59.5-.37,1.27-.02,1.44-.93.14-.47.3-.77.7-1.07Z"/>
        <path class="cls-6" d="m297.71,347.89c-2.39.44-4.68.68-7.11.91-2.63-1.1-3.23-.95-5.27,1.37q-5.1,2.84-9.03,2.93c5.33-4.16,11.14-6.72,16.87-9.66.41.32,1.05.24,1.12.89-.73.54-1.39.98-2.14,1.5.07.17-.37.51.16.55.68.14,1.27.2,2,.29.4.36.72.47,1.15.16.26-.12.47-.14.77-.12.35.4.7.42,1.17.26.08-.08.16-.15.21-.12.22.27.27.55.1,1.04Z"/>
        <path class="cls-19" d="m320.69,316.8c-.38-1.02-.6-2.05-.81-3.21.05-.2.09-.27.05-.42-.07-.09-.11-.16-.08-.18.89-2.5.44-5.18,1.21-7.81.46-1.32.94-2.51,1.51-3.81.55.22.83.83,1.65.56.54-.17,1.18-.06,1.89.17.97.62,1.25,1.22.55,2.18-.84,1.15-1.37,2.55-1.5,3.91-.28,2.92-1.85,5.24-3.22,7.83-.36.44-.69.67-1.26.79Z"/>
        <path class="cls-2" d="m299.99,346.16c1.67-3.41,4.64-5.05,8.25-5.99.65,1.52,2.11,1.91,3.39,2.71.35,1.23,1.14,1.39,2.16,1.28,1.09-.11,2.22-.16,2.75,1.29-.37,1.2-1.2,1.18-2.1,1.05-.9-.14-1.77-.48-2.83-.45-1.07-.36-2.05-.49-2.86-1.27-1.06-1.02-1.89-.57-2.17,1.15.25.4.53.61.74,1.03-.19.87-.82.97-1.58,1.07-1.32-.78-2.92-.96-3.73-2.31-.26-.44-.35-.06-.46.03-.44.32-.83.74-1.55.41Z"/>
        <path class="cls-15" d="m357.95,301.24c-1.15,5.31-5.03,7.86-9.71,9.69-.68-1.01-.17-1.86.35-2.53.73-.93.82-1.82.43-2.97.1-.81.55-1.19,1.25-1.5.6-.23,1.24.09,1.69-.57.11-.16.15-.23.27-.39.17-.22.28-.34.49-.54.16-.13.23-.18.41-.27,1.21-.11,2.41.27,3.38-.86.51-.28.93-.36,1.45-.05Z"/>
        <path class="cls-21" d="m340.98,312.51c-.39.14-.68.21-1.08.28-.47.07-.75-.02-.89-.51.69-1.91,1.34-3.67,2.06-5.56.16-.16.24-.18.42-.12.13.17.17.24.23.45.1,1.03.62.98,1.06.48.74-.83,1.75-1.49,2.08-2.79.1-.29.18-.44.34-.7.78-.79,1.46-1.49,2.07-2.24.56-.68,1.11-1.11,2.03-.79.99.35,1.43-.46,1.97-1.01.98-.99,1.6-2.32,2.85-3.08.63-.38,1.22-.88,2.1-.28.3.56.14.98-.19,1.49-2.87,3.3-6.33,5.8-9.24,9.06-.89,1.12-2.03,1.82-2.85,3.01-1.16.63-2.02,1.42-2.98,2.31Z"/>
        <path class="cls-8" d="m305.97,331.4c-.81.32-1.51.53-2.35.78-.97-1.84.08-3.63.2-5.62.22-.56.43-.94.73-1.46,1.21-2.69,1.54-5.4,1.83-8.29.11-.46.19-.76.33-1.21.95-1.79.99-3.94,3.03-5.02.79.1,1.14.55,1.46,1.21.16,1.38.72,1.84,1.97,1.31.49-.21,1.06-.3,1.71-.08.16.39.22.7.26,1.13-.18,2.06-1.42,2.82-3.31,3.07-.98.44-1.87,1.21-2.56-.2-.11-.22-.35-.38-.62-.26-.46.2-.49.65-.58,1.07-.17.8.58,1.7-.35,2.52-1.07,2.68-1.55,5.37-1.74,8.25.1.99.42,1.84-.04,2.8Z"/>
        <path class="cls-21" d="m320.49,354.16c-.5.25-.92.41-1.45.59-.75-.6-1.58-.79-2.37-1.1-1.17-.45-1.9-1.17-.96-2.59.18-.21.42-.2.43-.37,0-.13-.13-.12-.3.12-1.13.39-2.15.26-3.25-.18.16-1.83.94-2.57,2.67-2.78.86-.1,1.68.04,2.52.19.61.11,1.35.47,1.7-.63.26-.46.59-.63,1.1-.77,1.06-.08,1.91.29,2.96.33,1.65-.36,3.06-.4,4.21,1.11-.34.76-.76,1.4-1.31,2.07-.68.27-1.44.7-1.85.29-1.94-1.96-3.68,0-5.55.04.17,1.2.51,2.09,1.78,2.31.54.09.83.49.56,1.19-.07.11-.11.09-.09.08-.22-.07-.46-.05-.79.07Z"/>
        <path class="cls-25" d="m327.88,348.11c-1.3-.41-2.48-1.27-4.08-.58-1.14-.88-2.43-.65-3.74-.92-1.27-.36-2.56-.21-3.61-1.23-1.17-1.26-2.47-.65-3.69-.57-1.14.08-1.78-.17-1.23-1.61.78-.78,1.68-.86,2.75-.84,1.09.24,2.06.36,3.11.75.58.27.83.74,1.24,1,.65.42,1.37.98,1.36-.49,0-.96.53-1.45,1.56-1.62,3.06,1.09,5.08,3.16,6.33,6.1Z"/>
        <path class="cls-19" d="m298.05,313.54c.5-2.69,1.85-4.87,3.31-7.15.72.44,1.16-.33,1.84-.37.21.03.29.05.49.14.98.94,1.15,1.74.34,2.9-.86,1.23-.26,2.55.67,3.79.35.58.4,1.21-.01,1.45-1.42.82-3.03,1.24-4.65,1.33-1.15.06-1.51-1.06-1.98-2.08Z"/>
        <path class="cls-16" d="m321.55,341.88c-.51.78-1.65,1.22-.9,2.54.13.22-.27.74-.42,1.12-.8-.49-1.6-.99-2.41-1.61.31-.67,0-.91-.47-1.03-.95-.24-1.91-.38-2.99-.06-.91.14-1.71.21-2.65.26-1.6-.45-3.4-.46-3.36-2.8,4.55-.85,8.88-.22,13.21,1.59Z"/>
        <path class="cls-33" d="m335.67,297.47c-.43-.19-.81-.27-1.31-.34-.83-.58-.19-1.42-.59-2.16-1.11-.53-1.49.22-1.93.89-.5.76-1.19.96-1.77.2-.56-.74-1.08-.81-1.84-.41-.5.26-1.06.25-1.6-.25,1.6-3.5,7.08-4.93,10.31-2.71-.34,1.85.47,3.3,1.27,4.87-.12,1.31-.61,1.37-1.47.44-.46-.05-.77-.14-1.07-.52Z"/>
        <path class="cls-10" d="m312.41,350.45c1.29.05,2.44.06,3.75.09-2.13,3.39,2.71,2.07,2.76,4.08.02.15,0,.13,0,.11-.14-.08-.29-.1-.46.03-1.15.39-2.28.66-3.53.92-.36-.8-2-1.67-2.9-1.5-.99.19-.36.99-.64,1.57-1.22-.08-2.36-.25-3.61-.53-.97-1.15-.76-1.98.49-2.74.77-.46,1.81-.33,2.49-1.24.47-.54.94-.79,1.66-.79Z"/>
        <path class="cls-6" d="m305.74,336.38c4.38-3.42,9.64-5.48,13.42-9.81.72-.12,1.16-.74,1.97-.62.31.02.49.07.77.21.16.15.22.22.2.4-.3.31-.54.5-.87.74-1.81.73-3.27,1.61-3.39,3.85-3.55,2.07-7.08,4.02-10.73,5.99-.65.07-1.05-.14-1.37-.76Z"/>
        <path class="cls-17" d="m333.61,314.98c-.33.67-.75,1.26-1.25,2.02-.05.23-.04.3-.04.46-.08.22-.15.33-.29.52-.11.13-.16.18-.29.3-.14.11-.19.16-.44.32-.25.16-.32.2-.49.29-.18.08-.26.11-.45.18-1.68.38-2.85,2.04-4.83,1.35-.93-.83-.6-1.57.02-2.4,2.43-.41,2.52-2.89,3.92-4.12.43-.37.69-.99,1.18-1.54.21-.42.07-.74.09-1.19.24-.62.65-.69,1.26-.61.47.15.76.37,1.23.53.91.51.91,1.17.64,1.93-.21.6-.72,1.16-.26,1.96Z"/>
        <path class="cls-10" d="m315.03,313c-1.29-.72-3.33,3.55-4.06-.65.41-.83.01-1.58.16-2.31.2-.99.4-1.13,1.74-.95-1.39-.82-2.5.03-3.78.24-.4.05-.67,0-1.04-.17-.76-.62-.63-1.4-.78-2.24-.14-.66-.37-1.17-.24-1.85.09-.2.14-.27.29-.42.98.4,1.71.18,2.45-.57,2.36.68,2.54,1.02,1.39,2.52.79.63,1.74.33,2.71.56.45,1.31.8,2.56,1.13,3.94-.24.29-.28.51-.1.84.11.37.14.66.12,1.06Z"/>
        <path class="cls-4" d="m305.05,325.17c-.17.44-.31.71-.55,1.04-1.72.51-1.71,2-2.2,3.31-1.11.55-1.72-.25-2.58-.71-.47-.49-.81-.95-1.18-1.53.13-1.23-.54-2.3-.13-3.52,1.27-.34,2.34.55,3.47.17-.92-1.07-.79-1.64.53-2.12.39-.14.88.02,1.26-.47.35-.81.42-1.58.94-2.33.36-.32.65-.37,1.1-.15.82,2.23-.45,4.12-.66,6.31Z"/>
        <path class="cls-3" d="m307.28,319.84c.18-.96.22-1.85.36-2.72.1-.56.11-1.33,1.02-1.23.6.06,1.12.13,1.29.98.36,1.75.82-.51,1.39-.02.82.5.54,1.01.16,1.54q-1.04,1.45.82,1.65c.3.06.46.11.73.26.23.21.32.36.4.66.01.3-.02.47-.11.75-.92.32-.95,1.09-1.24,1.73-.26.58-.46,1.24-1.15,1.7-1,.25-1.74-.36-2.71-.42-1.43-1.36-1.42-1.48-.01-2.41-.43-.76-1.34-1.32-.96-2.49Z"/>
        <path class="cls-3" d="m325.88,302.26c-1.08-.33-2.67,1.36-3.17-.93.58-1.29,1.23-2.5,1.98-3.79,1.47-.65,2.76-.84,3.98.33.73.7,1.94.26,2.82,1.06.24,1.48-.43,2.61-1.07,3.87-.44.24-.7.12-.9-.16-1.02-1.42-2.23-1.27-3.64-.38Z"/>
        <path class="cls-18" d="m331.54,299.11c-2.21-.57-4.33-1.07-6.6-1.62.38-.73.9-1.41,1.53-2.16,1.46.52,3.53-2.31,4.35.82,1.05-.64.98-2.99,3.15-1.92.46,1.22-.05,2.2-.48,3.31-.26.32-.48.48-.84.64-.25.14-.57-.04-.54.43-.08.35-.23.51-.57.49Z"/>
        <path class="cls-27" d="m321.43,354.11c-.77-1.28-3.1-.98-2.96-3.05.02-.22-.52-.48-.8-.72.44-.15.89-.28,1.32-.46,2.39-.99,4.73-.87,7.18.29-1.03,1.85-2.76,2.96-4.74,3.94Z"/>
        <path class="cls-18" d="m304.15,321.93c-1.33.69-1.15.61-.66,1.71.38.84-.44,1.06-1.19.98-.42-.04-.86-.02-1.27-.11-.75-.18-1.49-.42-2.37-.68-.73-.49-1.07-1.14-1.58-1.8-.16-.78-.24-1.47-.29-2.29,1.11-.71,2.39-.71,3.47-1.36.64-.39,1.36,0,1.72.66.57,1.04,1.44,1.83,2.17,2.91Z"/>
        <path class="cls-13" d="m345.52,304.02c-.12.25-.18.38-.28.62-.49.67-.8,1.35-1.28,1.89-.62.68-1.32,1.31-2.39.53-.05-.14-.06-.28-.07-.35-.05-.14-.09-.21-.04-.37.08-.09.09-.06.08-.06.16-.09.26-.23.34-.54.69-1.54,1.51-2.85,2.55-4.17,1.82-3.14,4.88-4.12,8.02-5.16.21,1.83-1.31,3.06-2.38,3.45-2.2.8-3.1,2.62-4.55,4.19Z"/>
        <path class="cls-5" d="m334.21,329.88c1.4,1.45,2.71,2.81,4,4.31-.38.84.25,2.3-1.52,2.08-.42.06-.75.04-1.13-.08-.25-.65-.79-.5-1.3-.62-.81-.5-1.52-1.02-2.31-1.63-.24-1.68-.46-3.3,1.51-4.2.31-.06.48-.02.75.15Z"/>
        <path class="cls-25" d="m297.91,313.54c2.37,2.55,4.51,1.57,6.56-.48-.17-.32-.16-.53.08-.82.64-.14.95.14,1.24.69.06,1.67-.24,3.12-.88,4.65-.23.32-.4.5-.63.59-1.48.57-5.75-.46-6.98-1.79.12-.98.31-1.85.6-2.85Z"/>
        <path class="cls-9" d="m334.18,325c.09.09.05.25.02.33-1.22.24-2.1.78-2.61,1.95-.29.67-.89,1.12-1.8,1.23-.31-.04-.47-.11-.69-.33-.1-.17-.13-.23-.12-.38.89-.72.03-1.53.28-2.29.47-1.39.92-2.75,1.97-4,.54-.62,1.04-1.11,1.66-1.64,1.91.23,1.83,1.66,1.17,2.55-.78,1.04-.24,1.67.12,2.58Z"/>
        <path class="cls-14" d="m329.51,328.32c1.67-.45,1.87-1.86,2.5-2.99.42-.75,1.26-.41,2.03.05-.05.41-.24.79-.45,1.3-.07.5-.13.87-.27,1.34-.06.25-.09.39-.13.64-.04.32-.01.52.16.8.07.16.09.23.07.4-.46,1.34-.88,2.59-1.44,3.9-1.65-.7-1.91-2.31-2.64-3.76-.36-.63-.27-1.1.15-1.68Z"/>
        <path class="cls-3" d="m297.18,316.42c2.33.39,4.63.94,7.06,1.5.51.25.57.62.6,1.13-.16.96-.36,1.82-.59,2.84-.1.14-.18.15-.21.11-1.8-2.29-3.93-3.62-7.08-2.36-.04-1.04.07-2.05.22-3.21Z"/>
        <path class="cls-15" d="m345.59,304.15c.71-2.02,1.71-3.75,3.98-4.66,1.17-.47,1.97-1.85,2.97-2.95,1.17-.88,2.34-1.33,3.7-.29.12.19.14.28.07.44-2.32.14-3.15,1.89-4.23,3.4-1.57,2.18-5.1,1.36-6.48,4.07Z"/>
        <path class="cls-31" d="m305.71,336.21c.34.24.69.5,1.16.85-3.01,1.91-6.14,3.72-9.4,5.55-.6-.07-1.07-.2-1.45-.73,1.45-1.25,2.96-2.37,4.56-3.59.42-.39.57-.78.69-1.27-.04-.28-.03-.44.03-.73.12-.16.19-.2.39-.25.2.02.28.05.45.17.28.38.18.74.32,1.17.25.25.45.38.76.47.17-.02.24,0,.34-.08.03-.1.09-.05.06-.02.12,0,.24-.05.41-.24.06-.2.11-.28.29-.32.23.01.37-.02.59-.18.08-.08-.02-.07-.03-.13.35.02.57-.24.83-.54.02-.12,0-.13,0-.14Z"/>
        <path class="cls-16" d="m308.08,324.49c1.05-.5,1.74-.04,2.54.51.57.71-.03,1.24-.25,1.96-1.5,1.57-2.88,3.03-4.38,4.52-.2-.75-.29-1.54-.34-2.47.15-1.91.53-3.55,2.43-4.51Z"/>
        <path class="cls-26" d="m311.11,351.16c-.26,1.92-2.25,1.01-3.09,2-.42.5-.92,1-.39,1.85-.11.09-.25.07-.47,0-.29-.01-.5-.02-.83-.18-1.56-.98-3-1.86-4.51-2.86.17-.44.61-.32.93-.57.02-.66-1.13-.75-.83-1.55.21-.58.79-.69,1.39-.94.39-.05.65-.01,1.01.15.5.37.76.79,1.07,1.16,1.05,1.25,2.29,1.75,3.89,1.11.55-.22,1.11-.53,1.83-.15Z"/>
        <path class="cls-21" d="m304.51,349.41c-.42-.11-.69-.17-1.09-.25-1.34-.8-2.79-.24-4.17-.78-.55-.1-.97-.18-1.51-.29-.11-.29-.1-.56-.08-1.03,0-.2.01-.19.02-.19.21.11.44.09.77.07.5-.27.89-.51,1.37-.82,2.73-2.44,3.99-.03,5.61,1.52,1.09,1.24.61,1.73-.91,1.75Z"/>
        <path class="cls-17" d="m343.62,310.19c.88-1.1,1.74-2.08,2.69-3.15,1.18-.35,1.55-1.7,2.85-1.76,2.14,2.32-1,3.49-1.02,5.47-.02.14-.04.1-.03.09-.12.04-.25.12-.41.31-.36.24-.67.38-1.09.52-.39.04-.55-.11-.67-.46-.05-.27.26-.47-.17-.57-.79-.14-1.74,1.28-2.15-.45Z"/>
        <path class="cls-24" d="m326.15,317.8c-.28.85-1.48,1.52-.17,2.43-.16.7-.87.83-1.49,1.29-.77.3-1.41,1.65-2.07-.02.07-.31.1-.48.22-.69.08-.2.05-.34-.06-.58-.04-.1-.09-.04-.13-.06-.33-.99.23-1.77.61-2.74.86-1.07,1.38-2.21,2.5-3.07.87-.26,1.53-.11,1.73.66.29,1.08-.08,2-1.14,2.77Z"/>
        <path class="cls-26" d="m312.62,320.41c-6.26.66-.72-2.2-1.13-3.43,1.34-.63,3.04-.67,3.51-2.65-.04,1.07-.2,2.2-.45,3.47-.51.55-.45,1.18-.82,1.74-.36.37-.66.62-1.11.86Z"/>
        <path class="cls-21" d="m302.1,336.27c-.16.05-.21.05-.23.03-.5-.73.14-1.37.01-2.17-.1-.93-.1-1.74-.13-2.68-.26-.68,0-1.18.14-1.8.63-1.32-.61-3.68,2.34-3.44-.15,1.92-.44,3.79-.74,5.84-.04.31-.06.45-.15.68-.97,1.05-.21,2.53-1.25,3.55Z"/>
        <path class="cls-3" d="m299.16,348.5c1.29.14,2.92-1.65,4.04.56-.25.38-.58.68-.96,1.02.19.81,2.3.19,1.54,1.78-.46.96-1.15.15-1.88.02-1.58-.65-2.13-1.96-2.74-3.38Z"/>
        <path class="cls-31" d="m317.96,331.29c-.7-.61-1.08-1.48-.41-1.94,1.1-.74,1.48-2.71,3.49-2.07-.71.85-1.52,1.63-2.66,2.74,1.38-.15,2.33-.25,3.41-.32.6.08,1.08.05,1.64.5-1.68.5-3.51.8-5.47,1.09Z"/>
        <path class="cls-22" d="m336.76,336.39c.3-.7.75-1.36,1.33-2.05,1.78,1.29,3.52-1.18,5.33.15-1.8,1.65-3.88,2.74-6.65,1.9Z"/>
        <path class="cls-27" d="m322.32,321.44c1.01,1.44,1.2-.35,1.89-.45.6,1.49-.45,2.51-1.14,3.79-.2.37-.36.6-.63.92-.28.32-.52.44-.92.56-.75.12-1.37.2-2.13.26.85-1.68,1.83-3.34,2.93-5.08Z"/>
        <path class="cls-11" d="m303.74,306.47c-.08-.09-.24-.19-.32-.24-.65-.57-.75-1.14-.19-1.92,1.22-1.52,2.63-2.22,4.58-1.92.4.51.4.97.13,1.57-.13.19-.2.26-.38.38-.98.45-2.28.18-2.21,1.87.03.82-.87.8-1.61.26Z"/>
        <path class="cls-2" d="m332.17,317.32c.07-.11.13-.17.12-.16,1.49.11,2.05-1.36,3.29-1.94.35-.06.51.05.52.42-2.16,1.87-4.25,3.59-6.46,5.36-.32.08-.48.01-.64-.3-.1-1.25.89-1.45,1.67-2.02.12-.07.1-.08.1-.07.1-.06.2-.13.39-.24.08-.05.06-.05.06-.04.1-.06.2-.13.39-.24.08-.05.06-.05.06-.04.23-.14.28-.42.51-.73Z"/>
        <path class="cls-7" d="m346.19,310.67c.05.34.1.58.23.91-1.7.43-3.49.78-5.41,1.06.24-1.35,1.09-2.17,2.5-2.56.68,1.3,1.53-.56,2.26.22.26.07.36.15.42.38Z"/>
        <path class="cls-4" d="m311.44,355.89c-.26-.94-1.94-2.4.5-2.4,1.45,0,2.91.6,4.75,1.02-.8.43-1.29.69-1.83,1.05-1.13.19-2.2.28-3.41.32Z"/>
        <path class="cls-10" d="m323.69,330.42c-.54-.19-.95-.35-1.57-.6,1.98-.47,4.16-.87,6.47-1.32.15-.14.17-.22.26-.4.07-.1.15-.1.16-.06.14.07.27.1.5.15.03.48-.03.95-.14,1.54-1.88.32-3.72.51-5.68.68Z"/>
        <path class="cls-33" d="m329.04,320.41c.18.2.23.35.39.57-2.01,1.75-4.12,3.42-6.35,5.13-.4-.1-.76,0-1.03-.38.01-.29.05-.45.15-.68,1.51-1.55,3.26-2.65,4.93-3.86.54-.4,1.04-.87,1.91-.79Z"/>
        <path class="cls-18" d="m313.98,307.11c-1.41,1.11-2.93.32-4.1-.14-.53-.21,1.09-.78,1.63-1.31-.51-.41-1.01-.82-1.65-1.28-.21-.19-.24-.35-.15-.64.25-.31.48-.37.86-.3.64.39,1.17.75,1.74,1.22.07.37.21.55.52.73.46.56.8,1.08,1.15,1.72Z"/>
        <path class="cls-17" d="m356.18,296.88c.04-.19.06-.26.11-.43,2.13.9,1.88,2.8,1.78,4.75-.41.15-.78.18-1.25.17-.96-.47-.63-1.5-1.2-2.23-.15-.35-.17-.59-.11-.96.23-.48.45-.83.67-1.31Z"/>
        <path class="cls-18" d="m333.79,314.98c-3.09-.79,1.01-2.27-.48-3.35-.32-.33-.33-.63-.11-1.06.29-.21.49-.22.81-.03.73.25,1.35.39,2.1.56-.66,1.28-1.45,2.54-2.31,3.88Z"/>
        <path class="cls-32" d="m323.46,317.16c-.36,1-.67,1.85-1.02,2.84-.68-.89-1.32-1.92-1.94-3.08.29-.31.54-.5.9-.73,1.08-.48,1.81-.34,2.06.97Z"/>
        <path class="cls-31" d="m285.37,350.23c-.12-2.06,1.61-2.39,3.04-2.83.84-.26,1.76.15,1.97,1.35-1.6.44-3.48.1-5.01,1.48Z"/>
        <path class="cls-28" d="m338.32,297.48c-1.47-1.09-2.86-2.36-1.4-4.59.63.86,1.17,1.84,1.7,2.94-.09.57-.17,1.03-.3,1.65Z"/>
        <path class="cls-12" d="m296.99,322.06c1-.07,1.43.54,1.55,1.57-.23,1.21,1.33,2.21.05,3.43-1.4-1.31-1.45-3.1-1.6-5Z"/>
        <path class="cls-30" d="m295.83,341.77c.55.17.98.38,1.46.72-.91.73-1.87,1.32-2.96,1.92-.12-.68-1.54.38-1.09-.91.84-.64,1.65-1.17,2.58-1.73Z"/>
        <path class="cls-26" d="m310.02,303.58c-.14.21-.19.37-.27.64-.33.66-.62,1.21-.91,1.75-.39-.39-.78-.79-1.34-1.34-.17-.23-.18-.31-.08-.44.21-.53.33-1,.48-1.61.21-.12.37-.1.65-.02.15.11.19.16.33.19.36.06.63.13,1.01.27.23.2.26.33.13.55Z"/>
        <path class="cls-23" d="m320.94,305.18c-.88,2.31,1.51,5.22-1,7.63-.84-2.54.56-4.94,1-7.63Z"/>
        <path class="cls-17" d="m336.16,315.74c-.18-.11-.24-.26-.38-.49.95-1.07,1.99-2.06,3.15-3.09.29.14.47.31.75.55-1.06,1.04-2.23,2.02-3.52,3.03Z"/>
        <path class="cls-25" d="m310.35,326.98c.04-.5.18-1.08.36-1.81,1.41-.81.1-3.33,2.44-3.38-.81,1.73-1.76,3.42-2.8,5.19Z"/>
        <path class="cls-33" d="m301.83,329.51c.1.57.08,1.1-.02,1.72-.79-.68-1.5-1.44-2.22-2.33,1.13-1.25,1.27.77,2.24.61Z"/>
        <path class="cls-20" d="m331.17,321.45c-.56,1.99-1.23,4.05-2.02,6.19-.18-2.23.07-4.43,2.02-6.19Z"/>
        <path class="cls-7" d="m344.37,301.49c-.67,1.38-1.47,2.8-2.32,4.35-.13.17-.21.21-.37.15.8-1.55,1.68-3,2.69-4.5Z"/>
        <path class="cls-16" d="m303.2,304.22c.13.54.13,1.11.13,1.83-.69-.52-.9,2.31-1.84.31.48-.76,1.03-1.43,1.71-2.13Z"/>
        <path class="cls-27" d="m301.95,336.44c.36-1.24.73-2.36,1.22-3.56-.1,1.38-.34,2.84-.62,4.45-.23-.16-.42-.47-.6-.9Z"/>
        <path class="cls-27" d="m313.34,319.71c.36-.65.62-1.19,1-1.74-.15.94-.43,1.9-.77,2.99-.19.1-.28.03-.36-.18-.13-.38-.13-.68.13-1.07Z"/>
        <path class="cls-31" d="m321.97,325.72c.38.02.69.13,1,.34-.14.17-.3.24-.56.37-.17.11-.23.17-.36.14-.21-.13-.34-.16-.56-.23.07-.19.24-.35.48-.62Z"/>
        <path class="cls-27" d="m301.73,334.16c.09.51.11,1.17.13,1.98-.1.15-.19.15-.4.1-.01-.68.1-1.31.27-2.07Z"/>
        <path class="cls-27" d="m301.17,336.97c.57.53.57,1-.38,1.25-.07-.17-.02-.31.1-.54.07-.17.07-.25.15-.43.08-.09.1-.23.14-.28Z"/>
        <path class="cls-7" d="m345.9,322.74c-.19-.3-.25-.63-.32-1.09,0-.13.03-.1.02-.09.07-.01.14-.05.29.03-.02.45,1.47.7.01,1.15Z"/>
        <path class="cls-27" d="m341.72,319.42c-.53-.02-1.12-.19-1.78-.49.52.03,1.12.19,1.78.49Z"/>
        <path class="cls-22" d="m334.28,335.66c.3.02.72.12,1.19.33-.33,0-.69-.13-1.19-.33Z"/>
        <path class="cls-6" d="m305.62,336.26c-.09.21-.29.45-.62.63.08-.24.3-.42.62-.63Z"/>
        <path class="cls-10" d="m312.9,305.33c-.51.48-.62.19-.57-.43.19.03.36.18.57.43Z"/>
        <path class="cls-20" d="m345.03,333.17c.08-.36.28-.79.63-1.24-.07.37-.29.78-.63,1.24Z"/>
        <path class="cls-22" d="m346.03,321.65c-.13.02-.19,0-.35-.05.03-.15.15-.27.26-.39.05.13.1.27.08.44Z"/>
        <path class="cls-10" d="m310.03,303.65c-.08-.13-.07-.25-.04-.45.2-.02.39.05.63.2-.12.14-.31.21-.6.25Z"/>
        <path class="cls-13" d="m347.75,324.19c-.24-.04-.36-.16-.48-.28.15-.09.3-.17.44-.26.05.15.1.31.03.54Z"/>
        <path class="cls-27" d="m338.16,318.67c-.19.07-.51.1-.87.03.22-.09.48-.08.87-.03Z"/>
        <path class="cls-27" d="m295.37,346.72c-.19.09-.52.16-.89.11.22-.12.49-.12.89-.11Z"/>
        <path class="cls-27" d="m297.34,346.86c-.21.07-.57.1-.96.02.25-.1.54-.08.96-.02Z"/>
        <path class="cls-10" d="m306.28,354.78c.12-.02.31.02.65.11-.1.02-.34-.02-.65-.11Z"/>
        <path class="cls-21" d="m318.51,354.88c.02-.1.12-.19.31-.23.02.18-.08.24-.31.23Z"/>
        <path class="cls-8" d="m315.04,311.89c-.1-.1-.16-.33-.13-.6.12.13.15.3.13.6Z"/>
        <path class="cls-6" d="m298.44,346.87c-.12.08-.34.12-.66.09.12-.09.34-.11.66-.09Z"/>
        <path class="cls-27" d="m320.53,354.27c.1-.1.32-.19.66-.23-.1.11-.32.18-.66.23Z"/>
        <path class="cls-14" d="m328.87,328.05c.05.06.04.18-.06.34-.1-.08-.07-.19.06-.34Z"/>
        <path class="cls-20" d="m334.79,319.03c0,.07-.11.14-.27.15.02-.09.09-.12.27-.15Z"/>
        <path class="cls-23" d="m319.84,313.18c.07,0,.11.11.11.24-.08-.02-.1-.09-.11-.24Z"/>
        <path class="cls-27" d="m322.54,320.24s.08.17.14.42c-.03-.03-.08-.17-.14-.42Z"/>
        <path class="cls-33" d="m321.97,326.53c0-.05.16-.07.24-.06.08,0,.06.14.06.14,0,0-.1.08-.17.07s-.12-.1-.13-.15Z"/>
        <path class="cls-22" d="m343.7,334.51c-.02-.08.06-.18.23-.3.02.08-.06.18-.23.3Z"/>
        <path class="cls-9" d="m346.76,329.71c-.08-.04-.11-.18-.1-.42.08.04.12.18.1.42Z"/>
        <path class="cls-15" d="m341.43,306.23c.1.08.09.14.07.3-.02.1-.18.07-.26.06-.02-.13.03-.25.19-.36Z"/>
        <path class="cls-15" d="m341.54,305.97c.12-.07.19-.06.36-.02,0,.11-.09.2-.28.3-.11-.06-.12-.13-.08-.28Z"/>
        <path class="cls-15" d="m347.77,311.22c-.03-.09.06-.2.26-.36.02.08-.06.21-.26.36Z"/>
        <path class="cls-6" d="m303.96,337.43c.02.09-.08.19-.28.32-.01-.09.08-.2.28-.32Z"/>
        <path class="cls-6" d="m304.87,336.9c0,.11-.13.18-.37.27.01-.09.13-.2.37-.27Z"/>
        <path class="cls-31" d="m301.06,337.21c.06-.06.07.11.07.11,0,0-.06.16-.12.21-.09-.06-.07-.16.05-.32Z"/>
        <path class="cls-10" d="m308.91,302.7c-.04.16-.13.16-.23,0-.01-.06.17-.05.23,0Z"/>
        <path class="cls-6" d="m303.51,337.68c.01.07-.05.15-.15.18-.04-.05.07-.17.15-.18Z"/>
        <path class="cls-9" d="m342.15,330.3c-.43-.21-1.24-.6-.61-.74,1.77-.39,1.89-4.2,4.53-2.28.95.69.21,1.3-.76,1.39,1.33,4.83-1.78,1.56-3.17,1.63Z"/>
        <path class="cls-9" d="m332.74,328.99c-.02-.27,0-.42.07-.68.32-.3.6-.28.99-.01,1.18.23.98.8.54,1.55-.23.1-.43.09-.79.09-.15.01-.32-.04-.4-.08-.14-.29-.25-.52-.4-.87Z"/>
        <path class="cls-5" d="m333.92,328.28c-.28.08-.55.02-.94-.05.02-.45.18-.88.47-1.37.25.4.37.84.48,1.42Z"/>
        <path class="cls-26" d="m334.12,310.52c-.16.11-.3.1-.57.07-.5.04-.76.42-1.29.38-.49.07-.86.14-1.28.34.07.35.2.57.39.9-2.17,1.52-1.92,5.19-5.22,5.72-.34-1.1,2.36-2.37-.47-3.2-.47.22-.72.08-.98-.35-.14-.57-.04-.96.2-1.48,1.23-1.47,1.29-3.42,2.72-4.76.21-.1.3-.12.52-.08.82,1.61-.67,2.65-.74,3.8.82-1.98,1.71-4.16,2.52-6.52.91-1.09,1.54-2.21,2.4-3.34.49-.52.87-.95,1.33-1.33.71,1.3-.06,2.14-.88,3.11-.55.8-.97,1.49-1.42,2.33-.01.19.04.27.02.31-.73,1.5-.19,2.34,1.46,2.75.49.47.9.86,1.3,1.37Z"/>
        <path class="cls-28" d="m332.41,301.78c-.57,1.21-1.16,2.28-1.85,3.43-.2.1-.3.12-.52.04-.3-.48-.26-.88-.11-1.41,1.15-1.4,1.11-3.18,2.12-4.63.12-.2.15-.29.23-.51.09-.32.18-.48.41-.71.49-1.17.88-2.25,1.3-3.48,1.28.56.14,1.49.26,2.47-.62,1.67-1.24,3.18-1.84,4.82Z"/>
        <path class="cls-15" d="m332.94,309.1c-.97.06-1.91-.01-2.86-.08.36-.86.71-1.71,1.15-2.68,1.23.45,4.31-.17,1.71,2.76Z"/>
        <path class="cls-17" d="m332.77,303.9c.21-.99.55-1.94.93-3.04.9-.96,1.72-.55,2.26.14.7.9-.42,1.22-.81,1.74-.55.74-.55,2.58-2.38,1.16Z"/>
        <path class="cls-17" d="m335.49,297.43c.41.05.71.18,1.07.41-.18.88-.14,2.21-1.35,1.7-.89-.38-.08-1.35.28-2.11Z"/>
        <path class="cls-16" d="m330.42,303.68c-.13.46-.27.82-.46,1.31-.07.59-.33.9-.72,1.29-.24.17-.38.25-.66.32-1.48.04-.22.94-.62,1.39-.82,1.68-1.56,3.26-2.44,4.87-1.28-.13-1.27.36-.69,1.23.22.27.37.44.63.66-.51.87-1.14,1.69-1.89,2.54-.68-.34-1.24-.71-1.92-1.11,1.56-4.24,3.27-8.43,4.9-12.65.09-.24-.37-.71-.68-1.14-.04-1.64,1.17-1.37,2.12-1.4,1.07-.03,1.89.34,1.88,1.77.2.35.45.52.55.92Z"/>
        <path class="cls-23" d="m321.93,305.24c-.05-.12-.02-.26,0-.41.02.13.05.25,0,.41Z"/>
        <path class="cls-3" d="m322.75,304.15c-.02-.12.04-.24.1-.35,0,.12-.02.24-.1.35Z"/>
        <path class="cls-27" d="m304.37,349.5c.54-.48,1.71-.3,1.19-1.68.51-.29,1.05-.46,1.68-.72.46-.47.96-.47,1.58-.53,2.4.24,4.65.56,7.07.17.23-.03.33-.03.56-.03.4.05.66.12,1.03.25.49.19.85.4,1.39.2.29-.02.45,0,.69.15.44.45.78.83,1.2,1.29-2.73.74-6.08-1.91-8.18,1.75-.44.34-.83.56-1.3.84-2.75,1.16-5.3,1.8-6.91-1.69Z"/>
        <path class="cls-8" d="m316.89,347.1c-.2.05-.28.05-.48.03-2.57-.16-5.03-.17-7.58-.12-.49.09-.88.07-1.39.02-.43-.17-.74-.31-1.12-.57,1.12-1.79,2.89-.92,4.52-1.05,1.88-.45,3.63,1.49,5.46-.02,1.38.17,2.71.47,4.2.81.2.12.24.2.19.38-1.27.33-2.45.6-3.8.51Z"/>
        <path class="cls-7" d="m310.9,345.42c-1.43.36-2.91.63-4.51.92-1.89-1.09.17-1.68.22-2.54.96.16,1.92.31,2.89.47-.22,1.21.95.65,1.41,1.16Z"/>
        <path class="cls-12" d="m355.43,298.15c.17.11.24.29.29.59-.05,1.83-1.33,2.64-2.61,3.61-.11.08-.11.1-.11.09-.16.14-.23.34-.43.58-.09.06-.09.03-.1.03-.46.47-.84,1.04-1.7,1.09-.54.35-.96.67-1.44,1.09-.94.65-1.82,1.21-2.81,1.74,2.86-2.93,5.83-5.83,8.91-8.82Z"/>
        <path class="cls-8" d="m353.12,302.42c.7-1.14,1.53-2.28,2.47-3.5,1.39.27.81,1.41,1.09,2.32-.64,2.05-2.07,1.5-3.55,1.18Z"/>
        <path class="cls-8" d="m350.8,304.2c.38-.44.9-.83,1.54-1.19.06,1-.27,1.62-1.54,1.19Z"/>
        <path class="cls-8" d="m352.59,303.03c0-.16.09-.36.3-.58.01.17-.09.36-.3.58Z"/>
        <path class="cls-15" d="m341.45,307.06c2.2.72,2.16-1.86,3.61-2.31.02,2.07-1.57,3.28-3.07,3.94-1.39.61-.62-.86-.54-1.63Z"/>
        <path class="cls-11" d="m308.18,324.36c-.76,1.48-1.57,2.86-2.44,4.37-.52-2.99.63-5.87,1.51-8.89.46.53.77,1.16,1.14,1.75.27.43.9.84.86,1.2-.09.89-.81.22-1.21.32-1.32.36.08.74.14,1.24Z"/>
        <path class="cls-4" d="m309.01,309.26c1.02-1.2,2.3-1.19,3.49-.77.5.17.79.99,1.1,1.55.04.07-.34.52-.57.56-1.15.22-.43-1.05-1.11-1.39-.23,1.03-.46,2.02-.81,3-.37-.37-.61-.75-.89-1.22-.35-.68-1.28-.76-1.21-1.74Z"/>
        <path class="cls-12" d="m307.58,306.51c.2.72.24,1.41.32,2.22.62.86.8,1.75.46,2.56-.53,1.27-.54,2.63-1,4.06-.16.41-.22.69-.33,1.1-.24.24-.45.25-.79.08-.92-1.32-.15-2.61-.29-4.02.21-1.31.21-2.48.35-3.63.11-.88.13-1.88,1.27-2.37Z"/>
        <path class="cls-21" d="m307.39,315.4c.09-2.02.29-4.13.52-6.39.3-.09.57-.02.99.09.53.54.92,1.05,1.29,1.67-1.85,1.03-2.06,2.91-2.8,4.63Z"/>
        <path class="cls-33" d="m306.13,316.51c.31-.05.47,0,.74.06-.46,2.87-1.03,5.71-1.73,8.66.07-1.93.26-3.97.47-6.17-.4-1.01-.23-1.77.52-2.55Z"/>
        <path class="cls-7" d="m320.51,346.69c.08-.12.13-.27.15-.36.82.81,2.61-1,3.01,1.1-.93-.03-1.87-.16-2.96-.33-.2-.13-.24-.21-.2-.41Z"/>
        <path class="cls-18" d="m320.44,346.55c.13.1.13.18.11.39-.25.2-.49.28-.81.41-.24.05-.41.05-.69.05-.42.16-.72.22-1.13-.01-.37-.1-.63-.13-1.02-.2,1.05-.24,2.23-.45,3.55-.64Z"/>
        <path class="cls-10" d="m316.3,350.55c.06-.03.11-.06.17-.08-.02.02-.05.05-.12.08-.05,0-.05,0-.05,0Z"/>
        <path class="cls-11" d="m314.41,342.93c1.42-1.76,3-.42,4.58-.02.12.03.16.36.23.55-.38.11-.76.22-1.28.33-1.22-.27-2.29-.55-3.53-.86Z"/>
        <path class="cls-16" d="m303.68,306.49c.49-.21,1.57.52,1.28-.77-.47-2.07.71-1.78,2.07-1.58.2.07.27.16.38.33.05.07.07.11.09.12-.02.09-.05.16-.14.35-.19.17-.32.22-.56.31-.44.14-.47.4-.43.81.26,1.63-.45,3.1-.17,4.64.17.94-.8,1.07-1.51,1.5-.15.22-.19.37-.26.63-.42-.1-.81-.31-1.21-.52,1.52-1.08-1.88-2.47.2-3.47,1.31-.64.75-1.41.26-2.33Z"/>
        <path class="cls-15" d="m332.2,311.07c.3-.27.65-.42,1.12-.54.05.29-.02.54-.11.91-.33,0-.64-.13-1.01-.37Z"/>
        <path class="cls-15" d="m331.45,312.2c-.2-.1-.38-.32-.54-.66.2.1.38.33.54.66Z"/>
        <path class="cls-19" d="m306.47,304.87c.27-.03.44.01.72.12.24.48.37.91.52,1.44-1.28,1.85-.58,4.02-1.28,6.06-.2.36-.41.42-.76.39-.37-.2-.62-.38-.98-.58,1.6-1.84.75-4.21,1.3-6.43-.08-.52.14-.73.49-1Z"/>
        <path class="cls-15" d="m305.52,313.02c.24-.24.45-.31.76-.38.08,1.17.05,2.32,0,3.62-.2.87-.39,1.6-.63,2.48-.25.19-.44.23-.71.34-.25-.26-.42-.59-.58-1.03.38-1.7.74-3.28,1.14-5.03Z"/>
        <path class="cls-25" d="m313.33,319.59c.07.28.02.56-.09.97-.21.08-.35.03-.61-.06.12-.33.35-.62.7-.91Z"/>
        <path class="cls-15" d="m330.54,303.69c-.31-.13-.51-.34-.69-.68.52-1.3,1.01-2.49,1.55-3.83.19-.29.34-.44.53-.68,0-.17-.03-.24.02-.37.27-.14.46-.22.74-.28.07.17.04.31-.03.56-.08.17-.12.23-.17.41-.62,1.67-1.23,3.22-1.96,4.86Z"/>
        <path class="cls-3" d="m331.99,298.09c.06-.01.03.15,0,.23-.04-.02-.05-.12,0-.23Z"/>
        <path class="cls-5" d="m332.66,328.98c.19.13.33.37.45.72-.18-.13-.34-.37-.45-.72Z"/>
        <path class="cls-15" d="m346.32,310.79c-.23-.1-.3-.19-.39-.39.45-.28.93-.88,1.43-.1-.3.17-.6.34-1.04.49Z"/>
        <path class="cls-19" d="m307.48,304.44c-.13.05-.21-.03-.3-.23-.03-.09.16-.08.25-.07.08.07.08.14.05.3Z"/>
        <path class="cls-12" d="m329.02,306.15c.31-.37.5-.65.79-.98.18-.02.28,0,.51.08-.97,2.84-2.08,5.64-3.19,8.44-.22-.08-.43-.15-.65-.23.59-1.65,1.17-3.3,1.79-5.11-.03-.22-.09-.29-.14-.5.09-.72.46-1.16.89-1.7Z"/>
        <path class="cls-11" d="m324.95,314.07c-.48.03-.91-.07-1.34-.17.15-.51.16-1.13.47-1.5.31-.35.97-.68,1.26.35-.1.48-.22.84-.4,1.32Z"/>
        <path class="cls-19" d="m328.41,307.83c-.09.15-.06.26-.09.31-.09.03-.16.02-.34-.03-.49-.73-.88-1.44-1.26-2.15.55.11,1.1.21,1.78.34.35.5.1.93-.09,1.53Z"/>
        <path class="cls-15" d="m329.7,310.76c.15-.05.28-.02.41.02,0,0-.02.1-.04.16-.13-.03-.26-.06-.38-.18Z"/>
        <path class="cls-18" d="m332.55,298.85s-.04-.14.03-.29c.04.04.03.11-.03.29Z"/>
        <path class="cls-26" d="m328.44,307.88c-.04-.34.04-.79.15-1.4.14-.24.24-.31.44-.41-.09.55-.28,1.13-.59,1.8Z"/>
        <path class="cls-18" d="m308.9,347.13c2.28-1.11,4.77-.48,7.32-.13-2.34.13-4.75.14-7.32.13Z"/>
        <path class="cls-8" d="m317.83,347.44c.28-.13.58-.13.99-.09-.17.58-.5.8-.99.09Z"/>
        <path class="cls-11" d="m306.46,304.79c-.03.27-.16.52-.38.85-1.03-.62-.36-.74.38-.85Z"/>
      </g>
    </g>
  </g>
</svg>